<ttFont>
    <TTGlyph name="A" xMin="-49" yMin="0" xMax="647" yMax="690">
      <contour>
        <pt x="418" y="146" on="1"/>
        <pt x="230" y="146" on="1"/>
        <pt x="176" y="0" on="1"/>
        <pt x="-49" y="0" on="1"/>
        <pt x="217" y="638" on="1"/>
        <pt x="237" y="690" on="0"/>
        <pt x="293" y="690" on="1"/>
        <pt x="489" y="690" on="1"/>
        <pt x="515" y="690" on="0"/>
        <pt x="555" y="655" on="0"/>
        <pt x="558" y="630" on="1"/>
        <pt x="647" y="0" on="1"/>
        <pt x="430" y="0" on="1"/>
      </contour>
      <contour>
        <pt x="406" y="304" on="1"/>
        <pt x="394" y="453" on="1"/>
        <pt x="391" y="479" on="0"/>
        <pt x="393" y="530" on="1"/>
        <pt x="365" y="530" on="1"/>
        <pt x="358" y="489" on="0"/>
        <pt x="345" y="455" on="1"/>
        <pt x="289" y="304" on="1"/>
      </contour>
    </TTGlyph>
    <TTGlyph name="AE" xMin="-58" yMin="-4" xMax="977" yMax="692">
      <contour>
        <pt x="951" y="531" on="1"/>
        <pt x="721" y="531" on="1"/>
        <pt x="696" y="531" on="0"/>
        <pt x="675" y="514" on="0"/>
        <pt x="672" y="491" on="1"/>
        <pt x="662" y="420" on="1"/>
        <pt x="900" y="420" on="1"/>
        <pt x="884" y="286" on="1"/>
        <pt x="642" y="286" on="1"/>
        <pt x="629" y="199" on="1"/>
        <pt x="624" y="159" on="0"/>
        <pt x="665" y="159" on="1"/>
        <pt x="897" y="159" on="1"/>
        <pt x="894" y="8" on="1"/>
        <pt x="797" y="-4" on="0"/>
        <pt x="559" y="-4" on="1"/>
        <pt x="487" y="-4" on="0"/>
        <pt x="413" y="86" on="0"/>
        <pt x="423" y="156" on="1"/>
        <pt x="254" y="156" on="1"/>
        <pt x="167" y="0" on="1"/>
        <pt x="-58" y="0" on="1"/>
        <pt x="257" y="538" on="1"/>
        <pt x="292" y="597" on="0"/>
        <pt x="369" y="660" on="0"/>
        <pt x="508" y="692" on="0"/>
        <pt x="623" y="692" on="1"/>
        <pt x="857" y="692" on="0"/>
        <pt x="977" y="681" on="1"/>
      </contour>
      <contour>
        <pt x="343" y="314" on="1"/>
        <pt x="445" y="314" on="1"/>
        <pt x="471" y="502" on="1"/>
        <pt x="476" y="531" on="0"/>
        <pt x="492" y="564" on="1"/>
        <pt x="481" y="564" on="1"/>
        <pt x="479" y="560" on="0"/>
        <pt x="458" y="518" on="0"/>
        <pt x="454" y="512" on="1"/>
      </contour>
    </TTGlyph>
    <TTGlyph name="Aacute" xMin="-49" yMin="0" xMax="647" yMax="962">
      <contour>
        <pt x="354" y="720" on="1"/>
        <pt x="307" y="806" on="1"/>
        <pt x="554" y="962" on="1"/>
        <pt x="620" y="816" on="1"/>
      </contour>
      <contour>
        <pt x="418" y="146" on="1"/>
        <pt x="230" y="146" on="1"/>
        <pt x="176" y="0" on="1"/>
        <pt x="-49" y="0" on="1"/>
        <pt x="217" y="638" on="1"/>
        <pt x="237" y="690" on="0"/>
        <pt x="293" y="690" on="1"/>
        <pt x="489" y="690" on="1"/>
        <pt x="515" y="690" on="0"/>
        <pt x="555" y="655" on="0"/>
        <pt x="558" y="630" on="1"/>
        <pt x="647" y="0" on="1"/>
        <pt x="430" y="0" on="1"/>
      </contour>
      <contour>
        <pt x="406" y="304" on="1"/>
        <pt x="394" y="453" on="1"/>
        <pt x="391" y="479" on="0"/>
        <pt x="393" y="530" on="1"/>
        <pt x="365" y="530" on="1"/>
        <pt x="358" y="489" on="0"/>
        <pt x="345" y="455" on="1"/>
        <pt x="289" y="304" on="1"/>
      </contour>
    </TTGlyph>
    <TTGlyph name="Abreve" xMin="-49" yMin="0" xMax="647" yMax="920">
      <contour>
        <pt x="505" y="920" on="1"/>
        <pt x="599" y="905" on="1"/>
        <pt x="601" y="835" on="0"/>
        <pt x="495" y="737" on="0"/>
        <pt x="405" y="737" on="1"/>
        <pt x="314" y="737" on="0"/>
        <pt x="221" y="844" on="0"/>
        <pt x="243" y="913" on="1"/>
        <pt x="341" y="918" on="1"/>
        <pt x="336" y="887" on="0"/>
        <pt x="370" y="863" on="0"/>
        <pt x="414" y="863" on="1"/>
        <pt x="499" y="863" on="0"/>
      </contour>
      <contour>
        <pt x="418" y="146" on="1"/>
        <pt x="230" y="146" on="1"/>
        <pt x="176" y="0" on="1"/>
        <pt x="-49" y="0" on="1"/>
        <pt x="217" y="638" on="1"/>
        <pt x="237" y="690" on="0"/>
        <pt x="293" y="690" on="1"/>
        <pt x="489" y="690" on="1"/>
        <pt x="515" y="690" on="0"/>
        <pt x="555" y="655" on="0"/>
        <pt x="558" y="630" on="1"/>
        <pt x="647" y="0" on="1"/>
        <pt x="430" y="0" on="1"/>
      </contour>
      <contour>
        <pt x="406" y="304" on="1"/>
        <pt x="394" y="453" on="1"/>
        <pt x="391" y="479" on="0"/>
        <pt x="393" y="530" on="1"/>
        <pt x="365" y="530" on="1"/>
        <pt x="358" y="489" on="0"/>
        <pt x="345" y="455" on="1"/>
        <pt x="289" y="304" on="1"/>
      </contour>
    </TTGlyph>
    <TTGlyph name="Acircumflex" xMin="-49" yMin="0" xMax="647" yMax="927">
      <contour>
        <pt x="236" y="719" on="1"/>
        <pt x="188" y="791" on="1"/>
        <pt x="338" y="927" on="1"/>
        <pt x="479" y="927" on="1"/>
        <pt x="610" y="787" on="1"/>
        <pt x="555" y="719" on="1"/>
        <pt x="408" y="813" on="1"/>
        <pt x="400" y="813" on="1"/>
      </contour>
      <contour>
        <pt x="418" y="146" on="1"/>
        <pt x="230" y="146" on="1"/>
        <pt x="176" y="0" on="1"/>
        <pt x="-49" y="0" on="1"/>
        <pt x="217" y="638" on="1"/>
        <pt x="237" y="690" on="0"/>
        <pt x="293" y="690" on="1"/>
        <pt x="489" y="690" on="1"/>
        <pt x="515" y="690" on="0"/>
        <pt x="555" y="655" on="0"/>
        <pt x="558" y="630" on="1"/>
        <pt x="647" y="0" on="1"/>
        <pt x="430" y="0" on="1"/>
      </contour>
      <contour>
        <pt x="406" y="304" on="1"/>
        <pt x="394" y="453" on="1"/>
        <pt x="391" y="479" on="0"/>
        <pt x="393" y="530" on="1"/>
        <pt x="365" y="530" on="1"/>
        <pt x="358" y="489" on="0"/>
        <pt x="345" y="455" on="1"/>
        <pt x="289" y="304" on="1"/>
      </contour>
    </TTGlyph>
    <TTGlyph name="Adieresis" xMin="-49" yMin="0" xMax="647" yMax="904">
      <contour>
        <pt x="348" y="763" on="1"/>
        <pt x="267" y="763" on="1"/>
        <pt x="231" y="763" on="0"/>
        <pt x="237" y="796" on="1"/>
        <pt x="248" y="869" on="1"/>
        <pt x="252" y="904" on="0"/>
        <pt x="287" y="904" on="1"/>
        <pt x="364" y="904" on="1"/>
        <pt x="400" y="904" on="0"/>
        <pt x="394" y="871" on="1"/>
        <pt x="383" y="795" on="1"/>
        <pt x="379" y="763" on="0"/>
      </contour>
      <contour>
        <pt x="537" y="763" on="1"/>
        <pt x="456" y="763" on="1"/>
        <pt x="420" y="763" on="0"/>
        <pt x="426" y="796" on="1"/>
        <pt x="437" y="870" on="1"/>
        <pt x="442" y="904" on="0"/>
        <pt x="473" y="904" on="1"/>
        <pt x="553" y="904" on="1"/>
        <pt x="589" y="904" on="0"/>
        <pt x="583" y="871" on="1"/>
        <pt x="572" y="796" on="1"/>
        <pt x="570" y="778" on="0"/>
        <pt x="554" y="763" on="0"/>
      </contour>
      <contour>
        <pt x="418" y="146" on="1"/>
        <pt x="230" y="146" on="1"/>
        <pt x="176" y="0" on="1"/>
        <pt x="-49" y="0" on="1"/>
        <pt x="217" y="638" on="1"/>
        <pt x="237" y="690" on="0"/>
        <pt x="293" y="690" on="1"/>
        <pt x="489" y="690" on="1"/>
        <pt x="515" y="690" on="0"/>
        <pt x="555" y="655" on="0"/>
        <pt x="558" y="630" on="1"/>
        <pt x="647" y="0" on="1"/>
        <pt x="430" y="0" on="1"/>
      </contour>
      <contour>
        <pt x="406" y="304" on="1"/>
        <pt x="394" y="453" on="1"/>
        <pt x="391" y="479" on="0"/>
        <pt x="393" y="530" on="1"/>
        <pt x="365" y="530" on="1"/>
        <pt x="358" y="489" on="0"/>
        <pt x="345" y="455" on="1"/>
        <pt x="289" y="304" on="1"/>
      </contour>
    </TTGlyph>
    <TTGlyph name="Agrave" xMin="-49" yMin="0" xMax="647" yMax="956">
      <contour>
        <pt x="442" y="720" on="1"/>
        <pt x="194" y="826" on="1"/>
        <pt x="274" y="956" on="1"/>
        <pt x="509" y="806" on="1"/>
      </contour>
      <contour>
        <pt x="418" y="146" on="1"/>
        <pt x="230" y="146" on="1"/>
        <pt x="176" y="0" on="1"/>
        <pt x="-49" y="0" on="1"/>
        <pt x="217" y="638" on="1"/>
        <pt x="237" y="690" on="0"/>
        <pt x="293" y="690" on="1"/>
        <pt x="489" y="690" on="1"/>
        <pt x="515" y="690" on="0"/>
        <pt x="555" y="655" on="0"/>
        <pt x="558" y="630" on="1"/>
        <pt x="647" y="0" on="1"/>
        <pt x="430" y="0" on="1"/>
      </contour>
      <contour>
        <pt x="406" y="304" on="1"/>
        <pt x="394" y="453" on="1"/>
        <pt x="391" y="479" on="0"/>
        <pt x="393" y="530" on="1"/>
        <pt x="365" y="530" on="1"/>
        <pt x="358" y="489" on="0"/>
        <pt x="345" y="455" on="1"/>
        <pt x="289" y="304" on="1"/>
      </contour>
    </TTGlyph>
    <TTGlyph name="Amacron" xMin="-49" yMin="0" xMax="647" yMax="895">
      <contour>
        <pt x="560" y="772" on="1"/>
        <pt x="240" y="772" on="1"/>
        <pt x="257" y="895" on="1"/>
        <pt x="577" y="895" on="1"/>
      </contour>
      <contour>
        <pt x="418" y="146" on="1"/>
        <pt x="230" y="146" on="1"/>
        <pt x="176" y="0" on="1"/>
        <pt x="-49" y="0" on="1"/>
        <pt x="217" y="638" on="1"/>
        <pt x="237" y="690" on="0"/>
        <pt x="293" y="690" on="1"/>
        <pt x="489" y="690" on="1"/>
        <pt x="515" y="690" on="0"/>
        <pt x="555" y="655" on="0"/>
        <pt x="558" y="630" on="1"/>
        <pt x="647" y="0" on="1"/>
        <pt x="430" y="0" on="1"/>
      </contour>
      <contour>
        <pt x="406" y="304" on="1"/>
        <pt x="394" y="453" on="1"/>
        <pt x="391" y="479" on="0"/>
        <pt x="393" y="530" on="1"/>
        <pt x="365" y="530" on="1"/>
        <pt x="358" y="489" on="0"/>
        <pt x="345" y="455" on="1"/>
        <pt x="289" y="304" on="1"/>
      </contour>
    </TTGlyph>
    <TTGlyph name="Aogonek" xMin="-49" yMin="-210" xMax="648" yMax="690">
      <contour>
        <pt x="647" y="0" on="1"/>
        <pt x="648" y="0" on="1"/>
        <pt x="606" y="-45" on="0"/>
        <pt x="591" y="-91" on="1"/>
        <pt x="586" y="-108" on="0"/>
        <pt x="600" y="-119" on="0"/>
        <pt x="623" y="-115" on="1"/>
        <pt x="638" y="-189" on="1"/>
        <pt x="589" y="-207" on="0"/>
        <pt x="508" y="-213" on="0"/>
        <pt x="462" y="-193" on="0"/>
        <pt x="432" y="-159" on="0"/>
        <pt x="435" y="-115" on="0"/>
        <pt x="444" y="-93" on="1"/>
        <pt x="469" y="-45" on="0"/>
        <pt x="547" y="0" on="1"/>
        <pt x="430" y="0" on="1"/>
        <pt x="418" y="146" on="1"/>
        <pt x="230" y="146" on="1"/>
        <pt x="176" y="0" on="1"/>
        <pt x="-49" y="0" on="1"/>
        <pt x="217" y="638" on="1"/>
        <pt x="237" y="690" on="0"/>
        <pt x="293" y="690" on="1"/>
        <pt x="489" y="690" on="1"/>
        <pt x="515" y="690" on="0"/>
        <pt x="555" y="655" on="0"/>
        <pt x="558" y="630" on="1"/>
      </contour>
      <contour>
        <pt x="406" y="304" on="1"/>
        <pt x="394" y="453" on="1"/>
        <pt x="391" y="479" on="0"/>
        <pt x="393" y="530" on="1"/>
        <pt x="365" y="530" on="1"/>
        <pt x="358" y="489" on="0"/>
        <pt x="345" y="455" on="1"/>
        <pt x="289" y="304" on="1"/>
      </contour>
    </TTGlyph>
    <TTGlyph name="Aring" xMin="-49" yMin="0" xMax="647" yMax="959">
      <contour>
        <pt x="407" y="717" on="1"/>
        <pt x="350" y="717" on="0"/>
        <pt x="278" y="793" on="0"/>
        <pt x="285" y="846" on="1"/>
        <pt x="291" y="894" on="0"/>
        <pt x="363" y="959" on="0"/>
        <pt x="418" y="959" on="1"/>
        <pt x="474" y="959" on="0"/>
        <pt x="548" y="883" on="0"/>
        <pt x="541" y="830" on="1"/>
        <pt x="535" y="782" on="0"/>
        <pt x="463" y="717" on="0"/>
      </contour>
      <contour>
        <pt x="368" y="841" on="1"/>
        <pt x="366" y="819" on="0"/>
        <pt x="388" y="792" on="0"/>
        <pt x="430" y="792" on="0"/>
        <pt x="457" y="819" on="0"/>
        <pt x="458" y="841" on="1"/>
        <pt x="459" y="860" on="0"/>
        <pt x="435" y="884" on="0"/>
        <pt x="415" y="884" on="1"/>
        <pt x="396" y="884" on="0"/>
        <pt x="370" y="860" on="0"/>
      </contour>
      <contour>
        <pt x="418" y="146" on="1"/>
        <pt x="230" y="146" on="1"/>
        <pt x="176" y="0" on="1"/>
        <pt x="-49" y="0" on="1"/>
        <pt x="217" y="638" on="1"/>
        <pt x="237" y="690" on="0"/>
        <pt x="293" y="690" on="1"/>
        <pt x="489" y="690" on="1"/>
        <pt x="515" y="690" on="0"/>
        <pt x="555" y="655" on="0"/>
        <pt x="558" y="630" on="1"/>
        <pt x="647" y="0" on="1"/>
        <pt x="430" y="0" on="1"/>
      </contour>
      <contour>
        <pt x="406" y="304" on="1"/>
        <pt x="394" y="453" on="1"/>
        <pt x="391" y="479" on="0"/>
        <pt x="393" y="530" on="1"/>
        <pt x="365" y="530" on="1"/>
        <pt x="358" y="489" on="0"/>
        <pt x="345" y="455" on="1"/>
        <pt x="289" y="304" on="1"/>
      </contour>
    </TTGlyph>
    <TTGlyph name="Atilde" xMin="-49" yMin="0" xMax="647" yMax="920">
      <contour>
        <pt x="295" y="747" on="1"/>
        <pt x="210" y="755" on="1"/>
        <pt x="208" y="837" on="0"/>
        <pt x="261" y="920" on="0"/>
        <pt x="308" y="920" on="1"/>
        <pt x="338" y="920" on="0"/>
        <pt x="467" y="876" on="0"/>
        <pt x="468" y="876" on="1"/>
        <pt x="492" y="870" on="0"/>
        <pt x="512" y="892" on="0"/>
        <pt x="515" y="919" on="1"/>
        <pt x="600" y="911" on="1"/>
        <pt x="604" y="828" on="0"/>
        <pt x="552" y="746" on="0"/>
        <pt x="505" y="746" on="1"/>
        <pt x="474" y="746" on="0"/>
        <pt x="348" y="789" on="0"/>
        <pt x="341" y="790" on="1"/>
        <pt x="317" y="795" on="0"/>
        <pt x="299" y="774" on="0"/>
      </contour>
      <contour>
        <pt x="418" y="146" on="1"/>
        <pt x="230" y="146" on="1"/>
        <pt x="176" y="0" on="1"/>
        <pt x="-49" y="0" on="1"/>
        <pt x="217" y="638" on="1"/>
        <pt x="237" y="690" on="0"/>
        <pt x="293" y="690" on="1"/>
        <pt x="489" y="690" on="1"/>
        <pt x="515" y="690" on="0"/>
        <pt x="555" y="655" on="0"/>
        <pt x="558" y="630" on="1"/>
        <pt x="647" y="0" on="1"/>
        <pt x="430" y="0" on="1"/>
      </contour>
      <contour>
        <pt x="406" y="304" on="1"/>
        <pt x="394" y="453" on="1"/>
        <pt x="391" y="479" on="0"/>
        <pt x="393" y="530" on="1"/>
        <pt x="365" y="530" on="1"/>
        <pt x="358" y="489" on="0"/>
        <pt x="345" y="455" on="1"/>
        <pt x="289" y="304" on="1"/>
      </contour>
    </TTGlyph>
    <TTGlyph name="B" xMin="11" yMin="-8" xMax="629" yMax="698">
      <contour>
        <pt x="11" y="0" on="1"/>
        <pt x="108" y="690" on="1"/>
        <pt x="206" y="698" on="0"/>
        <pt x="391" y="698" on="1"/>
        <pt x="533" y="698" on="0"/>
        <pt x="643" y="617" on="0"/>
        <pt x="629" y="510" on="1"/>
        <pt x="619" y="436" on="0"/>
        <pt x="557" y="367" on="0"/>
        <pt x="487" y="361" on="1"/>
        <pt x="486" y="355" on="1"/>
        <pt x="639" y="342" on="0"/>
        <pt x="614" y="164" on="1"/>
        <pt x="600" y="64" on="0"/>
        <pt x="482" y="-8" on="0"/>
        <pt x="348" y="-8" on="1"/>
        <pt x="123" y="-8" on="0"/>
      </contour>
      <contour>
        <pt x="282" y="423" on="1"/>
        <pt x="349" y="423" on="1"/>
        <pt x="387" y="423" on="0"/>
        <pt x="415" y="450" on="0"/>
        <pt x="422" y="495" on="1"/>
        <pt x="427" y="525" on="0"/>
        <pt x="410" y="548" on="0"/>
        <pt x="384" y="548" on="1"/>
        <pt x="300" y="548" on="1"/>
      </contour>
      <contour>
        <pt x="243" y="142" on="1"/>
        <pt x="306" y="142" on="1"/>
        <pt x="354" y="142" on="0"/>
        <pt x="390" y="173" on="0"/>
        <pt x="397" y="224" on="1"/>
        <pt x="403" y="266" on="0"/>
        <pt x="383" y="292" on="0"/>
        <pt x="345" y="292" on="1"/>
        <pt x="264" y="292" on="1"/>
      </contour>
    </TTGlyph>
    <TTGlyph name="C" xMin="41" yMin="-12" xMax="618" yMax="702">
      <contour>
        <pt x="545" y="179" on="1"/>
        <pt x="553" y="20" on="1"/>
        <pt x="450" y="-12" on="0"/>
        <pt x="314" y="-12" on="1"/>
        <pt x="139" y="-12" on="0"/>
        <pt x="13" y="151" on="0"/>
        <pt x="41" y="353" on="1"/>
        <pt x="56" y="459" on="0"/>
        <pt x="103" y="591" on="0"/>
        <pt x="187" y="672" on="0"/>
        <pt x="302" y="702" on="0"/>
        <pt x="391" y="702" on="1"/>
        <pt x="519" y="702" on="0"/>
        <pt x="618" y="674" on="1"/>
        <pt x="593" y="517" on="1"/>
        <pt x="447" y="519" on="0"/>
        <pt x="380" y="519" on="1"/>
        <pt x="342" y="519" on="0"/>
        <pt x="304" y="496" on="0"/>
        <pt x="278" y="419" on="0"/>
        <pt x="267" y="337" on="1"/>
        <pt x="252" y="235" on="0"/>
        <pt x="270" y="171" on="0"/>
        <pt x="324" y="171" on="1"/>
        <pt x="460" y="171" on="0"/>
      </contour>
    </TTGlyph>
    <TTGlyph name="Cacute" xMin="41" yMin="-12" xMax="626" yMax="963">
      <contour>
        <pt x="626" y="817" on="1"/>
        <pt x="360" y="721" on="1"/>
        <pt x="313" y="807" on="1"/>
        <pt x="560" y="963" on="1"/>
      </contour>
      <contour>
        <pt x="545" y="179" on="1"/>
        <pt x="553" y="20" on="1"/>
        <pt x="450" y="-12" on="0"/>
        <pt x="314" y="-12" on="1"/>
        <pt x="139" y="-12" on="0"/>
        <pt x="13" y="151" on="0"/>
        <pt x="41" y="353" on="1"/>
        <pt x="56" y="459" on="0"/>
        <pt x="103" y="591" on="0"/>
        <pt x="187" y="672" on="0"/>
        <pt x="302" y="702" on="0"/>
        <pt x="391" y="702" on="1"/>
        <pt x="519" y="702" on="0"/>
        <pt x="618" y="674" on="1"/>
        <pt x="593" y="517" on="1"/>
        <pt x="447" y="519" on="0"/>
        <pt x="380" y="519" on="1"/>
        <pt x="342" y="519" on="0"/>
        <pt x="304" y="496" on="0"/>
        <pt x="278" y="419" on="0"/>
        <pt x="267" y="337" on="1"/>
        <pt x="252" y="235" on="0"/>
        <pt x="270" y="171" on="0"/>
        <pt x="324" y="171" on="1"/>
        <pt x="460" y="171" on="0"/>
      </contour>
    </TTGlyph>
    <TTGlyph name="Ccaron" xMin="41" yMin="-12" xMax="626" yMax="948">
      <contour>
        <pt x="626" y="869" on="1"/>
        <pt x="447" y="738" on="1"/>
        <pt x="365" y="738" on="1"/>
        <pt x="202" y="882" on="1"/>
        <pt x="260" y="948" on="1"/>
        <pt x="407" y="867" on="1"/>
        <pt x="415" y="867" on="1"/>
        <pt x="586" y="944" on="1"/>
      </contour>
      <contour>
        <pt x="545" y="179" on="1"/>
        <pt x="553" y="20" on="1"/>
        <pt x="450" y="-12" on="0"/>
        <pt x="314" y="-12" on="1"/>
        <pt x="139" y="-12" on="0"/>
        <pt x="13" y="151" on="0"/>
        <pt x="41" y="353" on="1"/>
        <pt x="56" y="459" on="0"/>
        <pt x="103" y="591" on="0"/>
        <pt x="187" y="672" on="0"/>
        <pt x="302" y="702" on="0"/>
        <pt x="391" y="702" on="1"/>
        <pt x="519" y="702" on="0"/>
        <pt x="618" y="674" on="1"/>
        <pt x="593" y="517" on="1"/>
        <pt x="447" y="519" on="0"/>
        <pt x="380" y="519" on="1"/>
        <pt x="342" y="519" on="0"/>
        <pt x="304" y="496" on="0"/>
        <pt x="278" y="419" on="0"/>
        <pt x="267" y="337" on="1"/>
        <pt x="252" y="235" on="0"/>
        <pt x="270" y="171" on="0"/>
        <pt x="324" y="171" on="1"/>
        <pt x="460" y="171" on="0"/>
      </contour>
    </TTGlyph>
    <TTGlyph name="Ccedilla" xMin="41" yMin="-276" xMax="618" yMax="702">
      <contour>
        <pt x="545" y="179" on="1"/>
        <pt x="553" y="20" on="1"/>
        <pt x="450" y="-12" on="0"/>
        <pt x="314" y="-12" on="1"/>
        <pt x="139" y="-12" on="0"/>
        <pt x="13" y="151" on="0"/>
        <pt x="41" y="353" on="1"/>
        <pt x="56" y="459" on="0"/>
        <pt x="103" y="591" on="0"/>
        <pt x="187" y="672" on="0"/>
        <pt x="302" y="702" on="0"/>
        <pt x="391" y="702" on="1"/>
        <pt x="519" y="702" on="0"/>
        <pt x="618" y="674" on="1"/>
        <pt x="593" y="517" on="1"/>
        <pt x="447" y="519" on="0"/>
        <pt x="380" y="519" on="1"/>
        <pt x="342" y="519" on="0"/>
        <pt x="304" y="496" on="0"/>
        <pt x="278" y="419" on="0"/>
        <pt x="267" y="337" on="1"/>
        <pt x="252" y="235" on="0"/>
        <pt x="270" y="171" on="0"/>
        <pt x="324" y="171" on="1"/>
        <pt x="460" y="171" on="0"/>
      </contour>
      <contour>
        <pt x="182" y="-137" on="1"/>
        <pt x="200" y="-65" on="1"/>
        <pt x="281" y="-50" on="0"/>
        <pt x="382" y="-80" on="0"/>
        <pt x="372" y="-138" on="1"/>
        <pt x="358" y="-218" on="0"/>
        <pt x="220" y="-289" on="0"/>
        <pt x="124" y="-276" on="1"/>
        <pt x="145" y="-199" on="1"/>
        <pt x="234" y="-199" on="0"/>
        <pt x="244" y="-153" on="1"/>
        <pt x="244" y="-150" on="0"/>
        <pt x="245" y="-145" on="0"/>
        <pt x="240" y="-141" on="0"/>
        <pt x="233" y="-139" on="0"/>
        <pt x="218" y="-138" on="0"/>
        <pt x="197" y="-137" on="0"/>
      </contour>
    </TTGlyph>
    <TTGlyph name="Cdotaccent" xMin="41" yMin="-12" xMax="618" yMax="914">
      <contour>
        <pt x="393" y="914" on="1"/>
        <pt x="452" y="914" on="1"/>
        <pt x="480" y="914" on="0"/>
        <pt x="512" y="884" on="0"/>
        <pt x="509" y="855" on="1"/>
        <pt x="504" y="806" on="1"/>
        <pt x="498" y="753" on="0"/>
        <pt x="444" y="753" on="1"/>
        <pt x="381" y="753" on="1"/>
        <pt x="316" y="753" on="0"/>
        <pt x="325" y="814" on="1"/>
        <pt x="331" y="861" on="1"/>
        <pt x="339" y="914" on="0"/>
      </contour>
      <contour>
        <pt x="545" y="179" on="1"/>
        <pt x="553" y="20" on="1"/>
        <pt x="450" y="-12" on="0"/>
        <pt x="314" y="-12" on="1"/>
        <pt x="139" y="-12" on="0"/>
        <pt x="13" y="151" on="0"/>
        <pt x="41" y="353" on="1"/>
        <pt x="56" y="459" on="0"/>
        <pt x="103" y="591" on="0"/>
        <pt x="187" y="672" on="0"/>
        <pt x="302" y="702" on="0"/>
        <pt x="391" y="702" on="1"/>
        <pt x="519" y="702" on="0"/>
        <pt x="618" y="674" on="1"/>
        <pt x="593" y="517" on="1"/>
        <pt x="447" y="519" on="0"/>
        <pt x="380" y="519" on="1"/>
        <pt x="342" y="519" on="0"/>
        <pt x="304" y="496" on="0"/>
        <pt x="278" y="419" on="0"/>
        <pt x="267" y="337" on="1"/>
        <pt x="252" y="235" on="0"/>
        <pt x="270" y="171" on="0"/>
        <pt x="324" y="171" on="1"/>
        <pt x="460" y="171" on="0"/>
      </contour>
    </TTGlyph>
    <TTGlyph name="D" xMin="11" yMin="-10" xMax="674" yMax="700">
      <contour>
        <pt x="11" y="0" on="1"/>
        <pt x="108" y="690" on="1"/>
        <pt x="236" y="700" on="0"/>
        <pt x="389" y="700" on="1"/>
        <pt x="506" y="700" on="0"/>
        <pt x="639" y="638" on="0"/>
        <pt x="694" y="477" on="0"/>
        <pt x="674" y="337" on="1"/>
        <pt x="659" y="231" on="0"/>
        <pt x="612" y="101" on="0"/>
        <pt x="528" y="20" on="0"/>
        <pt x="412" y="-10" on="0"/>
        <pt x="321" y="-10" on="1"/>
        <pt x="164" y="-10" on="0"/>
      </contour>
      <contour>
        <pt x="249" y="148" on="1"/>
        <pt x="318" y="147" on="1"/>
        <pt x="373" y="147" on="0"/>
        <pt x="430" y="230" on="0"/>
        <pt x="446" y="353" on="1"/>
        <pt x="462" y="469" on="0"/>
        <pt x="439" y="543" on="0"/>
        <pt x="382" y="543" on="1"/>
        <pt x="304" y="543" on="1"/>
      </contour>
    </TTGlyph>
    <TTGlyph name="Dcaron" xMin="11" yMin="-10" xMax="674" yMax="947">
      <contour>
        <pt x="359" y="737" on="1"/>
        <pt x="196" y="881" on="1"/>
        <pt x="254" y="947" on="1"/>
        <pt x="401" y="866" on="1"/>
        <pt x="409" y="866" on="1"/>
        <pt x="580" y="943" on="1"/>
        <pt x="620" y="868" on="1"/>
        <pt x="441" y="737" on="1"/>
      </contour>
      <contour>
        <pt x="11" y="0" on="1"/>
        <pt x="108" y="690" on="1"/>
        <pt x="236" y="700" on="0"/>
        <pt x="389" y="700" on="1"/>
        <pt x="506" y="700" on="0"/>
        <pt x="639" y="638" on="0"/>
        <pt x="694" y="477" on="0"/>
        <pt x="674" y="337" on="1"/>
        <pt x="659" y="231" on="0"/>
        <pt x="612" y="101" on="0"/>
        <pt x="528" y="20" on="0"/>
        <pt x="412" y="-10" on="0"/>
        <pt x="321" y="-10" on="1"/>
        <pt x="164" y="-10" on="0"/>
      </contour>
      <contour>
        <pt x="249" y="148" on="1"/>
        <pt x="318" y="147" on="1"/>
        <pt x="373" y="147" on="0"/>
        <pt x="430" y="230" on="0"/>
        <pt x="446" y="353" on="1"/>
        <pt x="462" y="469" on="0"/>
        <pt x="439" y="543" on="0"/>
        <pt x="382" y="543" on="1"/>
        <pt x="304" y="543" on="1"/>
      </contour>
    </TTGlyph>
    <TTGlyph name="Dcroat" xMin="8" yMin="-10" xMax="674" yMax="700">
      <contour>
        <pt x="69" y="413" on="1"/>
        <pt x="108" y="690" on="1"/>
        <pt x="236" y="700" on="0"/>
        <pt x="389" y="700" on="1"/>
        <pt x="506" y="700" on="0"/>
        <pt x="639" y="638" on="0"/>
        <pt x="694" y="477" on="0"/>
        <pt x="674" y="337" on="1"/>
        <pt x="659" y="231" on="0"/>
        <pt x="612" y="101" on="0"/>
        <pt x="528" y="20" on="0"/>
        <pt x="412" y="-10" on="0"/>
        <pt x="321" y="-10" on="1"/>
        <pt x="164" y="-10" on="0"/>
        <pt x="11" y="0" on="1"/>
        <pt x="55" y="313" on="1"/>
        <pt x="8" y="313" on="1"/>
        <pt x="22" y="413" on="1"/>
      </contour>
      <contour>
        <pt x="249" y="148" on="1"/>
        <pt x="318" y="147" on="1"/>
        <pt x="373" y="147" on="0"/>
        <pt x="430" y="230" on="0"/>
        <pt x="446" y="353" on="1"/>
        <pt x="462" y="469" on="0"/>
        <pt x="439" y="543" on="0"/>
        <pt x="382" y="543" on="1"/>
        <pt x="304" y="543" on="1"/>
        <pt x="286" y="413" on="1"/>
        <pt x="373" y="413" on="1"/>
        <pt x="359" y="313" on="1"/>
        <pt x="272" y="313" on="1"/>
      </contour>
    </TTGlyph>
    <TTGlyph name="Delta" xMin="-19" yMin="0" xMax="658" yMax="690">
      <contour>
        <pt x="658" y="68" on="1"/>
        <pt x="651" y="0" on="1"/>
        <pt x="-19" y="0" on="1"/>
        <pt x="-12" y="68" on="1"/>
        <pt x="304" y="690" on="1"/>
        <pt x="518" y="690" on="1"/>
      </contour>
      <contour>
        <pt x="434" y="152" on="1"/>
        <pt x="394" y="387" on="1"/>
        <pt x="388" y="434" on="0"/>
        <pt x="388" y="485" on="1"/>
        <pt x="368" y="412" on="0"/>
        <pt x="357" y="388" on="1"/>
        <pt x="243" y="152" on="1"/>
      </contour>
    </TTGlyph>
    <TTGlyph name="E" xMin="32" yMin="-4" xMax="607" yMax="694">
      <contour>
        <pt x="583" y="528" on="1"/>
        <pt x="343" y="528" on="1"/>
        <pt x="317" y="528" on="0"/>
        <pt x="295" y="510" on="0"/>
        <pt x="292" y="488" on="1"/>
        <pt x="283" y="425" on="1"/>
        <pt x="532" y="425" on="1"/>
        <pt x="514" y="281" on="1"/>
        <pt x="263" y="281" on="1"/>
        <pt x="252" y="201" on="1"/>
        <pt x="246" y="162" on="0"/>
        <pt x="289" y="162" on="1"/>
        <pt x="529" y="162" on="1"/>
        <pt x="525" y="8" on="1"/>
        <pt x="436" y="-4" on="0"/>
        <pt x="187" y="-4" on="1"/>
        <pt x="103" y="-4" on="0"/>
        <pt x="21" y="100" on="0"/>
        <pt x="32" y="184" on="1"/>
        <pt x="82" y="541" on="1"/>
        <pt x="92" y="612" on="0"/>
        <pt x="184" y="694" on="0"/>
        <pt x="259" y="694" on="1"/>
        <pt x="507" y="694" on="0"/>
        <pt x="607" y="680" on="1"/>
      </contour>
    </TTGlyph>
    <TTGlyph name="Eacute" xMin="32" yMin="-4" xMax="607" yMax="962">
      <contour>
        <pt x="336" y="720" on="1"/>
        <pt x="289" y="806" on="1"/>
        <pt x="536" y="962" on="1"/>
        <pt x="602" y="816" on="1"/>
      </contour>
      <contour>
        <pt x="583" y="528" on="1"/>
        <pt x="343" y="528" on="1"/>
        <pt x="317" y="528" on="0"/>
        <pt x="295" y="510" on="0"/>
        <pt x="292" y="488" on="1"/>
        <pt x="283" y="425" on="1"/>
        <pt x="532" y="425" on="1"/>
        <pt x="514" y="281" on="1"/>
        <pt x="263" y="281" on="1"/>
        <pt x="252" y="201" on="1"/>
        <pt x="246" y="162" on="0"/>
        <pt x="289" y="162" on="1"/>
        <pt x="529" y="162" on="1"/>
        <pt x="525" y="8" on="1"/>
        <pt x="436" y="-4" on="0"/>
        <pt x="187" y="-4" on="1"/>
        <pt x="103" y="-4" on="0"/>
        <pt x="21" y="100" on="0"/>
        <pt x="32" y="184" on="1"/>
        <pt x="82" y="541" on="1"/>
        <pt x="92" y="612" on="0"/>
        <pt x="184" y="694" on="0"/>
        <pt x="259" y="694" on="1"/>
        <pt x="507" y="694" on="0"/>
        <pt x="607" y="680" on="1"/>
      </contour>
    </TTGlyph>
    <TTGlyph name="Ecaron" xMin="32" yMin="-4" xMax="607" yMax="947">
      <contour>
        <pt x="341" y="737" on="1"/>
        <pt x="178" y="881" on="1"/>
        <pt x="236" y="947" on="1"/>
        <pt x="383" y="866" on="1"/>
        <pt x="391" y="866" on="1"/>
        <pt x="562" y="943" on="1"/>
        <pt x="602" y="868" on="1"/>
        <pt x="423" y="737" on="1"/>
      </contour>
      <contour>
        <pt x="583" y="528" on="1"/>
        <pt x="343" y="528" on="1"/>
        <pt x="317" y="528" on="0"/>
        <pt x="295" y="510" on="0"/>
        <pt x="292" y="488" on="1"/>
        <pt x="283" y="425" on="1"/>
        <pt x="532" y="425" on="1"/>
        <pt x="514" y="281" on="1"/>
        <pt x="263" y="281" on="1"/>
        <pt x="252" y="201" on="1"/>
        <pt x="246" y="162" on="0"/>
        <pt x="289" y="162" on="1"/>
        <pt x="529" y="162" on="1"/>
        <pt x="525" y="8" on="1"/>
        <pt x="436" y="-4" on="0"/>
        <pt x="187" y="-4" on="1"/>
        <pt x="103" y="-4" on="0"/>
        <pt x="21" y="100" on="0"/>
        <pt x="32" y="184" on="1"/>
        <pt x="82" y="541" on="1"/>
        <pt x="92" y="612" on="0"/>
        <pt x="184" y="694" on="0"/>
        <pt x="259" y="694" on="1"/>
        <pt x="507" y="694" on="0"/>
        <pt x="607" y="680" on="1"/>
      </contour>
    </TTGlyph>
    <TTGlyph name="Ecircumflex" xMin="32" yMin="-4" xMax="607" yMax="927">
      <contour>
        <pt x="218" y="719" on="1"/>
        <pt x="170" y="791" on="1"/>
        <pt x="320" y="927" on="1"/>
        <pt x="461" y="927" on="1"/>
        <pt x="592" y="787" on="1"/>
        <pt x="537" y="719" on="1"/>
        <pt x="390" y="813" on="1"/>
        <pt x="382" y="813" on="1"/>
      </contour>
      <contour>
        <pt x="583" y="528" on="1"/>
        <pt x="343" y="528" on="1"/>
        <pt x="317" y="528" on="0"/>
        <pt x="295" y="510" on="0"/>
        <pt x="292" y="488" on="1"/>
        <pt x="283" y="425" on="1"/>
        <pt x="532" y="425" on="1"/>
        <pt x="514" y="281" on="1"/>
        <pt x="263" y="281" on="1"/>
        <pt x="252" y="201" on="1"/>
        <pt x="246" y="162" on="0"/>
        <pt x="289" y="162" on="1"/>
        <pt x="529" y="162" on="1"/>
        <pt x="525" y="8" on="1"/>
        <pt x="436" y="-4" on="0"/>
        <pt x="187" y="-4" on="1"/>
        <pt x="103" y="-4" on="0"/>
        <pt x="21" y="100" on="0"/>
        <pt x="32" y="184" on="1"/>
        <pt x="82" y="541" on="1"/>
        <pt x="92" y="612" on="0"/>
        <pt x="184" y="694" on="0"/>
        <pt x="259" y="694" on="1"/>
        <pt x="507" y="694" on="0"/>
        <pt x="607" y="680" on="1"/>
      </contour>
    </TTGlyph>
    <TTGlyph name="Edieresis" xMin="32" yMin="-4" xMax="607" yMax="904">
      <contour>
        <pt x="330" y="763" on="1"/>
        <pt x="249" y="763" on="1"/>
        <pt x="213" y="763" on="0"/>
        <pt x="219" y="796" on="1"/>
        <pt x="230" y="869" on="1"/>
        <pt x="234" y="904" on="0"/>
        <pt x="269" y="904" on="1"/>
        <pt x="346" y="904" on="1"/>
        <pt x="382" y="904" on="0"/>
        <pt x="376" y="871" on="1"/>
        <pt x="365" y="795" on="1"/>
        <pt x="361" y="763" on="0"/>
      </contour>
      <contour>
        <pt x="519" y="763" on="1"/>
        <pt x="438" y="763" on="1"/>
        <pt x="402" y="763" on="0"/>
        <pt x="408" y="796" on="1"/>
        <pt x="419" y="870" on="1"/>
        <pt x="424" y="904" on="0"/>
        <pt x="455" y="904" on="1"/>
        <pt x="535" y="904" on="1"/>
        <pt x="571" y="904" on="0"/>
        <pt x="565" y="871" on="1"/>
        <pt x="554" y="796" on="1"/>
        <pt x="552" y="778" on="0"/>
        <pt x="536" y="763" on="0"/>
      </contour>
      <contour>
        <pt x="583" y="528" on="1"/>
        <pt x="343" y="528" on="1"/>
        <pt x="317" y="528" on="0"/>
        <pt x="295" y="510" on="0"/>
        <pt x="292" y="488" on="1"/>
        <pt x="283" y="425" on="1"/>
        <pt x="532" y="425" on="1"/>
        <pt x="514" y="281" on="1"/>
        <pt x="263" y="281" on="1"/>
        <pt x="252" y="201" on="1"/>
        <pt x="246" y="162" on="0"/>
        <pt x="289" y="162" on="1"/>
        <pt x="529" y="162" on="1"/>
        <pt x="525" y="8" on="1"/>
        <pt x="436" y="-4" on="0"/>
        <pt x="187" y="-4" on="1"/>
        <pt x="103" y="-4" on="0"/>
        <pt x="21" y="100" on="0"/>
        <pt x="32" y="184" on="1"/>
        <pt x="82" y="541" on="1"/>
        <pt x="92" y="612" on="0"/>
        <pt x="184" y="694" on="0"/>
        <pt x="259" y="694" on="1"/>
        <pt x="507" y="694" on="0"/>
        <pt x="607" y="680" on="1"/>
      </contour>
    </TTGlyph>
    <TTGlyph name="Edotaccent" xMin="32" yMin="-4" xMax="607" yMax="913">
      <contour>
        <pt x="420" y="752" on="1"/>
        <pt x="357" y="752" on="1"/>
        <pt x="292" y="752" on="0"/>
        <pt x="301" y="813" on="1"/>
        <pt x="307" y="860" on="1"/>
        <pt x="315" y="913" on="0"/>
        <pt x="369" y="913" on="1"/>
        <pt x="428" y="913" on="1"/>
        <pt x="456" y="913" on="0"/>
        <pt x="488" y="883" on="0"/>
        <pt x="485" y="854" on="1"/>
        <pt x="480" y="805" on="1"/>
        <pt x="474" y="752" on="0"/>
      </contour>
      <contour>
        <pt x="583" y="528" on="1"/>
        <pt x="343" y="528" on="1"/>
        <pt x="317" y="528" on="0"/>
        <pt x="295" y="510" on="0"/>
        <pt x="292" y="488" on="1"/>
        <pt x="283" y="425" on="1"/>
        <pt x="532" y="425" on="1"/>
        <pt x="514" y="281" on="1"/>
        <pt x="263" y="281" on="1"/>
        <pt x="252" y="201" on="1"/>
        <pt x="246" y="162" on="0"/>
        <pt x="289" y="162" on="1"/>
        <pt x="529" y="162" on="1"/>
        <pt x="525" y="8" on="1"/>
        <pt x="436" y="-4" on="0"/>
        <pt x="187" y="-4" on="1"/>
        <pt x="103" y="-4" on="0"/>
        <pt x="21" y="100" on="0"/>
        <pt x="32" y="184" on="1"/>
        <pt x="82" y="541" on="1"/>
        <pt x="92" y="612" on="0"/>
        <pt x="184" y="694" on="0"/>
        <pt x="259" y="694" on="1"/>
        <pt x="507" y="694" on="0"/>
        <pt x="607" y="680" on="1"/>
      </contour>
    </TTGlyph>
    <TTGlyph name="Egrave" xMin="32" yMin="-4" xMax="607" yMax="956">
      <contour>
        <pt x="424" y="720" on="1"/>
        <pt x="176" y="826" on="1"/>
        <pt x="256" y="956" on="1"/>
        <pt x="491" y="806" on="1"/>
      </contour>
      <contour>
        <pt x="583" y="528" on="1"/>
        <pt x="343" y="528" on="1"/>
        <pt x="317" y="528" on="0"/>
        <pt x="295" y="510" on="0"/>
        <pt x="292" y="488" on="1"/>
        <pt x="283" y="425" on="1"/>
        <pt x="532" y="425" on="1"/>
        <pt x="514" y="281" on="1"/>
        <pt x="263" y="281" on="1"/>
        <pt x="252" y="201" on="1"/>
        <pt x="246" y="162" on="0"/>
        <pt x="289" y="162" on="1"/>
        <pt x="529" y="162" on="1"/>
        <pt x="525" y="8" on="1"/>
        <pt x="436" y="-4" on="0"/>
        <pt x="187" y="-4" on="1"/>
        <pt x="103" y="-4" on="0"/>
        <pt x="21" y="100" on="0"/>
        <pt x="32" y="184" on="1"/>
        <pt x="82" y="541" on="1"/>
        <pt x="92" y="612" on="0"/>
        <pt x="184" y="694" on="0"/>
        <pt x="259" y="694" on="1"/>
        <pt x="507" y="694" on="0"/>
        <pt x="607" y="680" on="1"/>
      </contour>
    </TTGlyph>
    <TTGlyph name="Emacron" xMin="32" yMin="-4" xMax="607" yMax="895">
      <contour>
        <pt x="542" y="772" on="1"/>
        <pt x="222" y="772" on="1"/>
        <pt x="239" y="895" on="1"/>
        <pt x="559" y="895" on="1"/>
      </contour>
      <contour>
        <pt x="583" y="528" on="1"/>
        <pt x="343" y="528" on="1"/>
        <pt x="317" y="528" on="0"/>
        <pt x="295" y="510" on="0"/>
        <pt x="292" y="488" on="1"/>
        <pt x="283" y="425" on="1"/>
        <pt x="532" y="425" on="1"/>
        <pt x="514" y="281" on="1"/>
        <pt x="263" y="281" on="1"/>
        <pt x="252" y="201" on="1"/>
        <pt x="246" y="162" on="0"/>
        <pt x="289" y="162" on="1"/>
        <pt x="529" y="162" on="1"/>
        <pt x="525" y="8" on="1"/>
        <pt x="436" y="-4" on="0"/>
        <pt x="187" y="-4" on="1"/>
        <pt x="103" y="-4" on="0"/>
        <pt x="21" y="100" on="0"/>
        <pt x="32" y="184" on="1"/>
        <pt x="82" y="541" on="1"/>
        <pt x="92" y="612" on="0"/>
        <pt x="184" y="694" on="0"/>
        <pt x="259" y="694" on="1"/>
        <pt x="507" y="694" on="0"/>
        <pt x="607" y="680" on="1"/>
      </contour>
    </TTGlyph>
    <TTGlyph name="Eng" xMin="11" yMin="-204" xMax="739" yMax="690">
      <contour>
        <pt x="739" y="690" on="1"/>
        <pt x="636" y="-37" on="1"/>
        <pt x="625" y="-117" on="0"/>
        <pt x="542" y="-204" on="0"/>
        <pt x="481" y="-204" on="1"/>
        <pt x="394" y="-204" on="0"/>
        <pt x="333" y="-176" on="1"/>
        <pt x="370" y="-42" on="1"/>
        <pt x="400" y="-42" on="1"/>
        <pt x="444" y="-42" on="0"/>
        <pt x="451" y="-11" on="1"/>
        <pt x="456" y="13" on="1"/>
        <pt x="453" y="13" on="1"/>
        <pt x="449" y="13" on="0"/>
        <pt x="442" y="20" on="0"/>
        <pt x="435" y="33" on="0"/>
        <pt x="429" y="46" on="0"/>
        <pt x="422" y="63" on="0"/>
        <pt x="420" y="67" on="1"/>
        <pt x="301" y="303" on="1"/>
        <pt x="284" y="341" on="0"/>
        <pt x="268" y="418" on="1"/>
        <pt x="262" y="418" on="1"/>
        <pt x="262" y="349" on="0"/>
        <pt x="254" y="293" on="1"/>
        <pt x="211" y="0" on="1"/>
        <pt x="11" y="0" on="1"/>
        <pt x="98" y="619" on="1"/>
        <pt x="103" y="656" on="0"/>
        <pt x="141" y="690" on="0"/>
        <pt x="177" y="690" on="1"/>
        <pt x="259" y="690" on="1"/>
        <pt x="290" y="690" on="0"/>
        <pt x="321" y="658" on="0"/>
        <pt x="334" y="623" on="1"/>
        <pt x="444" y="397" on="1"/>
        <pt x="473" y="331" on="0"/>
        <pt x="484" y="279" on="1"/>
        <pt x="490" y="279" on="1"/>
        <pt x="488" y="335" on="0"/>
        <pt x="498" y="408" on="1"/>
        <pt x="539" y="690" on="1"/>
      </contour>
    </TTGlyph>
    <TTGlyph name="Eogonek" xMin="32" yMin="-202" xMax="607" yMax="694">
      <contour>
        <pt x="583" y="528" on="1"/>
        <pt x="343" y="528" on="1"/>
        <pt x="317" y="528" on="0"/>
        <pt x="295" y="510" on="0"/>
        <pt x="292" y="488" on="1"/>
        <pt x="283" y="425" on="1"/>
        <pt x="532" y="425" on="1"/>
        <pt x="514" y="281" on="1"/>
        <pt x="263" y="281" on="1"/>
        <pt x="252" y="201" on="1"/>
        <pt x="246" y="162" on="0"/>
        <pt x="289" y="162" on="1"/>
        <pt x="529" y="162" on="1"/>
        <pt x="525" y="8" on="1"/>
        <pt x="483" y="-37" on="0"/>
        <pt x="468" y="-83" on="1"/>
        <pt x="463" y="-100" on="0"/>
        <pt x="477" y="-111" on="0"/>
        <pt x="500" y="-107" on="1"/>
        <pt x="515" y="-181" on="1"/>
        <pt x="466" y="-199" on="0"/>
        <pt x="385" y="-205" on="0"/>
        <pt x="339" y="-185" on="0"/>
        <pt x="309" y="-151" on="0"/>
        <pt x="312" y="-107" on="0"/>
        <pt x="321" y="-85" on="1"/>
        <pt x="342" y="-43" on="0"/>
        <pt x="408" y="-1" on="1"/>
        <pt x="335" y="-4" on="0"/>
        <pt x="187" y="-4" on="1"/>
        <pt x="103" y="-4" on="0"/>
        <pt x="21" y="100" on="0"/>
        <pt x="32" y="184" on="1"/>
        <pt x="82" y="541" on="1"/>
        <pt x="92" y="612" on="0"/>
        <pt x="184" y="694" on="0"/>
        <pt x="259" y="694" on="1"/>
        <pt x="507" y="694" on="0"/>
        <pt x="607" y="680" on="1"/>
      </contour>
    </TTGlyph>
    <TTGlyph name="Eth" xMin="8" yMin="-10" xMax="674" yMax="700">
      <contour>
        <pt x="69" y="413" on="1"/>
        <pt x="108" y="690" on="1"/>
        <pt x="236" y="700" on="0"/>
        <pt x="389" y="700" on="1"/>
        <pt x="506" y="700" on="0"/>
        <pt x="639" y="638" on="0"/>
        <pt x="694" y="477" on="0"/>
        <pt x="674" y="337" on="1"/>
        <pt x="659" y="231" on="0"/>
        <pt x="612" y="101" on="0"/>
        <pt x="528" y="20" on="0"/>
        <pt x="412" y="-10" on="0"/>
        <pt x="321" y="-10" on="1"/>
        <pt x="164" y="-10" on="0"/>
        <pt x="11" y="0" on="1"/>
        <pt x="55" y="313" on="1"/>
        <pt x="8" y="313" on="1"/>
        <pt x="22" y="413" on="1"/>
      </contour>
      <contour>
        <pt x="249" y="148" on="1"/>
        <pt x="318" y="147" on="1"/>
        <pt x="373" y="147" on="0"/>
        <pt x="430" y="230" on="0"/>
        <pt x="446" y="353" on="1"/>
        <pt x="462" y="469" on="0"/>
        <pt x="439" y="543" on="0"/>
        <pt x="382" y="543" on="1"/>
        <pt x="304" y="543" on="1"/>
        <pt x="286" y="413" on="1"/>
        <pt x="373" y="413" on="1"/>
        <pt x="359" y="313" on="1"/>
        <pt x="272" y="313" on="1"/>
      </contour>
    </TTGlyph>
    <TTGlyph name="Euro" xMin="18" yMin="-12" xMax="643" yMax="702">
      <contour>
        <pt x="55" y="471" on="1"/>
        <pt x="117" y="471" on="1"/>
        <pt x="152" y="592" on="0"/>
        <pt x="310" y="702" on="0"/>
        <pt x="458" y="702" on="1"/>
        <pt x="563" y="702" on="0"/>
        <pt x="643" y="674" on="1"/>
        <pt x="618" y="527" on="1"/>
        <pt x="596" y="529" on="0"/>
        <pt x="483" y="531" on="0"/>
        <pt x="441" y="527" on="1"/>
        <pt x="405" y="522" on="0"/>
        <pt x="363" y="498" on="0"/>
        <pt x="350" y="471" on="1"/>
        <pt x="545" y="471" on="1"/>
        <pt x="519" y="361" on="1"/>
        <pt x="39" y="361" on="1"/>
      </contour>
      <contour>
        <pt x="483" y="221" on="1"/>
        <pt x="313" y="221" on="1"/>
        <pt x="322" y="168" on="0"/>
        <pt x="373" y="159" on="1"/>
        <pt x="411" y="154" on="0"/>
        <pt x="524" y="161" on="0"/>
        <pt x="573" y="170" on="1"/>
        <pt x="582" y="19" on="1"/>
        <pt x="497" y="-12" on="0"/>
        <pt x="381" y="-12" on="1"/>
        <pt x="240" y="-12" on="0"/>
        <pt x="96" y="102" on="0"/>
        <pt x="87" y="221" on="1"/>
        <pt x="18" y="221" on="1"/>
        <pt x="33" y="331" on="1"/>
        <pt x="508" y="331" on="1"/>
      </contour>
    </TTGlyph>
    <TTGlyph name="F" xMin="9" yMin="0" xMax="603" yMax="694">
      <contour>
        <pt x="579" y="528" on="1"/>
        <pt x="349" y="528" on="1"/>
        <pt x="322" y="528" on="0"/>
        <pt x="298" y="510" on="0"/>
        <pt x="295" y="488" on="1"/>
        <pt x="284" y="411" on="1"/>
        <pt x="525" y="411" on="1"/>
        <pt x="507" y="267" on="1"/>
        <pt x="264" y="267" on="1"/>
        <pt x="227" y="0" on="1"/>
        <pt x="9" y="0" on="1"/>
        <pt x="85" y="541" on="1"/>
        <pt x="95" y="612" on="0"/>
        <pt x="190" y="694" on="0"/>
        <pt x="261" y="694" on="1"/>
        <pt x="504" y="694" on="0"/>
        <pt x="603" y="679" on="1"/>
      </contour>
    </TTGlyph>
    <TTGlyph name="G" xMin="42" yMin="-14" xMax="651" yMax="704">
      <contour>
        <pt x="441" y="397" on="1"/>
        <pt x="648" y="397" on="1"/>
        <pt x="592" y="0" on="1"/>
        <pt x="433" y="0" on="1"/>
        <pt x="425" y="80" on="1"/>
        <pt x="333" y="-14" on="0"/>
        <pt x="223" y="-14" on="1"/>
        <pt x="-10" y="-14" on="0"/>
        <pt x="42" y="353" on="1"/>
        <pt x="57" y="460" on="0"/>
        <pt x="111" y="596" on="0"/>
        <pt x="206" y="675" on="0"/>
        <pt x="328" y="704" on="0"/>
        <pt x="420" y="704" on="1"/>
        <pt x="554" y="704" on="0"/>
        <pt x="651" y="674" on="1"/>
        <pt x="627" y="519" on="1"/>
        <pt x="477" y="521" on="0"/>
        <pt x="405" y="521" on="1"/>
        <pt x="340" y="521" on="0"/>
        <pt x="285" y="445" on="0"/>
        <pt x="268" y="337" on="1"/>
        <pt x="252" y="235" on="0"/>
        <pt x="274" y="171" on="0"/>
        <pt x="324" y="171" on="1"/>
        <pt x="371" y="171" on="0"/>
        <pt x="414" y="202" on="1"/>
      </contour>
    </TTGlyph>
    <TTGlyph name="Gbreve" xMin="42" yMin="-14" xMax="651" yMax="920">
      <contour>
        <pt x="520" y="920" on="1"/>
        <pt x="614" y="905" on="1"/>
        <pt x="616" y="835" on="0"/>
        <pt x="510" y="737" on="0"/>
        <pt x="420" y="737" on="1"/>
        <pt x="329" y="737" on="0"/>
        <pt x="236" y="844" on="0"/>
        <pt x="258" y="913" on="1"/>
        <pt x="356" y="918" on="1"/>
        <pt x="351" y="887" on="0"/>
        <pt x="385" y="863" on="0"/>
        <pt x="429" y="863" on="1"/>
        <pt x="514" y="863" on="0"/>
      </contour>
      <contour>
        <pt x="441" y="397" on="1"/>
        <pt x="648" y="397" on="1"/>
        <pt x="592" y="0" on="1"/>
        <pt x="433" y="0" on="1"/>
        <pt x="425" y="80" on="1"/>
        <pt x="333" y="-14" on="0"/>
        <pt x="223" y="-14" on="1"/>
        <pt x="-10" y="-14" on="0"/>
        <pt x="42" y="353" on="1"/>
        <pt x="57" y="460" on="0"/>
        <pt x="111" y="596" on="0"/>
        <pt x="206" y="675" on="0"/>
        <pt x="328" y="704" on="0"/>
        <pt x="420" y="704" on="1"/>
        <pt x="554" y="704" on="0"/>
        <pt x="651" y="674" on="1"/>
        <pt x="627" y="519" on="1"/>
        <pt x="477" y="521" on="0"/>
        <pt x="405" y="521" on="1"/>
        <pt x="340" y="521" on="0"/>
        <pt x="285" y="445" on="0"/>
        <pt x="268" y="337" on="1"/>
        <pt x="252" y="235" on="0"/>
        <pt x="274" y="171" on="0"/>
        <pt x="324" y="171" on="1"/>
        <pt x="371" y="171" on="0"/>
        <pt x="414" y="202" on="1"/>
      </contour>
    </TTGlyph>
    <TTGlyph name="Gcommaaccent" xMin="42" yMin="-311" xMax="651" yMax="704">
      <contour>
        <pt x="441" y="397" on="1"/>
        <pt x="648" y="397" on="1"/>
        <pt x="592" y="0" on="1"/>
        <pt x="433" y="0" on="1"/>
        <pt x="425" y="80" on="1"/>
        <pt x="333" y="-14" on="0"/>
        <pt x="223" y="-14" on="1"/>
        <pt x="-10" y="-14" on="0"/>
        <pt x="42" y="353" on="1"/>
        <pt x="57" y="460" on="0"/>
        <pt x="111" y="596" on="0"/>
        <pt x="206" y="675" on="0"/>
        <pt x="328" y="704" on="0"/>
        <pt x="420" y="704" on="1"/>
        <pt x="554" y="704" on="0"/>
        <pt x="651" y="674" on="1"/>
        <pt x="627" y="519" on="1"/>
        <pt x="477" y="521" on="0"/>
        <pt x="405" y="521" on="1"/>
        <pt x="340" y="521" on="0"/>
        <pt x="285" y="445" on="0"/>
        <pt x="268" y="337" on="1"/>
        <pt x="252" y="235" on="0"/>
        <pt x="274" y="171" on="0"/>
        <pt x="324" y="171" on="1"/>
        <pt x="371" y="171" on="0"/>
        <pt x="414" y="202" on="1"/>
      </contour>
      <contour>
        <pt x="307" y="-48" on="1"/>
        <pt x="339" y="-48" on="1"/>
        <pt x="376" y="-48" on="0"/>
        <pt x="405" y="-75" on="0"/>
        <pt x="400" y="-105" on="1"/>
        <pt x="392" y="-153" on="1"/>
        <pt x="385" y="-193" on="0"/>
        <pt x="339" y="-283" on="0"/>
        <pt x="310" y="-311" on="1"/>
        <pt x="233" y="-287" on="1"/>
        <pt x="248" y="-259" on="0"/>
        <pt x="272" y="-184" on="1"/>
        <pt x="243" y="-185" on="0"/>
        <pt x="221" y="-161" on="0"/>
        <pt x="225" y="-136" on="1"/>
        <pt x="231" y="-101" on="1"/>
        <pt x="236" y="-71" on="0"/>
        <pt x="271" y="-48" on="0"/>
      </contour>
    </TTGlyph>
    <TTGlyph name="Gdotaccent" xMin="42" yMin="-14" xMax="651" yMax="913">
      <contour>
        <pt x="453" y="752" on="1"/>
        <pt x="390" y="752" on="1"/>
        <pt x="325" y="752" on="0"/>
        <pt x="334" y="813" on="1"/>
        <pt x="340" y="860" on="1"/>
        <pt x="348" y="913" on="0"/>
        <pt x="402" y="913" on="1"/>
        <pt x="461" y="913" on="1"/>
        <pt x="489" y="913" on="0"/>
        <pt x="521" y="883" on="0"/>
        <pt x="518" y="854" on="1"/>
        <pt x="513" y="805" on="1"/>
        <pt x="507" y="752" on="0"/>
      </contour>
      <contour>
        <pt x="441" y="397" on="1"/>
        <pt x="648" y="397" on="1"/>
        <pt x="592" y="0" on="1"/>
        <pt x="433" y="0" on="1"/>
        <pt x="425" y="80" on="1"/>
        <pt x="333" y="-14" on="0"/>
        <pt x="223" y="-14" on="1"/>
        <pt x="-10" y="-14" on="0"/>
        <pt x="42" y="353" on="1"/>
        <pt x="57" y="460" on="0"/>
        <pt x="111" y="596" on="0"/>
        <pt x="206" y="675" on="0"/>
        <pt x="328" y="704" on="0"/>
        <pt x="420" y="704" on="1"/>
        <pt x="554" y="704" on="0"/>
        <pt x="651" y="674" on="1"/>
        <pt x="627" y="519" on="1"/>
        <pt x="477" y="521" on="0"/>
        <pt x="405" y="521" on="1"/>
        <pt x="340" y="521" on="0"/>
        <pt x="285" y="445" on="0"/>
        <pt x="268" y="337" on="1"/>
        <pt x="252" y="235" on="0"/>
        <pt x="274" y="171" on="0"/>
        <pt x="324" y="171" on="1"/>
        <pt x="371" y="171" on="0"/>
        <pt x="414" y="202" on="1"/>
      </contour>
    </TTGlyph>
    <TTGlyph name="H" xMin="12" yMin="0" xMax="708" yMax="690">
      <contour>
        <pt x="708" y="690" on="1"/>
        <pt x="611" y="0" on="1"/>
        <pt x="394" y="0" on="1"/>
        <pt x="435" y="289" on="1"/>
        <pt x="270" y="289" on="1"/>
        <pt x="229" y="0" on="1"/>
        <pt x="12" y="0" on="1"/>
        <pt x="109" y="690" on="1"/>
        <pt x="326" y="690" on="1"/>
        <pt x="291" y="443" on="1"/>
        <pt x="456" y="443" on="1"/>
        <pt x="491" y="690" on="1"/>
      </contour>
    </TTGlyph>
    <TTGlyph name="Hbar" xMin="12" yMin="0" xMax="748" yMax="690">
      <contour>
        <pt x="734" y="509" on="1"/>
        <pt x="683" y="509" on="1"/>
        <pt x="611" y="0" on="1"/>
        <pt x="394" y="0" on="1"/>
        <pt x="435" y="289" on="1"/>
        <pt x="270" y="289" on="1"/>
        <pt x="229" y="0" on="1"/>
        <pt x="12" y="0" on="1"/>
        <pt x="84" y="509" on="1"/>
        <pt x="31" y="509" on="1"/>
        <pt x="45" y="601" on="1"/>
        <pt x="96" y="601" on="1"/>
        <pt x="109" y="690" on="1"/>
        <pt x="326" y="690" on="1"/>
        <pt x="313" y="601" on="1"/>
        <pt x="478" y="601" on="1"/>
        <pt x="491" y="690" on="1"/>
        <pt x="708" y="690" on="1"/>
        <pt x="695" y="601" on="1"/>
        <pt x="748" y="601" on="1"/>
      </contour>
      <contour>
        <pt x="466" y="509" on="1"/>
        <pt x="301" y="509" on="1"/>
        <pt x="291" y="443" on="1"/>
        <pt x="456" y="443" on="1"/>
      </contour>
    </TTGlyph>
    <TTGlyph name="I" xMin="12" yMin="0" xMax="325" yMax="690">
      <contour>
        <pt x="228" y="0" on="1"/>
        <pt x="12" y="0" on="1"/>
        <pt x="109" y="690" on="1"/>
        <pt x="325" y="690" on="1"/>
      </contour>
    </TTGlyph>
    <TTGlyph name="IJ" xMin="12" yMin="-14" xMax="722" yMax="690">
      <contour>
        <pt x="228" y="0" on="1"/>
        <pt x="12" y="0" on="1"/>
        <pt x="109" y="690" on="1"/>
        <pt x="325" y="690" on="1"/>
      </contour>
      <contour>
        <pt x="722" y="690" on="1"/>
        <pt x="644" y="123" on="1"/>
        <pt x="634" y="57" on="0"/>
        <pt x="537" y="-14" on="0"/>
        <pt x="460" y="-14" on="1"/>
        <pt x="418" y="-14" on="0"/>
        <pt x="320" y="1" on="0"/>
        <pt x="298" y="14" on="1"/>
        <pt x="332" y="148" on="1"/>
        <pt x="369" y="148" on="1"/>
        <pt x="428" y="148" on="0"/>
        <pt x="433" y="187" on="1"/>
        <pt x="506" y="690" on="1"/>
      </contour>
    </TTGlyph>
    <TTGlyph name="Iacute" xMin="12" yMin="0" xMax="447" yMax="962">
      <contour>
        <pt x="447" y="816" on="1"/>
        <pt x="181" y="720" on="1"/>
        <pt x="134" y="806" on="1"/>
        <pt x="381" y="962" on="1"/>
      </contour>
      <contour>
        <pt x="228" y="0" on="1"/>
        <pt x="12" y="0" on="1"/>
        <pt x="109" y="690" on="1"/>
        <pt x="325" y="690" on="1"/>
      </contour>
    </TTGlyph>
    <TTGlyph name="Icircumflex" xMin="12" yMin="0" xMax="437" yMax="927">
      <contour>
        <pt x="437" y="787" on="1"/>
        <pt x="382" y="719" on="1"/>
        <pt x="235" y="813" on="1"/>
        <pt x="227" y="813" on="1"/>
        <pt x="63" y="719" on="1"/>
        <pt x="15" y="791" on="1"/>
        <pt x="165" y="927" on="1"/>
        <pt x="306" y="927" on="1"/>
      </contour>
      <contour>
        <pt x="228" y="0" on="1"/>
        <pt x="12" y="0" on="1"/>
        <pt x="109" y="690" on="1"/>
        <pt x="325" y="690" on="1"/>
      </contour>
    </TTGlyph>
    <TTGlyph name="Idieresis" xMin="12" yMin="0" xMax="410" yMax="904">
      <contour>
        <pt x="114" y="904" on="1"/>
        <pt x="191" y="904" on="1"/>
        <pt x="227" y="904" on="0"/>
        <pt x="221" y="871" on="1"/>
        <pt x="210" y="795" on="1"/>
        <pt x="206" y="763" on="0"/>
        <pt x="175" y="763" on="1"/>
        <pt x="94" y="763" on="1"/>
        <pt x="58" y="763" on="0"/>
        <pt x="64" y="796" on="1"/>
        <pt x="75" y="869" on="1"/>
        <pt x="79" y="904" on="0"/>
      </contour>
      <contour>
        <pt x="300" y="904" on="1"/>
        <pt x="380" y="904" on="1"/>
        <pt x="416" y="904" on="0"/>
        <pt x="410" y="871" on="1"/>
        <pt x="399" y="796" on="1"/>
        <pt x="397" y="778" on="0"/>
        <pt x="381" y="763" on="0"/>
        <pt x="364" y="763" on="1"/>
        <pt x="283" y="763" on="1"/>
        <pt x="247" y="763" on="0"/>
        <pt x="253" y="796" on="1"/>
        <pt x="264" y="870" on="1"/>
        <pt x="269" y="904" on="0"/>
      </contour>
      <contour>
        <pt x="228" y="0" on="1"/>
        <pt x="12" y="0" on="1"/>
        <pt x="109" y="690" on="1"/>
        <pt x="325" y="690" on="1"/>
      </contour>
    </TTGlyph>
    <TTGlyph name="Idotaccent" xMin="12" yMin="0" xMax="330" yMax="913">
      <contour>
        <pt x="214" y="913" on="1"/>
        <pt x="273" y="913" on="1"/>
        <pt x="301" y="913" on="0"/>
        <pt x="333" y="883" on="0"/>
        <pt x="330" y="854" on="1"/>
        <pt x="325" y="805" on="1"/>
        <pt x="319" y="752" on="0"/>
        <pt x="265" y="752" on="1"/>
        <pt x="202" y="752" on="1"/>
        <pt x="137" y="752" on="0"/>
        <pt x="146" y="813" on="1"/>
        <pt x="152" y="860" on="1"/>
        <pt x="160" y="913" on="0"/>
      </contour>
      <contour>
        <pt x="228" y="0" on="1"/>
        <pt x="12" y="0" on="1"/>
        <pt x="109" y="690" on="1"/>
        <pt x="325" y="690" on="1"/>
      </contour>
    </TTGlyph>
    <TTGlyph name="Igrave" xMin="12" yMin="0" xMax="336" yMax="956">
      <contour>
        <pt x="336" y="806" on="1"/>
        <pt x="269" y="720" on="1"/>
        <pt x="21" y="826" on="1"/>
        <pt x="101" y="956" on="1"/>
      </contour>
      <contour>
        <pt x="228" y="0" on="1"/>
        <pt x="12" y="0" on="1"/>
        <pt x="109" y="690" on="1"/>
        <pt x="325" y="690" on="1"/>
      </contour>
    </TTGlyph>
    <TTGlyph name="Imacron" xMin="12" yMin="0" xMax="404" yMax="895">
      <contour>
        <pt x="387" y="772" on="1"/>
        <pt x="67" y="772" on="1"/>
        <pt x="84" y="895" on="1"/>
        <pt x="404" y="895" on="1"/>
      </contour>
      <contour>
        <pt x="228" y="0" on="1"/>
        <pt x="12" y="0" on="1"/>
        <pt x="109" y="690" on="1"/>
        <pt x="325" y="690" on="1"/>
      </contour>
    </TTGlyph>
    <TTGlyph name="Iogonek" xMin="-16" yMin="-210" xMax="325" yMax="690">
      <contour>
        <pt x="325" y="690" on="1"/>
        <pt x="228" y="0" on="1"/>
        <pt x="199" y="0" on="1"/>
        <pt x="157" y="-45" on="0"/>
        <pt x="142" y="-91" on="1"/>
        <pt x="137" y="-108" on="0"/>
        <pt x="151" y="-119" on="0"/>
        <pt x="174" y="-115" on="1"/>
        <pt x="189" y="-189" on="1"/>
        <pt x="140" y="-207" on="0"/>
        <pt x="59" y="-213" on="0"/>
        <pt x="13" y="-193" on="0"/>
        <pt x="-17" y="-159" on="0"/>
        <pt x="-14" y="-115" on="0"/>
        <pt x="-5" y="-93" on="1"/>
        <pt x="20" y="-45" on="0"/>
        <pt x="98" y="0" on="1"/>
        <pt x="12" y="0" on="1"/>
        <pt x="109" y="690" on="1"/>
      </contour>
    </TTGlyph>
    <TTGlyph name="J" xMin="-24" yMin="-14" xMax="400" yMax="690">
      <contour>
        <pt x="400" y="690" on="1"/>
        <pt x="322" y="123" on="1"/>
        <pt x="312" y="57" on="0"/>
        <pt x="215" y="-14" on="0"/>
        <pt x="138" y="-14" on="1"/>
        <pt x="96" y="-14" on="0"/>
        <pt x="-2" y="1" on="0"/>
        <pt x="-24" y="14" on="1"/>
        <pt x="10" y="148" on="1"/>
        <pt x="47" y="148" on="1"/>
        <pt x="106" y="148" on="0"/>
        <pt x="111" y="187" on="1"/>
        <pt x="184" y="690" on="1"/>
      </contour>
    </TTGlyph>
    <TTGlyph name="K" xMin="12" yMin="0" xMax="725" yMax="690">
      <contour>
        <pt x="460" y="343" on="1"/>
        <pt x="459" y="339" on="1"/>
        <pt x="473" y="333" on="0"/>
        <pt x="505" y="292" on="0"/>
        <pt x="514" y="269" on="1"/>
        <pt x="634" y="0" on="1"/>
        <pt x="400" y="0" on="1"/>
        <pt x="293" y="288" on="1"/>
        <pt x="262" y="288" on="1"/>
        <pt x="266" y="256" on="0"/>
        <pt x="261" y="221" on="1"/>
        <pt x="230" y="0" on="1"/>
        <pt x="12" y="0" on="1"/>
        <pt x="109" y="690" on="1"/>
        <pt x="327" y="690" on="1"/>
        <pt x="300" y="499" on="1"/>
        <pt x="295" y="461" on="0"/>
        <pt x="284" y="428" on="1"/>
        <pt x="317" y="428" on="1"/>
        <pt x="485" y="690" on="1"/>
        <pt x="725" y="690" on="1"/>
        <pt x="532" y="402" on="1"/>
        <pt x="505" y="360" on="0"/>
      </contour>
    </TTGlyph>
    <TTGlyph name="Kcommaaccent" xMin="12" yMin="-311" xMax="725" yMax="690">
      <contour>
        <pt x="460" y="343" on="1"/>
        <pt x="459" y="339" on="1"/>
        <pt x="473" y="333" on="0"/>
        <pt x="505" y="292" on="0"/>
        <pt x="514" y="269" on="1"/>
        <pt x="634" y="0" on="1"/>
        <pt x="400" y="0" on="1"/>
        <pt x="293" y="288" on="1"/>
        <pt x="262" y="288" on="1"/>
        <pt x="266" y="256" on="0"/>
        <pt x="261" y="221" on="1"/>
        <pt x="230" y="0" on="1"/>
        <pt x="12" y="0" on="1"/>
        <pt x="109" y="690" on="1"/>
        <pt x="327" y="690" on="1"/>
        <pt x="300" y="499" on="1"/>
        <pt x="295" y="461" on="0"/>
        <pt x="284" y="428" on="1"/>
        <pt x="317" y="428" on="1"/>
        <pt x="485" y="690" on="1"/>
        <pt x="725" y="690" on="1"/>
        <pt x="532" y="402" on="1"/>
        <pt x="505" y="360" on="0"/>
      </contour>
      <contour>
        <pt x="292" y="-48" on="1"/>
        <pt x="324" y="-48" on="1"/>
        <pt x="361" y="-48" on="0"/>
        <pt x="390" y="-75" on="0"/>
        <pt x="385" y="-105" on="1"/>
        <pt x="377" y="-153" on="1"/>
        <pt x="370" y="-193" on="0"/>
        <pt x="324" y="-283" on="0"/>
        <pt x="295" y="-311" on="1"/>
        <pt x="218" y="-287" on="1"/>
        <pt x="233" y="-259" on="0"/>
        <pt x="257" y="-184" on="1"/>
        <pt x="228" y="-185" on="0"/>
        <pt x="206" y="-161" on="0"/>
        <pt x="210" y="-136" on="1"/>
        <pt x="216" y="-101" on="1"/>
        <pt x="221" y="-71" on="0"/>
        <pt x="256" y="-48" on="0"/>
      </contour>
    </TTGlyph>
    <TTGlyph name="L" xMin="31" yMin="-4" xMax="516" yMax="690">
      <contour>
        <pt x="323" y="690" on="1"/>
        <pt x="252" y="212" on="1"/>
        <pt x="250" y="189" on="0"/>
        <pt x="265" y="172" on="0"/>
        <pt x="288" y="172" on="1"/>
        <pt x="516" y="172" on="1"/>
        <pt x="512" y="9" on="1"/>
        <pt x="412" y="-4" on="0"/>
        <pt x="181" y="-4" on="1"/>
        <pt x="106" y="-4" on="0"/>
        <pt x="21" y="87" on="0"/>
        <pt x="31" y="157" on="1"/>
        <pt x="105" y="690" on="1"/>
      </contour>
    </TTGlyph>
    <TTGlyph name="Lacute" xMin="31" yMin="-4" xMax="516" yMax="948">
      <contour>
        <pt x="445" y="802" on="1"/>
        <pt x="179" y="706" on="1"/>
        <pt x="132" y="792" on="1"/>
        <pt x="379" y="948" on="1"/>
      </contour>
      <contour>
        <pt x="323" y="690" on="1"/>
        <pt x="252" y="212" on="1"/>
        <pt x="250" y="189" on="0"/>
        <pt x="265" y="172" on="0"/>
        <pt x="288" y="172" on="1"/>
        <pt x="516" y="172" on="1"/>
        <pt x="512" y="9" on="1"/>
        <pt x="412" y="-4" on="0"/>
        <pt x="181" y="-4" on="1"/>
        <pt x="106" y="-4" on="0"/>
        <pt x="21" y="87" on="0"/>
        <pt x="31" y="157" on="1"/>
        <pt x="105" y="690" on="1"/>
      </contour>
    </TTGlyph>
    <TTGlyph name="Lcaron" xMin="31" yMin="-4" xMax="532" yMax="690">
      <contour>
        <pt x="323" y="690" on="1"/>
        <pt x="252" y="212" on="1"/>
        <pt x="250" y="189" on="0"/>
        <pt x="265" y="172" on="0"/>
        <pt x="288" y="172" on="1"/>
        <pt x="516" y="172" on="1"/>
        <pt x="512" y="9" on="1"/>
        <pt x="412" y="-4" on="0"/>
        <pt x="181" y="-4" on="1"/>
        <pt x="106" y="-4" on="0"/>
        <pt x="21" y="87" on="0"/>
        <pt x="31" y="157" on="1"/>
        <pt x="105" y="690" on="1"/>
      </contour>
      <contour>
        <pt x="439" y="689" on="1"/>
        <pt x="471" y="689" on="1"/>
        <pt x="508" y="689" on="0"/>
        <pt x="537" y="662" on="0"/>
        <pt x="532" y="632" on="1"/>
        <pt x="524" y="584" on="1"/>
        <pt x="517" y="544" on="0"/>
        <pt x="471" y="454" on="0"/>
        <pt x="442" y="426" on="1"/>
        <pt x="365" y="450" on="1"/>
        <pt x="380" y="478" on="0"/>
        <pt x="404" y="553" on="1"/>
        <pt x="375" y="552" on="0"/>
        <pt x="353" y="576" on="0"/>
        <pt x="357" y="601" on="1"/>
        <pt x="363" y="636" on="1"/>
        <pt x="368" y="666" on="0"/>
        <pt x="403" y="689" on="0"/>
      </contour>
    </TTGlyph>
    <TTGlyph name="Lcommaaccent" xMin="31" yMin="-311" xMax="516" yMax="690">
      <contour>
        <pt x="323" y="690" on="1"/>
        <pt x="252" y="212" on="1"/>
        <pt x="250" y="189" on="0"/>
        <pt x="265" y="172" on="0"/>
        <pt x="288" y="172" on="1"/>
        <pt x="516" y="172" on="1"/>
        <pt x="512" y="9" on="1"/>
        <pt x="412" y="-4" on="0"/>
        <pt x="181" y="-4" on="1"/>
        <pt x="106" y="-4" on="0"/>
        <pt x="21" y="87" on="0"/>
        <pt x="31" y="157" on="1"/>
        <pt x="105" y="690" on="1"/>
      </contour>
      <contour>
        <pt x="241" y="-48" on="1"/>
        <pt x="273" y="-48" on="1"/>
        <pt x="310" y="-48" on="0"/>
        <pt x="339" y="-75" on="0"/>
        <pt x="334" y="-105" on="1"/>
        <pt x="326" y="-153" on="1"/>
        <pt x="319" y="-193" on="0"/>
        <pt x="273" y="-283" on="0"/>
        <pt x="244" y="-311" on="1"/>
        <pt x="167" y="-287" on="1"/>
        <pt x="182" y="-259" on="0"/>
        <pt x="206" y="-184" on="1"/>
        <pt x="177" y="-185" on="0"/>
        <pt x="155" y="-161" on="0"/>
        <pt x="159" y="-136" on="1"/>
        <pt x="165" y="-101" on="1"/>
        <pt x="170" y="-71" on="0"/>
        <pt x="205" y="-48" on="0"/>
      </contour>
    </TTGlyph>
    <TTGlyph name="Ldot" xMin="31" yMin="-4" xMax="544" yMax="690">
      <contour>
        <pt x="323" y="690" on="1"/>
        <pt x="252" y="212" on="1"/>
        <pt x="250" y="189" on="0"/>
        <pt x="265" y="172" on="0"/>
        <pt x="288" y="172" on="1"/>
        <pt x="516" y="172" on="1"/>
        <pt x="512" y="9" on="1"/>
        <pt x="412" y="-4" on="0"/>
        <pt x="181" y="-4" on="1"/>
        <pt x="106" y="-4" on="0"/>
        <pt x="21" y="87" on="0"/>
        <pt x="31" y="157" on="1"/>
        <pt x="105" y="690" on="1"/>
      </contour>
      <contour>
        <pt x="476" y="343" on="1"/>
        <pt x="417" y="343" on="1"/>
        <pt x="389" y="343" on="0"/>
        <pt x="357" y="373" on="0"/>
        <pt x="360" y="402" on="1"/>
        <pt x="365" y="451" on="1"/>
        <pt x="371" y="504" on="0"/>
        <pt x="425" y="504" on="1"/>
        <pt x="488" y="504" on="1"/>
        <pt x="553" y="504" on="0"/>
        <pt x="544" y="443" on="1"/>
        <pt x="538" y="396" on="1"/>
        <pt x="530" y="343" on="0"/>
      </contour>
    </TTGlyph>
    <TTGlyph name="Lslash" xMin="4" yMin="-4" xMax="520" yMax="690">
      <contour>
        <pt x="520" y="172" on="1"/>
        <pt x="516" y="9" on="1"/>
        <pt x="416" y="-4" on="0"/>
        <pt x="185" y="-4" on="1"/>
        <pt x="110" y="-4" on="0"/>
        <pt x="25" y="87" on="0"/>
        <pt x="35" y="157" on="1"/>
        <pt x="53" y="287" on="1"/>
        <pt x="4" y="269" on="1"/>
        <pt x="18" y="373" on="1"/>
        <pt x="68" y="391" on="1"/>
        <pt x="109" y="690" on="1"/>
        <pt x="327" y="690" on="1"/>
        <pt x="295" y="475" on="1"/>
        <pt x="399" y="513" on="1"/>
        <pt x="384" y="409" on="1"/>
        <pt x="280" y="371" on="1"/>
        <pt x="256" y="212" on="1"/>
        <pt x="254" y="189" on="0"/>
        <pt x="269" y="172" on="0"/>
        <pt x="292" y="172" on="1"/>
      </contour>
    </TTGlyph>
    <TTGlyph name="M" xMin="0" yMin="0" xMax="928" yMax="690">
      <contour>
        <pt x="664" y="690" on="1"/>
        <pt x="857" y="690" on="1"/>
        <pt x="894" y="690" on="0"/>
        <pt x="932" y="648" on="0"/>
        <pt x="928" y="611" on="1"/>
        <pt x="866" y="0" on="1"/>
        <pt x="671" y="0" on="1"/>
        <pt x="725" y="528" on="1"/>
        <pt x="711" y="528" on="1"/>
        <pt x="595" y="172" on="1"/>
        <pt x="577" y="110" on="0"/>
        <pt x="508" y="110" on="1"/>
        <pt x="398" y="110" on="1"/>
        <pt x="363" y="110" on="0"/>
        <pt x="322" y="147" on="0"/>
        <pt x="321" y="180" on="1"/>
        <pt x="302" y="528" on="1"/>
        <pt x="286" y="528" on="1"/>
        <pt x="195" y="0" on="1"/>
        <pt x="0" y="0" on="1"/>
        <pt x="111" y="619" on="1"/>
        <pt x="118" y="656" on="0"/>
        <pt x="154" y="690" on="0"/>
        <pt x="190" y="690" on="1"/>
        <pt x="374" y="690" on="1"/>
        <pt x="408" y="690" on="0"/>
        <pt x="448" y="652" on="0"/>
        <pt x="449" y="619" on="1"/>
        <pt x="461" y="345" on="1"/>
        <pt x="464" y="299" on="0"/>
        <pt x="459" y="242" on="1"/>
        <pt x="469" y="242" on="1"/>
        <pt x="477" y="280" on="0"/>
        <pt x="494" y="343" on="1"/>
        <pt x="578" y="627" on="1"/>
        <pt x="595" y="690" on="0"/>
      </contour>
    </TTGlyph>
    <TTGlyph name="N" xMin="11" yMin="0" xMax="734" yMax="690">
      <contour>
        <pt x="734" y="690" on="1"/>
        <pt x="647" y="71" on="1"/>
        <pt x="642" y="34" on="0"/>
        <pt x="604" y="0" on="0"/>
        <pt x="568" y="0" on="1"/>
        <pt x="496" y="0" on="1"/>
        <pt x="465" y="0" on="0"/>
        <pt x="436" y="30" on="0"/>
        <pt x="419" y="67" on="1"/>
        <pt x="301" y="304" on="1"/>
        <pt x="282" y="341" on="0"/>
        <pt x="266" y="418" on="1"/>
        <pt x="259" y="418" on="1"/>
        <pt x="261" y="346" on="0"/>
        <pt x="253" y="290" on="1"/>
        <pt x="210" y="0" on="1"/>
        <pt x="11" y="0" on="1"/>
        <pt x="98" y="619" on="1"/>
        <pt x="103" y="656" on="0"/>
        <pt x="141" y="690" on="0"/>
        <pt x="177" y="690" on="1"/>
        <pt x="249" y="690" on="1"/>
        <pt x="265" y="690" on="0"/>
        <pt x="288" y="682" on="0"/>
        <pt x="306" y="659" on="0"/>
        <pt x="316" y="643" on="0"/>
        <pt x="325" y="623" on="1"/>
        <pt x="441" y="398" on="1"/>
        <pt x="467" y="344" on="0"/>
        <pt x="483" y="279" on="1"/>
        <pt x="491" y="279" on="1"/>
        <pt x="486" y="339" on="0"/>
        <pt x="493" y="396" on="1"/>
        <pt x="535" y="690" on="1"/>
      </contour>
    </TTGlyph>
    <TTGlyph name="Nacute" xMin="11" yMin="0" xMax="734" yMax="962">
      <contour>
        <pt x="645" y="816" on="1"/>
        <pt x="379" y="720" on="1"/>
        <pt x="332" y="806" on="1"/>
        <pt x="579" y="962" on="1"/>
      </contour>
      <contour>
        <pt x="734" y="690" on="1"/>
        <pt x="647" y="71" on="1"/>
        <pt x="642" y="34" on="0"/>
        <pt x="604" y="0" on="0"/>
        <pt x="568" y="0" on="1"/>
        <pt x="496" y="0" on="1"/>
        <pt x="465" y="0" on="0"/>
        <pt x="436" y="30" on="0"/>
        <pt x="419" y="67" on="1"/>
        <pt x="301" y="304" on="1"/>
        <pt x="282" y="341" on="0"/>
        <pt x="266" y="418" on="1"/>
        <pt x="259" y="418" on="1"/>
        <pt x="261" y="346" on="0"/>
        <pt x="253" y="290" on="1"/>
        <pt x="210" y="0" on="1"/>
        <pt x="11" y="0" on="1"/>
        <pt x="98" y="619" on="1"/>
        <pt x="103" y="656" on="0"/>
        <pt x="141" y="690" on="0"/>
        <pt x="177" y="690" on="1"/>
        <pt x="249" y="690" on="1"/>
        <pt x="265" y="690" on="0"/>
        <pt x="288" y="682" on="0"/>
        <pt x="306" y="659" on="0"/>
        <pt x="316" y="643" on="0"/>
        <pt x="325" y="623" on="1"/>
        <pt x="441" y="398" on="1"/>
        <pt x="467" y="344" on="0"/>
        <pt x="483" y="279" on="1"/>
        <pt x="491" y="279" on="1"/>
        <pt x="486" y="339" on="0"/>
        <pt x="493" y="396" on="1"/>
        <pt x="535" y="690" on="1"/>
      </contour>
    </TTGlyph>
    <TTGlyph name="Ncaron" xMin="11" yMin="0" xMax="734" yMax="947">
      <contour>
        <pt x="645" y="868" on="1"/>
        <pt x="466" y="737" on="1"/>
        <pt x="384" y="737" on="1"/>
        <pt x="221" y="881" on="1"/>
        <pt x="279" y="947" on="1"/>
        <pt x="426" y="866" on="1"/>
        <pt x="434" y="866" on="1"/>
        <pt x="605" y="943" on="1"/>
      </contour>
      <contour>
        <pt x="734" y="690" on="1"/>
        <pt x="647" y="71" on="1"/>
        <pt x="642" y="34" on="0"/>
        <pt x="604" y="0" on="0"/>
        <pt x="568" y="0" on="1"/>
        <pt x="496" y="0" on="1"/>
        <pt x="465" y="0" on="0"/>
        <pt x="436" y="30" on="0"/>
        <pt x="419" y="67" on="1"/>
        <pt x="301" y="304" on="1"/>
        <pt x="282" y="341" on="0"/>
        <pt x="266" y="418" on="1"/>
        <pt x="259" y="418" on="1"/>
        <pt x="261" y="346" on="0"/>
        <pt x="253" y="290" on="1"/>
        <pt x="210" y="0" on="1"/>
        <pt x="11" y="0" on="1"/>
        <pt x="98" y="619" on="1"/>
        <pt x="103" y="656" on="0"/>
        <pt x="141" y="690" on="0"/>
        <pt x="177" y="690" on="1"/>
        <pt x="249" y="690" on="1"/>
        <pt x="265" y="690" on="0"/>
        <pt x="288" y="682" on="0"/>
        <pt x="306" y="659" on="0"/>
        <pt x="316" y="643" on="0"/>
        <pt x="325" y="623" on="1"/>
        <pt x="441" y="398" on="1"/>
        <pt x="467" y="344" on="0"/>
        <pt x="483" y="279" on="1"/>
        <pt x="491" y="279" on="1"/>
        <pt x="486" y="339" on="0"/>
        <pt x="493" y="396" on="1"/>
        <pt x="535" y="690" on="1"/>
      </contour>
    </TTGlyph>
    <TTGlyph name="Ncommaaccent" xMin="11" yMin="-311" xMax="734" yMax="690">
      <contour>
        <pt x="734" y="690" on="1"/>
        <pt x="647" y="71" on="1"/>
        <pt x="642" y="34" on="0"/>
        <pt x="604" y="0" on="0"/>
        <pt x="568" y="0" on="1"/>
        <pt x="496" y="0" on="1"/>
        <pt x="465" y="0" on="0"/>
        <pt x="436" y="30" on="0"/>
        <pt x="419" y="67" on="1"/>
        <pt x="301" y="304" on="1"/>
        <pt x="282" y="341" on="0"/>
        <pt x="266" y="418" on="1"/>
        <pt x="259" y="418" on="1"/>
        <pt x="261" y="346" on="0"/>
        <pt x="253" y="290" on="1"/>
        <pt x="210" y="0" on="1"/>
        <pt x="11" y="0" on="1"/>
        <pt x="98" y="619" on="1"/>
        <pt x="103" y="656" on="0"/>
        <pt x="141" y="690" on="0"/>
        <pt x="177" y="690" on="1"/>
        <pt x="249" y="690" on="1"/>
        <pt x="265" y="690" on="0"/>
        <pt x="288" y="682" on="0"/>
        <pt x="306" y="659" on="0"/>
        <pt x="316" y="643" on="0"/>
        <pt x="325" y="623" on="1"/>
        <pt x="441" y="398" on="1"/>
        <pt x="467" y="344" on="0"/>
        <pt x="483" y="279" on="1"/>
        <pt x="491" y="279" on="1"/>
        <pt x="486" y="339" on="0"/>
        <pt x="493" y="396" on="1"/>
        <pt x="535" y="690" on="1"/>
      </contour>
      <contour>
        <pt x="329" y="-48" on="1"/>
        <pt x="361" y="-48" on="1"/>
        <pt x="398" y="-48" on="0"/>
        <pt x="427" y="-75" on="0"/>
        <pt x="422" y="-105" on="1"/>
        <pt x="414" y="-153" on="1"/>
        <pt x="407" y="-193" on="0"/>
        <pt x="361" y="-283" on="0"/>
        <pt x="332" y="-311" on="1"/>
        <pt x="255" y="-287" on="1"/>
        <pt x="270" y="-259" on="0"/>
        <pt x="294" y="-184" on="1"/>
        <pt x="265" y="-185" on="0"/>
        <pt x="243" y="-161" on="0"/>
        <pt x="247" y="-136" on="1"/>
        <pt x="253" y="-101" on="1"/>
        <pt x="258" y="-71" on="0"/>
        <pt x="293" y="-48" on="0"/>
      </contour>
    </TTGlyph>
    <TTGlyph name="Ntilde" xMin="11" yMin="0" xMax="734" yMax="920">
      <contour>
        <pt x="320" y="747" on="1"/>
        <pt x="235" y="755" on="1"/>
        <pt x="233" y="837" on="0"/>
        <pt x="286" y="920" on="0"/>
        <pt x="333" y="920" on="1"/>
        <pt x="363" y="920" on="0"/>
        <pt x="492" y="876" on="0"/>
        <pt x="493" y="876" on="1"/>
        <pt x="517" y="870" on="0"/>
        <pt x="537" y="892" on="0"/>
        <pt x="540" y="919" on="1"/>
        <pt x="625" y="911" on="1"/>
        <pt x="629" y="828" on="0"/>
        <pt x="577" y="746" on="0"/>
        <pt x="530" y="746" on="1"/>
        <pt x="499" y="746" on="0"/>
        <pt x="373" y="789" on="0"/>
        <pt x="366" y="790" on="1"/>
        <pt x="342" y="795" on="0"/>
        <pt x="324" y="774" on="0"/>
      </contour>
      <contour>
        <pt x="734" y="690" on="1"/>
        <pt x="647" y="71" on="1"/>
        <pt x="642" y="34" on="0"/>
        <pt x="604" y="0" on="0"/>
        <pt x="568" y="0" on="1"/>
        <pt x="496" y="0" on="1"/>
        <pt x="465" y="0" on="0"/>
        <pt x="436" y="30" on="0"/>
        <pt x="419" y="67" on="1"/>
        <pt x="301" y="304" on="1"/>
        <pt x="282" y="341" on="0"/>
        <pt x="266" y="418" on="1"/>
        <pt x="259" y="418" on="1"/>
        <pt x="261" y="346" on="0"/>
        <pt x="253" y="290" on="1"/>
        <pt x="210" y="0" on="1"/>
        <pt x="11" y="0" on="1"/>
        <pt x="98" y="619" on="1"/>
        <pt x="103" y="656" on="0"/>
        <pt x="141" y="690" on="0"/>
        <pt x="177" y="690" on="1"/>
        <pt x="249" y="690" on="1"/>
        <pt x="265" y="690" on="0"/>
        <pt x="288" y="682" on="0"/>
        <pt x="306" y="659" on="0"/>
        <pt x="316" y="643" on="0"/>
        <pt x="325" y="623" on="1"/>
        <pt x="441" y="398" on="1"/>
        <pt x="467" y="344" on="0"/>
        <pt x="483" y="279" on="1"/>
        <pt x="491" y="279" on="1"/>
        <pt x="486" y="339" on="0"/>
        <pt x="493" y="396" on="1"/>
        <pt x="535" y="690" on="1"/>
      </contour>
    </TTGlyph>
    <TTGlyph name="O" xMin="41" yMin="-14" xMax="682" yMax="704">
      <contour>
        <pt x="389" y="704" on="1"/>
        <pt x="460" y="704" on="0"/>
        <pt x="560" y="683" on="0"/>
        <pt x="638" y="632" on="0"/>
        <pt x="675" y="548" on="0"/>
        <pt x="689" y="423" on="0"/>
        <pt x="675" y="337" on="1"/>
        <pt x="661" y="230" on="0"/>
        <pt x="609" y="94" on="0"/>
        <pt x="521" y="16" on="0"/>
        <pt x="407" y="-14" on="0"/>
        <pt x="322" y="-14" on="1"/>
        <pt x="199" y="-14" on="0"/>
        <pt x="68" y="51" on="0"/>
        <pt x="21" y="211" on="0"/>
        <pt x="41" y="353" on="1"/>
        <pt x="56" y="459" on="0"/>
        <pt x="106" y="594" on="0"/>
        <pt x="193" y="673" on="0"/>
        <pt x="305" y="704" on="0"/>
      </contour>
      <contour>
        <pt x="441" y="543" on="0"/>
        <pt x="333" y="543" on="0"/>
        <pt x="288" y="466" on="0"/>
        <pt x="268" y="337" on="1"/>
        <pt x="250" y="218" on="0"/>
        <pt x="273" y="147" on="0"/>
        <pt x="327" y="147" on="1"/>
        <pt x="383" y="147" on="0"/>
        <pt x="427" y="224" on="0"/>
        <pt x="447" y="353" on="1"/>
        <pt x="464" y="471" on="0"/>
      </contour>
    </TTGlyph>
    <TTGlyph name="OE" xMin="41" yMin="-14" xMax="995" yMax="704">
      <contour>
        <pt x="970" y="528" on="1"/>
        <pt x="737" y="528" on="1"/>
        <pt x="720" y="528" on="0"/>
        <pt x="689" y="504" on="0"/>
        <pt x="687" y="488" on="1"/>
        <pt x="677" y="420" on="1"/>
        <pt x="920" y="420" on="1"/>
        <pt x="903" y="286" on="1"/>
        <pt x="658" y="286" on="1"/>
        <pt x="645" y="194" on="1"/>
        <pt x="640" y="162" on="0"/>
        <pt x="673" y="162" on="1"/>
        <pt x="917" y="162" on="1"/>
        <pt x="913" y="8" on="1"/>
        <pt x="823" y="-4" on="0"/>
        <pt x="569" y="-4" on="1"/>
        <pt x="519" y="-4" on="0"/>
        <pt x="483" y="18" on="1"/>
        <pt x="409" y="-14" on="0"/>
        <pt x="316" y="-14" on="1"/>
        <pt x="193" y="-14" on="0"/>
        <pt x="65" y="50" on="0"/>
        <pt x="21" y="209" on="0"/>
        <pt x="41" y="353" on="1"/>
        <pt x="56" y="459" on="0"/>
        <pt x="105" y="593" on="0"/>
        <pt x="191" y="673" on="0"/>
        <pt x="305" y="704" on="0"/>
        <pt x="393" y="704" on="1"/>
        <pt x="494" y="704" on="0"/>
        <pt x="570" y="678" on="1"/>
        <pt x="604" y="694" on="0"/>
        <pt x="642" y="694" on="1"/>
        <pt x="894" y="694" on="0"/>
        <pt x="995" y="680" on="1"/>
      </contour>
      <contour>
        <pt x="424" y="162" on="1"/>
        <pt x="477" y="537" on="1"/>
        <pt x="452" y="543" on="0"/>
        <pt x="394" y="543" on="1"/>
        <pt x="338" y="543" on="0"/>
        <pt x="285" y="459" on="0"/>
        <pt x="268" y="337" on="1"/>
        <pt x="251" y="220" on="0"/>
        <pt x="268" y="147" on="0"/>
        <pt x="314" y="147" on="1"/>
        <pt x="390" y="147" on="0"/>
      </contour>
    </TTGlyph>
    <TTGlyph name="Oacute" xMin="41" yMin="-14" xMax="682" yMax="962">
      <contour>
        <pt x="637" y="816" on="1"/>
        <pt x="371" y="720" on="1"/>
        <pt x="324" y="806" on="1"/>
        <pt x="571" y="962" on="1"/>
      </contour>
      <contour>
        <pt x="389" y="704" on="1"/>
        <pt x="460" y="704" on="0"/>
        <pt x="560" y="683" on="0"/>
        <pt x="638" y="632" on="0"/>
        <pt x="675" y="548" on="0"/>
        <pt x="689" y="423" on="0"/>
        <pt x="675" y="337" on="1"/>
        <pt x="661" y="230" on="0"/>
        <pt x="609" y="94" on="0"/>
        <pt x="521" y="16" on="0"/>
        <pt x="407" y="-14" on="0"/>
        <pt x="322" y="-14" on="1"/>
        <pt x="199" y="-14" on="0"/>
        <pt x="68" y="51" on="0"/>
        <pt x="21" y="211" on="0"/>
        <pt x="41" y="353" on="1"/>
        <pt x="56" y="459" on="0"/>
        <pt x="106" y="594" on="0"/>
        <pt x="193" y="673" on="0"/>
        <pt x="305" y="704" on="0"/>
      </contour>
      <contour>
        <pt x="441" y="543" on="0"/>
        <pt x="333" y="543" on="0"/>
        <pt x="288" y="466" on="0"/>
        <pt x="268" y="337" on="1"/>
        <pt x="250" y="218" on="0"/>
        <pt x="273" y="147" on="0"/>
        <pt x="327" y="147" on="1"/>
        <pt x="383" y="147" on="0"/>
        <pt x="427" y="224" on="0"/>
        <pt x="447" y="353" on="1"/>
        <pt x="464" y="471" on="0"/>
      </contour>
    </TTGlyph>
    <TTGlyph name="Ocircumflex" xMin="41" yMin="-14" xMax="682" yMax="927">
      <contour>
        <pt x="627" y="787" on="1"/>
        <pt x="572" y="719" on="1"/>
        <pt x="425" y="813" on="1"/>
        <pt x="417" y="813" on="1"/>
        <pt x="253" y="719" on="1"/>
        <pt x="205" y="791" on="1"/>
        <pt x="355" y="927" on="1"/>
        <pt x="496" y="927" on="1"/>
      </contour>
      <contour>
        <pt x="389" y="704" on="1"/>
        <pt x="460" y="704" on="0"/>
        <pt x="560" y="683" on="0"/>
        <pt x="638" y="632" on="0"/>
        <pt x="675" y="548" on="0"/>
        <pt x="689" y="423" on="0"/>
        <pt x="675" y="337" on="1"/>
        <pt x="661" y="230" on="0"/>
        <pt x="609" y="94" on="0"/>
        <pt x="521" y="16" on="0"/>
        <pt x="407" y="-14" on="0"/>
        <pt x="322" y="-14" on="1"/>
        <pt x="199" y="-14" on="0"/>
        <pt x="68" y="51" on="0"/>
        <pt x="21" y="211" on="0"/>
        <pt x="41" y="353" on="1"/>
        <pt x="56" y="459" on="0"/>
        <pt x="106" y="594" on="0"/>
        <pt x="193" y="673" on="0"/>
        <pt x="305" y="704" on="0"/>
      </contour>
      <contour>
        <pt x="441" y="543" on="0"/>
        <pt x="333" y="543" on="0"/>
        <pt x="288" y="466" on="0"/>
        <pt x="268" y="337" on="1"/>
        <pt x="250" y="218" on="0"/>
        <pt x="273" y="147" on="0"/>
        <pt x="327" y="147" on="1"/>
        <pt x="383" y="147" on="0"/>
        <pt x="427" y="224" on="0"/>
        <pt x="447" y="353" on="1"/>
        <pt x="464" y="471" on="0"/>
      </contour>
    </TTGlyph>
    <TTGlyph name="Odieresis" xMin="41" yMin="-14" xMax="682" yMax="904">
      <contour>
        <pt x="304" y="904" on="1"/>
        <pt x="381" y="904" on="1"/>
        <pt x="417" y="904" on="0"/>
        <pt x="411" y="871" on="1"/>
        <pt x="400" y="795" on="1"/>
        <pt x="396" y="763" on="0"/>
        <pt x="365" y="763" on="1"/>
        <pt x="284" y="763" on="1"/>
        <pt x="248" y="763" on="0"/>
        <pt x="254" y="796" on="1"/>
        <pt x="265" y="869" on="1"/>
        <pt x="269" y="904" on="0"/>
      </contour>
      <contour>
        <pt x="490" y="904" on="1"/>
        <pt x="570" y="904" on="1"/>
        <pt x="606" y="904" on="0"/>
        <pt x="600" y="871" on="1"/>
        <pt x="589" y="796" on="1"/>
        <pt x="587" y="778" on="0"/>
        <pt x="571" y="763" on="0"/>
        <pt x="554" y="763" on="1"/>
        <pt x="473" y="763" on="1"/>
        <pt x="437" y="763" on="0"/>
        <pt x="443" y="796" on="1"/>
        <pt x="454" y="870" on="1"/>
        <pt x="459" y="904" on="0"/>
      </contour>
      <contour>
        <pt x="389" y="704" on="1"/>
        <pt x="460" y="704" on="0"/>
        <pt x="560" y="683" on="0"/>
        <pt x="638" y="632" on="0"/>
        <pt x="675" y="548" on="0"/>
        <pt x="689" y="423" on="0"/>
        <pt x="675" y="337" on="1"/>
        <pt x="661" y="230" on="0"/>
        <pt x="609" y="94" on="0"/>
        <pt x="521" y="16" on="0"/>
        <pt x="407" y="-14" on="0"/>
        <pt x="322" y="-14" on="1"/>
        <pt x="199" y="-14" on="0"/>
        <pt x="68" y="51" on="0"/>
        <pt x="21" y="211" on="0"/>
        <pt x="41" y="353" on="1"/>
        <pt x="56" y="459" on="0"/>
        <pt x="106" y="594" on="0"/>
        <pt x="193" y="673" on="0"/>
        <pt x="305" y="704" on="0"/>
      </contour>
      <contour>
        <pt x="441" y="543" on="0"/>
        <pt x="333" y="543" on="0"/>
        <pt x="288" y="466" on="0"/>
        <pt x="268" y="337" on="1"/>
        <pt x="250" y="218" on="0"/>
        <pt x="273" y="147" on="0"/>
        <pt x="327" y="147" on="1"/>
        <pt x="383" y="147" on="0"/>
        <pt x="427" y="224" on="0"/>
        <pt x="447" y="353" on="1"/>
        <pt x="464" y="471" on="0"/>
      </contour>
    </TTGlyph>
    <TTGlyph name="Ograve" xMin="41" yMin="-14" xMax="682" yMax="956">
      <contour>
        <pt x="526" y="806" on="1"/>
        <pt x="459" y="720" on="1"/>
        <pt x="211" y="826" on="1"/>
        <pt x="291" y="956" on="1"/>
      </contour>
      <contour>
        <pt x="389" y="704" on="1"/>
        <pt x="460" y="704" on="0"/>
        <pt x="560" y="683" on="0"/>
        <pt x="638" y="632" on="0"/>
        <pt x="675" y="548" on="0"/>
        <pt x="689" y="423" on="0"/>
        <pt x="675" y="337" on="1"/>
        <pt x="661" y="230" on="0"/>
        <pt x="609" y="94" on="0"/>
        <pt x="521" y="16" on="0"/>
        <pt x="407" y="-14" on="0"/>
        <pt x="322" y="-14" on="1"/>
        <pt x="199" y="-14" on="0"/>
        <pt x="68" y="51" on="0"/>
        <pt x="21" y="211" on="0"/>
        <pt x="41" y="353" on="1"/>
        <pt x="56" y="459" on="0"/>
        <pt x="106" y="594" on="0"/>
        <pt x="193" y="673" on="0"/>
        <pt x="305" y="704" on="0"/>
      </contour>
      <contour>
        <pt x="441" y="543" on="0"/>
        <pt x="333" y="543" on="0"/>
        <pt x="288" y="466" on="0"/>
        <pt x="268" y="337" on="1"/>
        <pt x="250" y="218" on="0"/>
        <pt x="273" y="147" on="0"/>
        <pt x="327" y="147" on="1"/>
        <pt x="383" y="147" on="0"/>
        <pt x="427" y="224" on="0"/>
        <pt x="447" y="353" on="1"/>
        <pt x="464" y="471" on="0"/>
      </contour>
    </TTGlyph>
    <TTGlyph name="Ohungarumlaut" xMin="41" yMin="-14" xMax="701" yMax="968">
      <contour>
        <pt x="486" y="884" on="1"/>
        <pt x="303" y="723" on="1"/>
        <pt x="218" y="775" on="1"/>
        <pt x="365" y="968" on="1"/>
      </contour>
      <contour>
        <pt x="701" y="884" on="1"/>
        <pt x="517" y="723" on="1"/>
        <pt x="433" y="774" on="1"/>
        <pt x="580" y="968" on="1"/>
      </contour>
      <contour>
        <pt x="389" y="704" on="1"/>
        <pt x="460" y="704" on="0"/>
        <pt x="560" y="683" on="0"/>
        <pt x="638" y="632" on="0"/>
        <pt x="675" y="548" on="0"/>
        <pt x="689" y="423" on="0"/>
        <pt x="675" y="337" on="1"/>
        <pt x="661" y="230" on="0"/>
        <pt x="609" y="94" on="0"/>
        <pt x="521" y="16" on="0"/>
        <pt x="407" y="-14" on="0"/>
        <pt x="322" y="-14" on="1"/>
        <pt x="199" y="-14" on="0"/>
        <pt x="68" y="51" on="0"/>
        <pt x="21" y="211" on="0"/>
        <pt x="41" y="353" on="1"/>
        <pt x="56" y="459" on="0"/>
        <pt x="106" y="594" on="0"/>
        <pt x="193" y="673" on="0"/>
        <pt x="305" y="704" on="0"/>
      </contour>
      <contour>
        <pt x="441" y="543" on="0"/>
        <pt x="333" y="543" on="0"/>
        <pt x="288" y="466" on="0"/>
        <pt x="268" y="337" on="1"/>
        <pt x="250" y="218" on="0"/>
        <pt x="273" y="147" on="0"/>
        <pt x="327" y="147" on="1"/>
        <pt x="383" y="147" on="0"/>
        <pt x="427" y="224" on="0"/>
        <pt x="447" y="353" on="1"/>
        <pt x="464" y="471" on="0"/>
      </contour>
    </TTGlyph>
    <TTGlyph name="Omacron" xMin="41" yMin="-14" xMax="682" yMax="895">
      <contour>
        <pt x="577" y="772" on="1"/>
        <pt x="257" y="772" on="1"/>
        <pt x="274" y="895" on="1"/>
        <pt x="594" y="895" on="1"/>
      </contour>
      <contour>
        <pt x="389" y="704" on="1"/>
        <pt x="460" y="704" on="0"/>
        <pt x="560" y="683" on="0"/>
        <pt x="638" y="632" on="0"/>
        <pt x="675" y="548" on="0"/>
        <pt x="689" y="423" on="0"/>
        <pt x="675" y="337" on="1"/>
        <pt x="661" y="230" on="0"/>
        <pt x="609" y="94" on="0"/>
        <pt x="521" y="16" on="0"/>
        <pt x="407" y="-14" on="0"/>
        <pt x="322" y="-14" on="1"/>
        <pt x="199" y="-14" on="0"/>
        <pt x="68" y="51" on="0"/>
        <pt x="21" y="211" on="0"/>
        <pt x="41" y="353" on="1"/>
        <pt x="56" y="459" on="0"/>
        <pt x="106" y="594" on="0"/>
        <pt x="193" y="673" on="0"/>
        <pt x="305" y="704" on="0"/>
      </contour>
      <contour>
        <pt x="441" y="543" on="0"/>
        <pt x="333" y="543" on="0"/>
        <pt x="288" y="466" on="0"/>
        <pt x="268" y="337" on="1"/>
        <pt x="250" y="218" on="0"/>
        <pt x="273" y="147" on="0"/>
        <pt x="327" y="147" on="1"/>
        <pt x="383" y="147" on="0"/>
        <pt x="427" y="224" on="0"/>
        <pt x="447" y="353" on="1"/>
        <pt x="464" y="471" on="0"/>
      </contour>
    </TTGlyph>
    <TTGlyph name="Omega" xMin="-5" yMin="0" xMax="691" yMax="704">
      <contour>
        <pt x="18" y="162" on="1"/>
        <pt x="80" y="162" on="1"/>
        <pt x="120" y="162" on="0"/>
        <pt x="157" y="144" on="1"/>
        <pt x="91" y="212" on="0"/>
        <pt x="47" y="321" on="0"/>
        <pt x="59" y="413" on="1"/>
        <pt x="78" y="562" on="0"/>
        <pt x="240" y="704" on="0"/>
        <pt x="407" y="704" on="1"/>
        <pt x="572" y="704" on="0"/>
        <pt x="713" y="552" on="0"/>
        <pt x="691" y="393" on="1"/>
        <pt x="679" y="306" on="0"/>
        <pt x="610" y="208" on="0"/>
        <pt x="523" y="142" on="1"/>
        <pt x="560" y="162" on="0"/>
        <pt x="604" y="162" on="1"/>
        <pt x="664" y="162" on="1"/>
        <pt x="642" y="0" on="1"/>
        <pt x="337" y="0" on="1"/>
        <pt x="355" y="148" on="1"/>
        <pt x="406" y="192" on="0"/>
        <pt x="450" y="284" on="0"/>
        <pt x="463" y="370" on="1"/>
        <pt x="478" y="478" on="0"/>
        <pt x="451" y="544" on="0"/>
        <pt x="397" y="544" on="1"/>
        <pt x="340" y="544" on="0"/>
        <pt x="294" y="481" on="0"/>
        <pt x="280" y="383" on="1"/>
        <pt x="267" y="303" on="0"/>
        <pt x="282" y="195" on="0"/>
        <pt x="316" y="148" on="1"/>
        <pt x="300" y="0" on="1"/>
        <pt x="-5" y="0" on="1"/>
      </contour>
    </TTGlyph>
    <TTGlyph name="Oslash" xMin="31" yMin="-111" xMax="691" yMax="811">
      <contour>
        <pt x="691" y="735" on="1"/>
        <pt x="629" y="631" on="1"/>
        <pt x="703" y="550" on="0"/>
        <pt x="675" y="337" on="1"/>
        <pt x="661" y="230" on="0"/>
        <pt x="609" y="94" on="0"/>
        <pt x="521" y="16" on="0"/>
        <pt x="407" y="-14" on="0"/>
        <pt x="322" y="-14" on="1"/>
        <pt x="275" y="-14" on="0"/>
        <pt x="243" y="-10" on="1"/>
        <pt x="181" y="-111" on="1"/>
        <pt x="31" y="-34" on="1"/>
        <pt x="85" y="54" on="1"/>
        <pt x="10" y="133" on="0"/>
        <pt x="41" y="353" on="1"/>
        <pt x="56" y="459" on="0"/>
        <pt x="106" y="594" on="0"/>
        <pt x="193" y="673" on="0"/>
        <pt x="305" y="704" on="0"/>
        <pt x="389" y="704" on="1"/>
        <pt x="442" y="704" on="0"/>
        <pt x="474" y="699" on="1"/>
        <pt x="541" y="811" on="1"/>
      </contour>
      <contour>
        <pt x="447" y="353" on="1"/>
        <pt x="464" y="471" on="0"/>
        <pt x="441" y="543" on="0"/>
        <pt x="333" y="543" on="0"/>
        <pt x="288" y="466" on="0"/>
        <pt x="268" y="337" on="1"/>
        <pt x="250" y="218" on="0"/>
        <pt x="273" y="147" on="0"/>
        <pt x="327" y="147" on="1"/>
        <pt x="383" y="147" on="0"/>
        <pt x="427" y="224" on="0"/>
      </contour>
    </TTGlyph>
    <TTGlyph name="Otilde" xMin="41" yMin="-14" xMax="682" yMax="920">
      <contour>
        <pt x="312" y="747" on="1"/>
        <pt x="227" y="755" on="1"/>
        <pt x="225" y="837" on="0"/>
        <pt x="278" y="920" on="0"/>
        <pt x="325" y="920" on="1"/>
        <pt x="355" y="920" on="0"/>
        <pt x="484" y="876" on="0"/>
        <pt x="485" y="876" on="1"/>
        <pt x="509" y="870" on="0"/>
        <pt x="529" y="892" on="0"/>
        <pt x="532" y="919" on="1"/>
        <pt x="617" y="911" on="1"/>
        <pt x="621" y="828" on="0"/>
        <pt x="569" y="746" on="0"/>
        <pt x="522" y="746" on="1"/>
        <pt x="491" y="746" on="0"/>
        <pt x="365" y="789" on="0"/>
        <pt x="358" y="790" on="1"/>
        <pt x="334" y="795" on="0"/>
        <pt x="316" y="774" on="0"/>
      </contour>
      <contour>
        <pt x="389" y="704" on="1"/>
        <pt x="460" y="704" on="0"/>
        <pt x="560" y="683" on="0"/>
        <pt x="638" y="632" on="0"/>
        <pt x="675" y="548" on="0"/>
        <pt x="689" y="423" on="0"/>
        <pt x="675" y="337" on="1"/>
        <pt x="661" y="230" on="0"/>
        <pt x="609" y="94" on="0"/>
        <pt x="521" y="16" on="0"/>
        <pt x="407" y="-14" on="0"/>
        <pt x="322" y="-14" on="1"/>
        <pt x="199" y="-14" on="0"/>
        <pt x="68" y="51" on="0"/>
        <pt x="21" y="211" on="0"/>
        <pt x="41" y="353" on="1"/>
        <pt x="56" y="459" on="0"/>
        <pt x="106" y="594" on="0"/>
        <pt x="193" y="673" on="0"/>
        <pt x="305" y="704" on="0"/>
      </contour>
      <contour>
        <pt x="441" y="543" on="0"/>
        <pt x="333" y="543" on="0"/>
        <pt x="288" y="466" on="0"/>
        <pt x="268" y="337" on="1"/>
        <pt x="250" y="218" on="0"/>
        <pt x="273" y="147" on="0"/>
        <pt x="327" y="147" on="1"/>
        <pt x="383" y="147" on="0"/>
        <pt x="427" y="224" on="0"/>
        <pt x="447" y="353" on="1"/>
        <pt x="464" y="471" on="0"/>
      </contour>
    </TTGlyph>
    <TTGlyph name="P" xMin="11" yMin="0" xMax="645" yMax="700">
      <contour>
        <pt x="11" y="0" on="1"/>
        <pt x="108" y="690" on="1"/>
        <pt x="208" y="700" on="0"/>
        <pt x="386" y="700" on="1"/>
        <pt x="547" y="700" on="0"/>
        <pt x="663" y="596" on="0"/>
        <pt x="645" y="457" on="1"/>
        <pt x="627" y="326" on="0"/>
        <pt x="510" y="232" on="0"/>
        <pt x="372" y="232" on="1"/>
        <pt x="324" y="232" on="0"/>
        <pt x="261" y="239" on="1"/>
        <pt x="227" y="0" on="1"/>
      </contour>
      <contour>
        <pt x="281" y="385" on="1"/>
        <pt x="353" y="385" on="1"/>
        <pt x="394" y="385" on="0"/>
        <pt x="423" y="415" on="0"/>
        <pt x="431" y="473" on="1"/>
        <pt x="437" y="516" on="0"/>
        <pt x="417" y="547" on="0"/>
        <pt x="381" y="547" on="1"/>
        <pt x="304" y="547" on="1"/>
      </contour>
    </TTGlyph>
    <TTGlyph name="Q" xMin="41" yMin="-276" xMax="682" yMax="704">
      <contour>
        <pt x="389" y="704" on="1"/>
        <pt x="460" y="704" on="0"/>
        <pt x="560" y="683" on="0"/>
        <pt x="638" y="632" on="0"/>
        <pt x="675" y="548" on="0"/>
        <pt x="689" y="423" on="0"/>
        <pt x="675" y="337" on="1"/>
        <pt x="661" y="230" on="0"/>
        <pt x="609" y="94" on="0"/>
        <pt x="521" y="16" on="0"/>
        <pt x="407" y="-14" on="0"/>
        <pt x="322" y="-14" on="1"/>
        <pt x="199" y="-14" on="0"/>
        <pt x="68" y="51" on="0"/>
        <pt x="21" y="211" on="0"/>
        <pt x="41" y="353" on="1"/>
        <pt x="56" y="459" on="0"/>
        <pt x="106" y="594" on="0"/>
        <pt x="193" y="673" on="0"/>
        <pt x="305" y="704" on="0"/>
      </contour>
      <contour>
        <pt x="441" y="543" on="0"/>
        <pt x="333" y="543" on="0"/>
        <pt x="288" y="466" on="0"/>
        <pt x="268" y="337" on="1"/>
        <pt x="250" y="218" on="0"/>
        <pt x="273" y="147" on="0"/>
        <pt x="327" y="147" on="1"/>
        <pt x="383" y="147" on="0"/>
        <pt x="427" y="224" on="0"/>
        <pt x="447" y="353" on="1"/>
        <pt x="464" y="471" on="0"/>
      </contour>
      <contour>
        <pt x="181" y="-130" on="1"/>
        <pt x="241" y="-27" on="1"/>
        <pt x="348" y="-69" on="0"/>
        <pt x="560" y="-101" on="1"/>
        <pt x="482" y="-276" on="1"/>
        <pt x="293" y="-220" on="0"/>
      </contour>
    </TTGlyph>
    <TTGlyph name="R" xMin="11" yMin="0" xMax="656" yMax="700">
      <contour>
        <pt x="11" y="0" on="1"/>
        <pt x="108" y="690" on="1"/>
        <pt x="208" y="700" on="0"/>
        <pt x="387" y="700" on="1"/>
        <pt x="538" y="700" on="0"/>
        <pt x="672" y="601" on="0"/>
        <pt x="656" y="482" on="1"/>
        <pt x="647" y="415" on="0"/>
        <pt x="578" y="334" on="0"/>
        <pt x="500" y="326" on="1"/>
        <pt x="499" y="319" on="1"/>
        <pt x="581" y="307" on="0"/>
        <pt x="590" y="208" on="1"/>
        <pt x="616" y="0" on="1"/>
        <pt x="392" y="0" on="1"/>
        <pt x="374" y="209" on="1"/>
        <pt x="373" y="237" on="0"/>
        <pt x="357" y="252" on="0"/>
        <pt x="334" y="252" on="1"/>
        <pt x="258" y="252" on="1"/>
        <pt x="223" y="0" on="1"/>
      </contour>
      <contour>
        <pt x="280" y="405" on="1"/>
        <pt x="355" y="405" on="1"/>
        <pt x="399" y="405" on="0"/>
        <pt x="433" y="435" on="0"/>
        <pt x="440" y="484" on="1"/>
        <pt x="445" y="520" on="0"/>
        <pt x="422" y="547" on="0"/>
        <pt x="385" y="547" on="1"/>
        <pt x="300" y="547" on="1"/>
      </contour>
    </TTGlyph>
    <TTGlyph name="Racute" xMin="11" yMin="0" xMax="656" yMax="962">
      <contour>
        <pt x="347" y="720" on="1"/>
        <pt x="300" y="806" on="1"/>
        <pt x="547" y="962" on="1"/>
        <pt x="613" y="816" on="1"/>
      </contour>
      <contour>
        <pt x="11" y="0" on="1"/>
        <pt x="108" y="690" on="1"/>
        <pt x="208" y="700" on="0"/>
        <pt x="387" y="700" on="1"/>
        <pt x="538" y="700" on="0"/>
        <pt x="672" y="601" on="0"/>
        <pt x="656" y="482" on="1"/>
        <pt x="647" y="415" on="0"/>
        <pt x="578" y="334" on="0"/>
        <pt x="500" y="326" on="1"/>
        <pt x="499" y="319" on="1"/>
        <pt x="581" y="307" on="0"/>
        <pt x="590" y="208" on="1"/>
        <pt x="616" y="0" on="1"/>
        <pt x="392" y="0" on="1"/>
        <pt x="374" y="209" on="1"/>
        <pt x="373" y="237" on="0"/>
        <pt x="357" y="252" on="0"/>
        <pt x="334" y="252" on="1"/>
        <pt x="258" y="252" on="1"/>
        <pt x="223" y="0" on="1"/>
      </contour>
      <contour>
        <pt x="280" y="405" on="1"/>
        <pt x="355" y="405" on="1"/>
        <pt x="399" y="405" on="0"/>
        <pt x="433" y="435" on="0"/>
        <pt x="440" y="484" on="1"/>
        <pt x="445" y="520" on="0"/>
        <pt x="422" y="547" on="0"/>
        <pt x="385" y="547" on="1"/>
        <pt x="300" y="547" on="1"/>
      </contour>
    </TTGlyph>
    <TTGlyph name="Rcaron" xMin="11" yMin="0" xMax="656" yMax="947">
      <contour>
        <pt x="352" y="737" on="1"/>
        <pt x="189" y="881" on="1"/>
        <pt x="247" y="947" on="1"/>
        <pt x="394" y="866" on="1"/>
        <pt x="402" y="866" on="1"/>
        <pt x="573" y="943" on="1"/>
        <pt x="613" y="868" on="1"/>
        <pt x="434" y="737" on="1"/>
      </contour>
      <contour>
        <pt x="11" y="0" on="1"/>
        <pt x="108" y="690" on="1"/>
        <pt x="208" y="700" on="0"/>
        <pt x="387" y="700" on="1"/>
        <pt x="538" y="700" on="0"/>
        <pt x="672" y="601" on="0"/>
        <pt x="656" y="482" on="1"/>
        <pt x="647" y="415" on="0"/>
        <pt x="578" y="334" on="0"/>
        <pt x="500" y="326" on="1"/>
        <pt x="499" y="319" on="1"/>
        <pt x="581" y="307" on="0"/>
        <pt x="590" y="208" on="1"/>
        <pt x="616" y="0" on="1"/>
        <pt x="392" y="0" on="1"/>
        <pt x="374" y="209" on="1"/>
        <pt x="373" y="237" on="0"/>
        <pt x="357" y="252" on="0"/>
        <pt x="334" y="252" on="1"/>
        <pt x="258" y="252" on="1"/>
        <pt x="223" y="0" on="1"/>
      </contour>
      <contour>
        <pt x="280" y="405" on="1"/>
        <pt x="355" y="405" on="1"/>
        <pt x="399" y="405" on="0"/>
        <pt x="433" y="435" on="0"/>
        <pt x="440" y="484" on="1"/>
        <pt x="445" y="520" on="0"/>
        <pt x="422" y="547" on="0"/>
        <pt x="385" y="547" on="1"/>
        <pt x="300" y="547" on="1"/>
      </contour>
    </TTGlyph>
    <TTGlyph name="Rcommaaccent" xMin="11" yMin="-311" xMax="656" yMax="700">
      <contour>
        <pt x="11" y="0" on="1"/>
        <pt x="108" y="690" on="1"/>
        <pt x="208" y="700" on="0"/>
        <pt x="387" y="700" on="1"/>
        <pt x="538" y="700" on="0"/>
        <pt x="672" y="601" on="0"/>
        <pt x="656" y="482" on="1"/>
        <pt x="647" y="415" on="0"/>
        <pt x="578" y="334" on="0"/>
        <pt x="500" y="326" on="1"/>
        <pt x="499" y="319" on="1"/>
        <pt x="581" y="307" on="0"/>
        <pt x="590" y="208" on="1"/>
        <pt x="616" y="0" on="1"/>
        <pt x="392" y="0" on="1"/>
        <pt x="374" y="209" on="1"/>
        <pt x="373" y="237" on="0"/>
        <pt x="357" y="252" on="0"/>
        <pt x="334" y="252" on="1"/>
        <pt x="258" y="252" on="1"/>
        <pt x="223" y="0" on="1"/>
      </contour>
      <contour>
        <pt x="280" y="405" on="1"/>
        <pt x="355" y="405" on="1"/>
        <pt x="399" y="405" on="0"/>
        <pt x="433" y="435" on="0"/>
        <pt x="440" y="484" on="1"/>
        <pt x="445" y="520" on="0"/>
        <pt x="422" y="547" on="0"/>
        <pt x="385" y="547" on="1"/>
        <pt x="300" y="547" on="1"/>
      </contour>
      <contour>
        <pt x="291" y="-48" on="1"/>
        <pt x="323" y="-48" on="1"/>
        <pt x="360" y="-48" on="0"/>
        <pt x="389" y="-75" on="0"/>
        <pt x="384" y="-105" on="1"/>
        <pt x="376" y="-153" on="1"/>
        <pt x="369" y="-193" on="0"/>
        <pt x="323" y="-283" on="0"/>
        <pt x="294" y="-311" on="1"/>
        <pt x="217" y="-287" on="1"/>
        <pt x="232" y="-259" on="0"/>
        <pt x="256" y="-184" on="1"/>
        <pt x="227" y="-185" on="0"/>
        <pt x="205" y="-161" on="0"/>
        <pt x="209" y="-136" on="1"/>
        <pt x="215" y="-101" on="1"/>
        <pt x="220" y="-71" on="0"/>
        <pt x="255" y="-48" on="0"/>
      </contour>
    </TTGlyph>
    <TTGlyph name="S" xMin="4" yMin="-14" xMax="604" yMax="704">
      <contour>
        <pt x="314" y="235" on="1"/>
        <pt x="188" y="297" on="1"/>
        <pt x="106" y="337" on="0"/>
        <pt x="53" y="439" on="0"/>
        <pt x="61" y="509" on="1"/>
        <pt x="74" y="620" on="0"/>
        <pt x="211" y="704" on="0"/>
        <pt x="357" y="704" on="1"/>
        <pt x="497" y="704" on="0"/>
        <pt x="604" y="668" on="1"/>
        <pt x="585" y="530" on="1"/>
        <pt x="463" y="532" on="0"/>
        <pt x="343" y="532" on="1"/>
        <pt x="308" y="532" on="0"/>
        <pt x="279" y="520" on="0"/>
        <pt x="275" y="504" on="1"/>
        <pt x="273" y="492" on="0"/>
        <pt x="290" y="473" on="0"/>
        <pt x="319" y="459" on="1"/>
        <pt x="435" y="404" on="1"/>
        <pt x="517" y="365" on="0"/>
        <pt x="570" y="269" on="0"/>
        <pt x="561" y="189" on="1"/>
        <pt x="548" y="71" on="0"/>
        <pt x="424" y="-14" on="0"/>
        <pt x="273" y="-14" on="1"/>
        <pt x="140" y="-14" on="0"/>
        <pt x="4" y="21" on="1"/>
        <pt x="24" y="172" on="1"/>
        <pt x="217" y="167" on="0"/>
        <pt x="307" y="167" on="0"/>
        <pt x="343" y="180" on="0"/>
        <pt x="347" y="196" on="1"/>
        <pt x="350" y="208" on="0"/>
        <pt x="336" y="224" on="0"/>
      </contour>
    </TTGlyph>
    <TTGlyph name="Sacute" xMin="4" yMin="-14" xMax="604" yMax="962">
      <contour>
        <pt x="586" y="816" on="1"/>
        <pt x="320" y="720" on="1"/>
        <pt x="273" y="806" on="1"/>
        <pt x="520" y="962" on="1"/>
      </contour>
      <contour>
        <pt x="314" y="235" on="1"/>
        <pt x="188" y="297" on="1"/>
        <pt x="106" y="337" on="0"/>
        <pt x="53" y="439" on="0"/>
        <pt x="61" y="509" on="1"/>
        <pt x="74" y="620" on="0"/>
        <pt x="211" y="704" on="0"/>
        <pt x="357" y="704" on="1"/>
        <pt x="497" y="704" on="0"/>
        <pt x="604" y="668" on="1"/>
        <pt x="585" y="530" on="1"/>
        <pt x="463" y="532" on="0"/>
        <pt x="343" y="532" on="1"/>
        <pt x="308" y="532" on="0"/>
        <pt x="279" y="520" on="0"/>
        <pt x="275" y="504" on="1"/>
        <pt x="273" y="492" on="0"/>
        <pt x="290" y="473" on="0"/>
        <pt x="319" y="459" on="1"/>
        <pt x="435" y="404" on="1"/>
        <pt x="517" y="365" on="0"/>
        <pt x="570" y="269" on="0"/>
        <pt x="561" y="189" on="1"/>
        <pt x="548" y="71" on="0"/>
        <pt x="424" y="-14" on="0"/>
        <pt x="273" y="-14" on="1"/>
        <pt x="140" y="-14" on="0"/>
        <pt x="4" y="21" on="1"/>
        <pt x="24" y="172" on="1"/>
        <pt x="217" y="167" on="0"/>
        <pt x="307" y="167" on="0"/>
        <pt x="343" y="180" on="0"/>
        <pt x="347" y="196" on="1"/>
        <pt x="350" y="208" on="0"/>
        <pt x="336" y="224" on="0"/>
      </contour>
    </TTGlyph>
    <TTGlyph name="Scaron" xMin="4" yMin="-14" xMax="604" yMax="947">
      <contour>
        <pt x="586" y="868" on="1"/>
        <pt x="407" y="737" on="1"/>
        <pt x="325" y="737" on="1"/>
        <pt x="162" y="881" on="1"/>
        <pt x="220" y="947" on="1"/>
        <pt x="367" y="866" on="1"/>
        <pt x="375" y="866" on="1"/>
        <pt x="546" y="943" on="1"/>
      </contour>
      <contour>
        <pt x="314" y="235" on="1"/>
        <pt x="188" y="297" on="1"/>
        <pt x="106" y="337" on="0"/>
        <pt x="53" y="439" on="0"/>
        <pt x="61" y="509" on="1"/>
        <pt x="74" y="620" on="0"/>
        <pt x="211" y="704" on="0"/>
        <pt x="357" y="704" on="1"/>
        <pt x="497" y="704" on="0"/>
        <pt x="604" y="668" on="1"/>
        <pt x="585" y="530" on="1"/>
        <pt x="463" y="532" on="0"/>
        <pt x="343" y="532" on="1"/>
        <pt x="308" y="532" on="0"/>
        <pt x="279" y="520" on="0"/>
        <pt x="275" y="504" on="1"/>
        <pt x="273" y="492" on="0"/>
        <pt x="290" y="473" on="0"/>
        <pt x="319" y="459" on="1"/>
        <pt x="435" y="404" on="1"/>
        <pt x="517" y="365" on="0"/>
        <pt x="570" y="269" on="0"/>
        <pt x="561" y="189" on="1"/>
        <pt x="548" y="71" on="0"/>
        <pt x="424" y="-14" on="0"/>
        <pt x="273" y="-14" on="1"/>
        <pt x="140" y="-14" on="0"/>
        <pt x="4" y="21" on="1"/>
        <pt x="24" y="172" on="1"/>
        <pt x="217" y="167" on="0"/>
        <pt x="307" y="167" on="0"/>
        <pt x="343" y="180" on="0"/>
        <pt x="347" y="196" on="1"/>
        <pt x="350" y="208" on="0"/>
        <pt x="336" y="224" on="0"/>
      </contour>
    </TTGlyph>
    <TTGlyph name="Scedilla" xMin="4" yMin="-278" xMax="604" yMax="704">
      <contour>
        <pt x="314" y="235" on="1"/>
        <pt x="188" y="297" on="1"/>
        <pt x="106" y="337" on="0"/>
        <pt x="53" y="439" on="0"/>
        <pt x="61" y="509" on="1"/>
        <pt x="74" y="620" on="0"/>
        <pt x="211" y="704" on="0"/>
        <pt x="357" y="704" on="1"/>
        <pt x="497" y="704" on="0"/>
        <pt x="604" y="668" on="1"/>
        <pt x="585" y="530" on="1"/>
        <pt x="463" y="532" on="0"/>
        <pt x="343" y="532" on="1"/>
        <pt x="308" y="532" on="0"/>
        <pt x="279" y="520" on="0"/>
        <pt x="275" y="504" on="1"/>
        <pt x="273" y="492" on="0"/>
        <pt x="290" y="473" on="0"/>
        <pt x="319" y="459" on="1"/>
        <pt x="435" y="404" on="1"/>
        <pt x="517" y="365" on="0"/>
        <pt x="570" y="269" on="0"/>
        <pt x="561" y="189" on="1"/>
        <pt x="548" y="71" on="0"/>
        <pt x="424" y="-14" on="0"/>
        <pt x="273" y="-14" on="1"/>
        <pt x="140" y="-14" on="0"/>
        <pt x="4" y="21" on="1"/>
        <pt x="24" y="172" on="1"/>
        <pt x="217" y="167" on="0"/>
        <pt x="307" y="167" on="0"/>
        <pt x="343" y="180" on="0"/>
        <pt x="347" y="196" on="1"/>
        <pt x="350" y="208" on="0"/>
        <pt x="336" y="224" on="0"/>
      </contour>
      <contour>
        <pt x="165" y="-139" on="1"/>
        <pt x="183" y="-67" on="1"/>
        <pt x="264" y="-52" on="0"/>
        <pt x="365" y="-82" on="0"/>
        <pt x="355" y="-140" on="1"/>
        <pt x="341" y="-220" on="0"/>
        <pt x="203" y="-291" on="0"/>
        <pt x="107" y="-278" on="1"/>
        <pt x="128" y="-201" on="1"/>
        <pt x="217" y="-201" on="0"/>
        <pt x="227" y="-155" on="1"/>
        <pt x="227" y="-152" on="0"/>
        <pt x="228" y="-147" on="0"/>
        <pt x="223" y="-143" on="0"/>
        <pt x="216" y="-141" on="0"/>
        <pt x="201" y="-140" on="0"/>
        <pt x="180" y="-139" on="0"/>
      </contour>
    </TTGlyph>
    <TTGlyph name="Scommaaccent" xMin="4" yMin="-311" xMax="604" yMax="704">
      <contour>
        <pt x="314" y="235" on="1"/>
        <pt x="188" y="297" on="1"/>
        <pt x="106" y="337" on="0"/>
        <pt x="53" y="439" on="0"/>
        <pt x="61" y="509" on="1"/>
        <pt x="74" y="620" on="0"/>
        <pt x="211" y="704" on="0"/>
        <pt x="357" y="704" on="1"/>
        <pt x="497" y="704" on="0"/>
        <pt x="604" y="668" on="1"/>
        <pt x="585" y="530" on="1"/>
        <pt x="463" y="532" on="0"/>
        <pt x="343" y="532" on="1"/>
        <pt x="308" y="532" on="0"/>
        <pt x="279" y="520" on="0"/>
        <pt x="275" y="504" on="1"/>
        <pt x="273" y="492" on="0"/>
        <pt x="290" y="473" on="0"/>
        <pt x="319" y="459" on="1"/>
        <pt x="435" y="404" on="1"/>
        <pt x="517" y="365" on="0"/>
        <pt x="570" y="269" on="0"/>
        <pt x="561" y="189" on="1"/>
        <pt x="548" y="71" on="0"/>
        <pt x="424" y="-14" on="0"/>
        <pt x="273" y="-14" on="1"/>
        <pt x="140" y="-14" on="0"/>
        <pt x="4" y="21" on="1"/>
        <pt x="24" y="172" on="1"/>
        <pt x="217" y="167" on="0"/>
        <pt x="307" y="167" on="0"/>
        <pt x="343" y="180" on="0"/>
        <pt x="347" y="196" on="1"/>
        <pt x="350" y="208" on="0"/>
        <pt x="336" y="224" on="0"/>
      </contour>
      <contour>
        <pt x="247" y="-48" on="1"/>
        <pt x="279" y="-48" on="1"/>
        <pt x="316" y="-48" on="0"/>
        <pt x="345" y="-75" on="0"/>
        <pt x="340" y="-105" on="1"/>
        <pt x="332" y="-153" on="1"/>
        <pt x="325" y="-193" on="0"/>
        <pt x="279" y="-283" on="0"/>
        <pt x="250" y="-311" on="1"/>
        <pt x="173" y="-287" on="1"/>
        <pt x="188" y="-259" on="0"/>
        <pt x="212" y="-184" on="1"/>
        <pt x="183" y="-185" on="0"/>
        <pt x="161" y="-161" on="0"/>
        <pt x="165" y="-136" on="1"/>
        <pt x="171" y="-101" on="1"/>
        <pt x="176" y="-71" on="0"/>
        <pt x="211" y="-48" on="0"/>
      </contour>
    </TTGlyph>
    <TTGlyph name="T" xMin="43" yMin="0" xMax="664" yMax="690">
      <contour>
        <pt x="641" y="528" on="1"/>
        <pt x="450" y="528" on="1"/>
        <pt x="376" y="0" on="1"/>
        <pt x="159" y="0" on="1"/>
        <pt x="233" y="528" on="1"/>
        <pt x="43" y="528" on="1"/>
        <pt x="66" y="690" on="1"/>
        <pt x="664" y="690" on="1"/>
      </contour>
    </TTGlyph>
    <TTGlyph name="Tbar" xMin="43" yMin="0" xMax="664" yMax="690">
      <contour>
        <pt x="450" y="528" on="1"/>
        <pt x="432" y="401" on="1"/>
        <pt x="553" y="401" on="1"/>
        <pt x="540" y="307" on="1"/>
        <pt x="419" y="307" on="1"/>
        <pt x="376" y="0" on="1"/>
        <pt x="159" y="0" on="1"/>
        <pt x="202" y="307" on="1"/>
        <pt x="90" y="307" on="1"/>
        <pt x="103" y="401" on="1"/>
        <pt x="215" y="401" on="1"/>
        <pt x="233" y="528" on="1"/>
        <pt x="43" y="528" on="1"/>
        <pt x="66" y="690" on="1"/>
        <pt x="664" y="690" on="1"/>
        <pt x="641" y="528" on="1"/>
      </contour>
    </TTGlyph>
    <TTGlyph name="Tcaron" xMin="43" yMin="0" xMax="664" yMax="947">
      <contour>
        <pt x="329" y="737" on="1"/>
        <pt x="166" y="881" on="1"/>
        <pt x="224" y="947" on="1"/>
        <pt x="371" y="866" on="1"/>
        <pt x="379" y="866" on="1"/>
        <pt x="550" y="943" on="1"/>
        <pt x="590" y="868" on="1"/>
        <pt x="411" y="737" on="1"/>
      </contour>
      <contour>
        <pt x="641" y="528" on="1"/>
        <pt x="450" y="528" on="1"/>
        <pt x="376" y="0" on="1"/>
        <pt x="159" y="0" on="1"/>
        <pt x="233" y="528" on="1"/>
        <pt x="43" y="528" on="1"/>
        <pt x="66" y="690" on="1"/>
        <pt x="664" y="690" on="1"/>
      </contour>
    </TTGlyph>
    <TTGlyph name="Tcedilla" xMin="43" yMin="-254" xMax="664" yMax="690">
      <contour>
        <pt x="641" y="528" on="1"/>
        <pt x="450" y="528" on="1"/>
        <pt x="376" y="0" on="1"/>
        <pt x="159" y="0" on="1"/>
        <pt x="233" y="528" on="1"/>
        <pt x="43" y="528" on="1"/>
        <pt x="66" y="690" on="1"/>
        <pt x="664" y="690" on="1"/>
      </contour>
      <contour>
        <pt x="166" y="-115" on="1"/>
        <pt x="184" y="-43" on="1"/>
        <pt x="265" y="-28" on="0"/>
        <pt x="366" y="-58" on="0"/>
        <pt x="356" y="-116" on="1"/>
        <pt x="342" y="-196" on="0"/>
        <pt x="204" y="-267" on="0"/>
        <pt x="108" y="-254" on="1"/>
        <pt x="129" y="-177" on="1"/>
        <pt x="218" y="-177" on="0"/>
        <pt x="228" y="-131" on="1"/>
        <pt x="228" y="-128" on="0"/>
        <pt x="229" y="-123" on="0"/>
        <pt x="224" y="-119" on="0"/>
        <pt x="217" y="-117" on="0"/>
        <pt x="202" y="-116" on="0"/>
        <pt x="181" y="-115" on="0"/>
      </contour>
    </TTGlyph>
    <TTGlyph name="Thorn" xMin="12" yMin="0" xMax="626" yMax="690">
      <contour>
        <pt x="310" y="578" on="1"/>
        <pt x="367" y="578" on="1"/>
        <pt x="527" y="578" on="0"/>
        <pt x="644" y="473" on="0"/>
        <pt x="626" y="335" on="1"/>
        <pt x="608" y="204" on="0"/>
        <pt x="492" y="110" on="0"/>
        <pt x="355" y="110" on="1"/>
        <pt x="308" y="110" on="0"/>
        <pt x="245" y="117" on="1"/>
        <pt x="229" y="0" on="1"/>
        <pt x="12" y="0" on="1"/>
        <pt x="109" y="690" on="1"/>
        <pt x="326" y="690" on="1"/>
      </contour>
      <contour>
        <pt x="266" y="263" on="1"/>
        <pt x="336" y="263" on="1"/>
        <pt x="375" y="263" on="0"/>
        <pt x="403" y="293" on="0"/>
        <pt x="411" y="351" on="1"/>
        <pt x="417" y="394" on="0"/>
        <pt x="399" y="425" on="0"/>
        <pt x="364" y="425" on="1"/>
        <pt x="289" y="425" on="1"/>
      </contour>
    </TTGlyph>
    <TTGlyph name="U" xMin="45" yMin="-14" xMax="710" yMax="690">
      <contour>
        <pt x="710" y="690" on="1"/>
        <pt x="651" y="281" on="1"/>
        <pt x="628" y="115" on="0"/>
        <pt x="486" y="-14" on="0"/>
        <pt x="322" y="-14" on="1"/>
        <pt x="161" y="-14" on="0"/>
        <pt x="24" y="128" on="0"/>
        <pt x="45" y="289" on="1"/>
        <pt x="103" y="690" on="1"/>
        <pt x="319" y="690" on="1"/>
        <pt x="261" y="281" on="1"/>
        <pt x="248" y="202" on="0"/>
        <pt x="273" y="147" on="0"/>
        <pt x="327" y="147" on="1"/>
        <pt x="382" y="147" on="0"/>
        <pt x="422" y="202" on="0"/>
        <pt x="436" y="289" on="1"/>
        <pt x="493" y="690" on="1"/>
      </contour>
    </TTGlyph>
    <TTGlyph name="Uacute" xMin="45" yMin="-14" xMax="710" yMax="962">
      <contour>
        <pt x="633" y="816" on="1"/>
        <pt x="367" y="720" on="1"/>
        <pt x="320" y="806" on="1"/>
        <pt x="567" y="962" on="1"/>
      </contour>
      <contour>
        <pt x="710" y="690" on="1"/>
        <pt x="651" y="281" on="1"/>
        <pt x="628" y="115" on="0"/>
        <pt x="486" y="-14" on="0"/>
        <pt x="322" y="-14" on="1"/>
        <pt x="161" y="-14" on="0"/>
        <pt x="24" y="128" on="0"/>
        <pt x="45" y="289" on="1"/>
        <pt x="103" y="690" on="1"/>
        <pt x="319" y="690" on="1"/>
        <pt x="261" y="281" on="1"/>
        <pt x="248" y="202" on="0"/>
        <pt x="273" y="147" on="0"/>
        <pt x="327" y="147" on="1"/>
        <pt x="382" y="147" on="0"/>
        <pt x="422" y="202" on="0"/>
        <pt x="436" y="289" on="1"/>
        <pt x="493" y="690" on="1"/>
      </contour>
    </TTGlyph>
    <TTGlyph name="Ucircumflex" xMin="45" yMin="-14" xMax="710" yMax="927">
      <contour>
        <pt x="623" y="787" on="1"/>
        <pt x="568" y="719" on="1"/>
        <pt x="421" y="813" on="1"/>
        <pt x="413" y="813" on="1"/>
        <pt x="249" y="719" on="1"/>
        <pt x="201" y="791" on="1"/>
        <pt x="351" y="927" on="1"/>
        <pt x="492" y="927" on="1"/>
      </contour>
      <contour>
        <pt x="710" y="690" on="1"/>
        <pt x="651" y="281" on="1"/>
        <pt x="628" y="115" on="0"/>
        <pt x="486" y="-14" on="0"/>
        <pt x="322" y="-14" on="1"/>
        <pt x="161" y="-14" on="0"/>
        <pt x="24" y="128" on="0"/>
        <pt x="45" y="289" on="1"/>
        <pt x="103" y="690" on="1"/>
        <pt x="319" y="690" on="1"/>
        <pt x="261" y="281" on="1"/>
        <pt x="248" y="202" on="0"/>
        <pt x="273" y="147" on="0"/>
        <pt x="327" y="147" on="1"/>
        <pt x="382" y="147" on="0"/>
        <pt x="422" y="202" on="0"/>
        <pt x="436" y="289" on="1"/>
        <pt x="493" y="690" on="1"/>
      </contour>
    </TTGlyph>
    <TTGlyph name="Udieresis" xMin="45" yMin="-14" xMax="710" yMax="904">
      <contour>
        <pt x="300" y="904" on="1"/>
        <pt x="377" y="904" on="1"/>
        <pt x="413" y="904" on="0"/>
        <pt x="407" y="871" on="1"/>
        <pt x="396" y="795" on="1"/>
        <pt x="392" y="763" on="0"/>
        <pt x="361" y="763" on="1"/>
        <pt x="280" y="763" on="1"/>
        <pt x="244" y="763" on="0"/>
        <pt x="250" y="796" on="1"/>
        <pt x="261" y="869" on="1"/>
        <pt x="265" y="904" on="0"/>
      </contour>
      <contour>
        <pt x="486" y="904" on="1"/>
        <pt x="566" y="904" on="1"/>
        <pt x="602" y="904" on="0"/>
        <pt x="596" y="871" on="1"/>
        <pt x="585" y="796" on="1"/>
        <pt x="583" y="778" on="0"/>
        <pt x="567" y="763" on="0"/>
        <pt x="550" y="763" on="1"/>
        <pt x="469" y="763" on="1"/>
        <pt x="433" y="763" on="0"/>
        <pt x="439" y="796" on="1"/>
        <pt x="450" y="870" on="1"/>
        <pt x="455" y="904" on="0"/>
      </contour>
      <contour>
        <pt x="710" y="690" on="1"/>
        <pt x="651" y="281" on="1"/>
        <pt x="628" y="115" on="0"/>
        <pt x="486" y="-14" on="0"/>
        <pt x="322" y="-14" on="1"/>
        <pt x="161" y="-14" on="0"/>
        <pt x="24" y="128" on="0"/>
        <pt x="45" y="289" on="1"/>
        <pt x="103" y="690" on="1"/>
        <pt x="319" y="690" on="1"/>
        <pt x="261" y="281" on="1"/>
        <pt x="248" y="202" on="0"/>
        <pt x="273" y="147" on="0"/>
        <pt x="327" y="147" on="1"/>
        <pt x="382" y="147" on="0"/>
        <pt x="422" y="202" on="0"/>
        <pt x="436" y="289" on="1"/>
        <pt x="493" y="690" on="1"/>
      </contour>
    </TTGlyph>
    <TTGlyph name="Ugrave" xMin="45" yMin="-14" xMax="710" yMax="956">
      <contour>
        <pt x="522" y="806" on="1"/>
        <pt x="455" y="720" on="1"/>
        <pt x="207" y="826" on="1"/>
        <pt x="287" y="956" on="1"/>
      </contour>
      <contour>
        <pt x="710" y="690" on="1"/>
        <pt x="651" y="281" on="1"/>
        <pt x="628" y="115" on="0"/>
        <pt x="486" y="-14" on="0"/>
        <pt x="322" y="-14" on="1"/>
        <pt x="161" y="-14" on="0"/>
        <pt x="24" y="128" on="0"/>
        <pt x="45" y="289" on="1"/>
        <pt x="103" y="690" on="1"/>
        <pt x="319" y="690" on="1"/>
        <pt x="261" y="281" on="1"/>
        <pt x="248" y="202" on="0"/>
        <pt x="273" y="147" on="0"/>
        <pt x="327" y="147" on="1"/>
        <pt x="382" y="147" on="0"/>
        <pt x="422" y="202" on="0"/>
        <pt x="436" y="289" on="1"/>
        <pt x="493" y="690" on="1"/>
      </contour>
    </TTGlyph>
    <TTGlyph name="Uhungarumlaut" xMin="45" yMin="-14" xMax="710" yMax="968">
      <contour>
        <pt x="482" y="884" on="1"/>
        <pt x="299" y="723" on="1"/>
        <pt x="214" y="775" on="1"/>
        <pt x="361" y="968" on="1"/>
      </contour>
      <contour>
        <pt x="697" y="884" on="1"/>
        <pt x="513" y="723" on="1"/>
        <pt x="429" y="774" on="1"/>
        <pt x="576" y="968" on="1"/>
      </contour>
      <contour>
        <pt x="710" y="690" on="1"/>
        <pt x="651" y="281" on="1"/>
        <pt x="628" y="115" on="0"/>
        <pt x="486" y="-14" on="0"/>
        <pt x="322" y="-14" on="1"/>
        <pt x="161" y="-14" on="0"/>
        <pt x="24" y="128" on="0"/>
        <pt x="45" y="289" on="1"/>
        <pt x="103" y="690" on="1"/>
        <pt x="319" y="690" on="1"/>
        <pt x="261" y="281" on="1"/>
        <pt x="248" y="202" on="0"/>
        <pt x="273" y="147" on="0"/>
        <pt x="327" y="147" on="1"/>
        <pt x="382" y="147" on="0"/>
        <pt x="422" y="202" on="0"/>
        <pt x="436" y="289" on="1"/>
        <pt x="493" y="690" on="1"/>
      </contour>
    </TTGlyph>
    <TTGlyph name="Umacron" xMin="45" yMin="-14" xMax="710" yMax="895">
      <contour>
        <pt x="573" y="772" on="1"/>
        <pt x="253" y="772" on="1"/>
        <pt x="270" y="895" on="1"/>
        <pt x="590" y="895" on="1"/>
      </contour>
      <contour>
        <pt x="710" y="690" on="1"/>
        <pt x="651" y="281" on="1"/>
        <pt x="628" y="115" on="0"/>
        <pt x="486" y="-14" on="0"/>
        <pt x="322" y="-14" on="1"/>
        <pt x="161" y="-14" on="0"/>
        <pt x="24" y="128" on="0"/>
        <pt x="45" y="289" on="1"/>
        <pt x="103" y="690" on="1"/>
        <pt x="319" y="690" on="1"/>
        <pt x="261" y="281" on="1"/>
        <pt x="248" y="202" on="0"/>
        <pt x="273" y="147" on="0"/>
        <pt x="327" y="147" on="1"/>
        <pt x="382" y="147" on="0"/>
        <pt x="422" y="202" on="0"/>
        <pt x="436" y="289" on="1"/>
        <pt x="493" y="690" on="1"/>
      </contour>
    </TTGlyph>
    <TTGlyph name="Uogonek" xMin="45" yMin="-219" xMax="710" yMax="690">
      <contour>
        <pt x="710" y="690" on="1"/>
        <pt x="651" y="281" on="1"/>
        <pt x="628" y="122" on="0"/>
        <pt x="498" y="-9" on="0"/>
        <pt x="350" y="-14" on="1"/>
        <pt x="311" y="-56" on="0"/>
        <pt x="297" y="-100" on="1"/>
        <pt x="292" y="-117" on="0"/>
        <pt x="306" y="-128" on="0"/>
        <pt x="329" y="-124" on="1"/>
        <pt x="344" y="-198" on="1"/>
        <pt x="295" y="-216" on="0"/>
        <pt x="214" y="-222" on="0"/>
        <pt x="168" y="-202" on="0"/>
        <pt x="138" y="-168" on="0"/>
        <pt x="141" y="-124" on="0"/>
        <pt x="150" y="-102" on="1"/>
        <pt x="175" y="-55" on="0"/>
        <pt x="251" y="-10" on="1"/>
        <pt x="129" y="4" on="0"/>
        <pt x="27" y="147" on="0"/>
        <pt x="45" y="289" on="1"/>
        <pt x="103" y="690" on="1"/>
        <pt x="319" y="690" on="1"/>
        <pt x="261" y="281" on="1"/>
        <pt x="248" y="202" on="0"/>
        <pt x="273" y="147" on="0"/>
        <pt x="327" y="147" on="1"/>
        <pt x="382" y="147" on="0"/>
        <pt x="422" y="202" on="0"/>
        <pt x="436" y="289" on="1"/>
        <pt x="493" y="690" on="1"/>
      </contour>
    </TTGlyph>
    <TTGlyph name="Uring" xMin="45" yMin="-14" xMax="710" yMax="959">
      <contour>
        <pt x="431" y="959" on="1"/>
        <pt x="487" y="959" on="0"/>
        <pt x="561" y="883" on="0"/>
        <pt x="554" y="830" on="1"/>
        <pt x="548" y="782" on="0"/>
        <pt x="476" y="717" on="0"/>
        <pt x="420" y="717" on="1"/>
        <pt x="363" y="717" on="0"/>
        <pt x="291" y="793" on="0"/>
        <pt x="298" y="846" on="1"/>
        <pt x="304" y="894" on="0"/>
        <pt x="376" y="959" on="0"/>
      </contour>
      <contour>
        <pt x="428" y="884" on="1"/>
        <pt x="409" y="884" on="0"/>
        <pt x="383" y="860" on="0"/>
        <pt x="381" y="841" on="1"/>
        <pt x="379" y="819" on="0"/>
        <pt x="401" y="792" on="0"/>
        <pt x="443" y="792" on="0"/>
        <pt x="470" y="819" on="0"/>
        <pt x="471" y="841" on="1"/>
        <pt x="472" y="860" on="0"/>
        <pt x="448" y="884" on="0"/>
      </contour>
      <contour>
        <pt x="710" y="690" on="1"/>
        <pt x="651" y="281" on="1"/>
        <pt x="628" y="115" on="0"/>
        <pt x="486" y="-14" on="0"/>
        <pt x="322" y="-14" on="1"/>
        <pt x="161" y="-14" on="0"/>
        <pt x="24" y="128" on="0"/>
        <pt x="45" y="289" on="1"/>
        <pt x="103" y="690" on="1"/>
        <pt x="319" y="690" on="1"/>
        <pt x="261" y="281" on="1"/>
        <pt x="248" y="202" on="0"/>
        <pt x="273" y="147" on="0"/>
        <pt x="327" y="147" on="1"/>
        <pt x="382" y="147" on="0"/>
        <pt x="422" y="202" on="0"/>
        <pt x="436" y="289" on="1"/>
        <pt x="493" y="690" on="1"/>
      </contour>
    </TTGlyph>
    <TTGlyph name="V" xMin="54" yMin="0" xMax="723" yMax="690">
      <contour>
        <pt x="723" y="690" on="1"/>
        <pt x="466" y="54" on="1"/>
        <pt x="445" y="0" on="0"/>
        <pt x="390" y="0" on="1"/>
        <pt x="201" y="0" on="1"/>
        <pt x="174" y="0" on="0"/>
        <pt x="135" y="35" on="0"/>
        <pt x="132" y="62" on="1"/>
        <pt x="54" y="690" on="1"/>
        <pt x="272" y="690" on="1"/>
        <pt x="296" y="249" on="1"/>
        <pt x="298" y="218" on="0"/>
        <pt x="296" y="159" on="1"/>
        <pt x="322" y="159" on="1"/>
        <pt x="329" y="200" on="0"/>
        <pt x="345" y="245" on="1"/>
        <pt x="495" y="690" on="1"/>
      </contour>
    </TTGlyph>
    <TTGlyph name="W" xMin="74" yMin="0" xMax="1030" yMax="690">
      <contour>
        <pt x="1030" y="690" on="1"/>
        <pt x="856" y="54" on="1"/>
        <pt x="842" y="0" on="0"/>
        <pt x="780" y="0" on="1"/>
        <pt x="598" y="0" on="1"/>
        <pt x="570" y="0" on="0"/>
        <pt x="528" y="36" on="0"/>
        <pt x="529" y="62" on="1"/>
        <pt x="536" y="431" on="1"/>
        <pt x="537" y="455" on="0"/>
        <pt x="541" y="536" on="1"/>
        <pt x="523" y="536" on="1"/>
        <pt x="516" y="486" on="0"/>
        <pt x="503" y="434" on="1"/>
        <pt x="404" y="54" on="1"/>
        <pt x="390" y="0" on="0"/>
        <pt x="328" y="0" on="1"/>
        <pt x="141" y="0" on="1"/>
        <pt x="113" y="0" on="0"/>
        <pt x="72" y="36" on="0"/>
        <pt x="74" y="62" on="1"/>
        <pt x="74" y="690" on="1"/>
        <pt x="287" y="690" on="1"/>
        <pt x="260" y="263" on="1"/>
        <pt x="259" y="243" on="0"/>
        <pt x="253" y="162" on="0"/>
        <pt x="252" y="148" on="1"/>
        <pt x="269" y="148" on="1"/>
        <pt x="282" y="218" on="0"/>
        <pt x="297" y="272" on="1"/>
        <pt x="393" y="630" on="1"/>
        <pt x="409" y="690" on="0"/>
        <pt x="470" y="690" on="1"/>
        <pt x="621" y="690" on="1"/>
        <pt x="650" y="690" on="0"/>
        <pt x="688" y="651" on="0"/>
        <pt x="688" y="622" on="1"/>
        <pt x="688" y="262" on="1"/>
        <pt x="688" y="220" on="0"/>
        <pt x="686" y="148" on="1"/>
        <pt x="704" y="148" on="1"/>
        <pt x="710" y="207" on="0"/>
        <pt x="725" y="269" on="1"/>
        <pt x="817" y="690" on="1"/>
      </contour>
    </TTGlyph>
    <TTGlyph name="Wacute" xMin="74" yMin="0" xMax="1030" yMax="962">
      <contour>
        <pt x="776" y="816" on="1"/>
        <pt x="510" y="720" on="1"/>
        <pt x="463" y="806" on="1"/>
        <pt x="710" y="962" on="1"/>
      </contour>
      <contour>
        <pt x="1030" y="690" on="1"/>
        <pt x="856" y="54" on="1"/>
        <pt x="842" y="0" on="0"/>
        <pt x="780" y="0" on="1"/>
        <pt x="598" y="0" on="1"/>
        <pt x="570" y="0" on="0"/>
        <pt x="528" y="36" on="0"/>
        <pt x="529" y="62" on="1"/>
        <pt x="536" y="431" on="1"/>
        <pt x="537" y="455" on="0"/>
        <pt x="541" y="536" on="1"/>
        <pt x="523" y="536" on="1"/>
        <pt x="516" y="486" on="0"/>
        <pt x="503" y="434" on="1"/>
        <pt x="404" y="54" on="1"/>
        <pt x="390" y="0" on="0"/>
        <pt x="328" y="0" on="1"/>
        <pt x="141" y="0" on="1"/>
        <pt x="113" y="0" on="0"/>
        <pt x="72" y="36" on="0"/>
        <pt x="74" y="62" on="1"/>
        <pt x="74" y="690" on="1"/>
        <pt x="287" y="690" on="1"/>
        <pt x="260" y="263" on="1"/>
        <pt x="259" y="243" on="0"/>
        <pt x="253" y="162" on="0"/>
        <pt x="252" y="148" on="1"/>
        <pt x="269" y="148" on="1"/>
        <pt x="282" y="218" on="0"/>
        <pt x="297" y="272" on="1"/>
        <pt x="393" y="630" on="1"/>
        <pt x="409" y="690" on="0"/>
        <pt x="470" y="690" on="1"/>
        <pt x="621" y="690" on="1"/>
        <pt x="650" y="690" on="0"/>
        <pt x="688" y="651" on="0"/>
        <pt x="688" y="622" on="1"/>
        <pt x="688" y="262" on="1"/>
        <pt x="688" y="220" on="0"/>
        <pt x="686" y="148" on="1"/>
        <pt x="704" y="148" on="1"/>
        <pt x="710" y="207" on="0"/>
        <pt x="725" y="269" on="1"/>
        <pt x="817" y="690" on="1"/>
      </contour>
    </TTGlyph>
    <TTGlyph name="Wcircumflex" xMin="74" yMin="0" xMax="1030" yMax="927">
      <contour>
        <pt x="766" y="787" on="1"/>
        <pt x="711" y="719" on="1"/>
        <pt x="564" y="813" on="1"/>
        <pt x="556" y="813" on="1"/>
        <pt x="392" y="719" on="1"/>
        <pt x="344" y="791" on="1"/>
        <pt x="494" y="927" on="1"/>
        <pt x="635" y="927" on="1"/>
      </contour>
      <contour>
        <pt x="1030" y="690" on="1"/>
        <pt x="856" y="54" on="1"/>
        <pt x="842" y="0" on="0"/>
        <pt x="780" y="0" on="1"/>
        <pt x="598" y="0" on="1"/>
        <pt x="570" y="0" on="0"/>
        <pt x="528" y="36" on="0"/>
        <pt x="529" y="62" on="1"/>
        <pt x="536" y="431" on="1"/>
        <pt x="537" y="455" on="0"/>
        <pt x="541" y="536" on="1"/>
        <pt x="523" y="536" on="1"/>
        <pt x="516" y="486" on="0"/>
        <pt x="503" y="434" on="1"/>
        <pt x="404" y="54" on="1"/>
        <pt x="390" y="0" on="0"/>
        <pt x="328" y="0" on="1"/>
        <pt x="141" y="0" on="1"/>
        <pt x="113" y="0" on="0"/>
        <pt x="72" y="36" on="0"/>
        <pt x="74" y="62" on="1"/>
        <pt x="74" y="690" on="1"/>
        <pt x="287" y="690" on="1"/>
        <pt x="260" y="263" on="1"/>
        <pt x="259" y="243" on="0"/>
        <pt x="253" y="162" on="0"/>
        <pt x="252" y="148" on="1"/>
        <pt x="269" y="148" on="1"/>
        <pt x="282" y="218" on="0"/>
        <pt x="297" y="272" on="1"/>
        <pt x="393" y="630" on="1"/>
        <pt x="409" y="690" on="0"/>
        <pt x="470" y="690" on="1"/>
        <pt x="621" y="690" on="1"/>
        <pt x="650" y="690" on="0"/>
        <pt x="688" y="651" on="0"/>
        <pt x="688" y="622" on="1"/>
        <pt x="688" y="262" on="1"/>
        <pt x="688" y="220" on="0"/>
        <pt x="686" y="148" on="1"/>
        <pt x="704" y="148" on="1"/>
        <pt x="710" y="207" on="0"/>
        <pt x="725" y="269" on="1"/>
        <pt x="817" y="690" on="1"/>
      </contour>
    </TTGlyph>
    <TTGlyph name="Wdieresis" xMin="74" yMin="0" xMax="1030" yMax="904">
      <contour>
        <pt x="443" y="904" on="1"/>
        <pt x="520" y="904" on="1"/>
        <pt x="556" y="904" on="0"/>
        <pt x="550" y="871" on="1"/>
        <pt x="539" y="795" on="1"/>
        <pt x="535" y="763" on="0"/>
        <pt x="504" y="763" on="1"/>
        <pt x="423" y="763" on="1"/>
        <pt x="387" y="763" on="0"/>
        <pt x="393" y="796" on="1"/>
        <pt x="404" y="869" on="1"/>
        <pt x="408" y="904" on="0"/>
      </contour>
      <contour>
        <pt x="629" y="904" on="1"/>
        <pt x="709" y="904" on="1"/>
        <pt x="745" y="904" on="0"/>
        <pt x="739" y="871" on="1"/>
        <pt x="728" y="796" on="1"/>
        <pt x="726" y="778" on="0"/>
        <pt x="710" y="763" on="0"/>
        <pt x="693" y="763" on="1"/>
        <pt x="612" y="763" on="1"/>
        <pt x="576" y="763" on="0"/>
        <pt x="582" y="796" on="1"/>
        <pt x="593" y="870" on="1"/>
        <pt x="598" y="904" on="0"/>
      </contour>
      <contour>
        <pt x="1030" y="690" on="1"/>
        <pt x="856" y="54" on="1"/>
        <pt x="842" y="0" on="0"/>
        <pt x="780" y="0" on="1"/>
        <pt x="598" y="0" on="1"/>
        <pt x="570" y="0" on="0"/>
        <pt x="528" y="36" on="0"/>
        <pt x="529" y="62" on="1"/>
        <pt x="536" y="431" on="1"/>
        <pt x="537" y="455" on="0"/>
        <pt x="541" y="536" on="1"/>
        <pt x="523" y="536" on="1"/>
        <pt x="516" y="486" on="0"/>
        <pt x="503" y="434" on="1"/>
        <pt x="404" y="54" on="1"/>
        <pt x="390" y="0" on="0"/>
        <pt x="328" y="0" on="1"/>
        <pt x="141" y="0" on="1"/>
        <pt x="113" y="0" on="0"/>
        <pt x="72" y="36" on="0"/>
        <pt x="74" y="62" on="1"/>
        <pt x="74" y="690" on="1"/>
        <pt x="287" y="690" on="1"/>
        <pt x="260" y="263" on="1"/>
        <pt x="259" y="243" on="0"/>
        <pt x="253" y="162" on="0"/>
        <pt x="252" y="148" on="1"/>
        <pt x="269" y="148" on="1"/>
        <pt x="282" y="218" on="0"/>
        <pt x="297" y="272" on="1"/>
        <pt x="393" y="630" on="1"/>
        <pt x="409" y="690" on="0"/>
        <pt x="470" y="690" on="1"/>
        <pt x="621" y="690" on="1"/>
        <pt x="650" y="690" on="0"/>
        <pt x="688" y="651" on="0"/>
        <pt x="688" y="622" on="1"/>
        <pt x="688" y="262" on="1"/>
        <pt x="688" y="220" on="0"/>
        <pt x="686" y="148" on="1"/>
        <pt x="704" y="148" on="1"/>
        <pt x="710" y="207" on="0"/>
        <pt x="725" y="269" on="1"/>
        <pt x="817" y="690" on="1"/>
      </contour>
    </TTGlyph>
    <TTGlyph name="Wgrave" xMin="74" yMin="0" xMax="1030" yMax="956">
      <contour>
        <pt x="665" y="806" on="1"/>
        <pt x="598" y="720" on="1"/>
        <pt x="350" y="826" on="1"/>
        <pt x="430" y="956" on="1"/>
      </contour>
      <contour>
        <pt x="1030" y="690" on="1"/>
        <pt x="856" y="54" on="1"/>
        <pt x="842" y="0" on="0"/>
        <pt x="780" y="0" on="1"/>
        <pt x="598" y="0" on="1"/>
        <pt x="570" y="0" on="0"/>
        <pt x="528" y="36" on="0"/>
        <pt x="529" y="62" on="1"/>
        <pt x="536" y="431" on="1"/>
        <pt x="537" y="455" on="0"/>
        <pt x="541" y="536" on="1"/>
        <pt x="523" y="536" on="1"/>
        <pt x="516" y="486" on="0"/>
        <pt x="503" y="434" on="1"/>
        <pt x="404" y="54" on="1"/>
        <pt x="390" y="0" on="0"/>
        <pt x="328" y="0" on="1"/>
        <pt x="141" y="0" on="1"/>
        <pt x="113" y="0" on="0"/>
        <pt x="72" y="36" on="0"/>
        <pt x="74" y="62" on="1"/>
        <pt x="74" y="690" on="1"/>
        <pt x="287" y="690" on="1"/>
        <pt x="260" y="263" on="1"/>
        <pt x="259" y="243" on="0"/>
        <pt x="253" y="162" on="0"/>
        <pt x="252" y="148" on="1"/>
        <pt x="269" y="148" on="1"/>
        <pt x="282" y="218" on="0"/>
        <pt x="297" y="272" on="1"/>
        <pt x="393" y="630" on="1"/>
        <pt x="409" y="690" on="0"/>
        <pt x="470" y="690" on="1"/>
        <pt x="621" y="690" on="1"/>
        <pt x="650" y="690" on="0"/>
        <pt x="688" y="651" on="0"/>
        <pt x="688" y="622" on="1"/>
        <pt x="688" y="262" on="1"/>
        <pt x="688" y="220" on="0"/>
        <pt x="686" y="148" on="1"/>
        <pt x="704" y="148" on="1"/>
        <pt x="710" y="207" on="0"/>
        <pt x="725" y="269" on="1"/>
        <pt x="817" y="690" on="1"/>
      </contour>
    </TTGlyph>
    <TTGlyph name="X" xMin="-46" yMin="0" xMax="720" yMax="690">
      <contour>
        <pt x="516" y="352" on="1"/>
        <pt x="633" y="0" on="1"/>
        <pt x="420" y="0" on="1"/>
        <pt x="345" y="284" on="1"/>
        <pt x="184" y="0" on="1"/>
        <pt x="-46" y="0" on="1"/>
        <pt x="172" y="352" on="1"/>
        <pt x="68" y="690" on="1"/>
        <pt x="277" y="690" on="1"/>
        <pt x="348" y="422" on="1"/>
        <pt x="499" y="690" on="1"/>
        <pt x="720" y="690" on="1"/>
      </contour>
    </TTGlyph>
    <TTGlyph name="Y" xMin="46" yMin="0" xMax="715" yMax="690">
      <contour>
        <pt x="420" y="209" on="1"/>
        <pt x="391" y="0" on="1"/>
        <pt x="173" y="0" on="1"/>
        <pt x="204" y="221" on="1"/>
        <pt x="46" y="690" on="1"/>
        <pt x="262" y="690" on="1"/>
        <pt x="315" y="469" on="1"/>
        <pt x="324" y="429" on="0"/>
        <pt x="322" y="368" on="1"/>
        <pt x="337" y="368" on="1"/>
        <pt x="342" y="416" on="0"/>
        <pt x="367" y="467" on="1"/>
        <pt x="484" y="690" on="1"/>
        <pt x="715" y="690" on="1"/>
      </contour>
    </TTGlyph>
    <TTGlyph name="Yacute" xMin="46" yMin="0" xMax="715" yMax="962">
      <contour>
        <pt x="338" y="720" on="1"/>
        <pt x="291" y="806" on="1"/>
        <pt x="538" y="962" on="1"/>
        <pt x="604" y="816" on="1"/>
      </contour>
      <contour>
        <pt x="420" y="209" on="1"/>
        <pt x="391" y="0" on="1"/>
        <pt x="173" y="0" on="1"/>
        <pt x="204" y="221" on="1"/>
        <pt x="46" y="690" on="1"/>
        <pt x="262" y="690" on="1"/>
        <pt x="315" y="469" on="1"/>
        <pt x="324" y="429" on="0"/>
        <pt x="322" y="368" on="1"/>
        <pt x="337" y="368" on="1"/>
        <pt x="342" y="416" on="0"/>
        <pt x="367" y="467" on="1"/>
        <pt x="484" y="690" on="1"/>
        <pt x="715" y="690" on="1"/>
      </contour>
    </TTGlyph>
    <TTGlyph name="Ycircumflex" xMin="46" yMin="0" xMax="715" yMax="927">
      <contour>
        <pt x="220" y="719" on="1"/>
        <pt x="172" y="791" on="1"/>
        <pt x="322" y="927" on="1"/>
        <pt x="463" y="927" on="1"/>
        <pt x="594" y="787" on="1"/>
        <pt x="539" y="719" on="1"/>
        <pt x="392" y="813" on="1"/>
        <pt x="384" y="813" on="1"/>
      </contour>
      <contour>
        <pt x="420" y="209" on="1"/>
        <pt x="391" y="0" on="1"/>
        <pt x="173" y="0" on="1"/>
        <pt x="204" y="221" on="1"/>
        <pt x="46" y="690" on="1"/>
        <pt x="262" y="690" on="1"/>
        <pt x="315" y="469" on="1"/>
        <pt x="324" y="429" on="0"/>
        <pt x="322" y="368" on="1"/>
        <pt x="337" y="368" on="1"/>
        <pt x="342" y="416" on="0"/>
        <pt x="367" y="467" on="1"/>
        <pt x="484" y="690" on="1"/>
        <pt x="715" y="690" on="1"/>
      </contour>
    </TTGlyph>
    <TTGlyph name="Ydieresis" xMin="46" yMin="0" xMax="715" yMax="904">
      <contour>
        <pt x="332" y="763" on="1"/>
        <pt x="251" y="763" on="1"/>
        <pt x="215" y="763" on="0"/>
        <pt x="221" y="796" on="1"/>
        <pt x="232" y="869" on="1"/>
        <pt x="236" y="904" on="0"/>
        <pt x="271" y="904" on="1"/>
        <pt x="348" y="904" on="1"/>
        <pt x="384" y="904" on="0"/>
        <pt x="378" y="871" on="1"/>
        <pt x="367" y="795" on="1"/>
        <pt x="363" y="763" on="0"/>
      </contour>
      <contour>
        <pt x="521" y="763" on="1"/>
        <pt x="440" y="763" on="1"/>
        <pt x="404" y="763" on="0"/>
        <pt x="410" y="796" on="1"/>
        <pt x="421" y="870" on="1"/>
        <pt x="426" y="904" on="0"/>
        <pt x="457" y="904" on="1"/>
        <pt x="537" y="904" on="1"/>
        <pt x="573" y="904" on="0"/>
        <pt x="567" y="871" on="1"/>
        <pt x="556" y="796" on="1"/>
        <pt x="554" y="778" on="0"/>
        <pt x="538" y="763" on="0"/>
      </contour>
      <contour>
        <pt x="420" y="209" on="1"/>
        <pt x="391" y="0" on="1"/>
        <pt x="173" y="0" on="1"/>
        <pt x="204" y="221" on="1"/>
        <pt x="46" y="690" on="1"/>
        <pt x="262" y="690" on="1"/>
        <pt x="315" y="469" on="1"/>
        <pt x="324" y="429" on="0"/>
        <pt x="322" y="368" on="1"/>
        <pt x="337" y="368" on="1"/>
        <pt x="342" y="416" on="0"/>
        <pt x="367" y="467" on="1"/>
        <pt x="484" y="690" on="1"/>
        <pt x="715" y="690" on="1"/>
      </contour>
    </TTGlyph>
    <TTGlyph name="Ygrave" xMin="46" yMin="0" xMax="715" yMax="956">
      <contour>
        <pt x="426" y="720" on="1"/>
        <pt x="178" y="826" on="1"/>
        <pt x="258" y="956" on="1"/>
        <pt x="493" y="806" on="1"/>
      </contour>
      <contour>
        <pt x="420" y="209" on="1"/>
        <pt x="391" y="0" on="1"/>
        <pt x="173" y="0" on="1"/>
        <pt x="204" y="221" on="1"/>
        <pt x="46" y="690" on="1"/>
        <pt x="262" y="690" on="1"/>
        <pt x="315" y="469" on="1"/>
        <pt x="324" y="429" on="0"/>
        <pt x="322" y="368" on="1"/>
        <pt x="337" y="368" on="1"/>
        <pt x="342" y="416" on="0"/>
        <pt x="367" y="467" on="1"/>
        <pt x="484" y="690" on="1"/>
        <pt x="715" y="690" on="1"/>
      </contour>
    </TTGlyph>
    <TTGlyph name="Z" xMin="-11" yMin="0" xMax="615" yMax="690">
      <contour>
        <pt x="594" y="538" on="1"/>
        <pt x="261" y="152" on="1"/>
        <pt x="549" y="152" on="1"/>
        <pt x="528" y="0" on="1"/>
        <pt x="-11" y="0" on="1"/>
        <pt x="9" y="152" on="1"/>
        <pt x="343" y="538" on="1"/>
        <pt x="75" y="538" on="1"/>
        <pt x="96" y="690" on="1"/>
        <pt x="615" y="690" on="1"/>
      </contour>
    </TTGlyph>
    <TTGlyph name="Zacute" xMin="-11" yMin="0" xMax="615" yMax="962">
      <contour>
        <pt x="311" y="720" on="1"/>
        <pt x="264" y="806" on="1"/>
        <pt x="511" y="962" on="1"/>
        <pt x="577" y="816" on="1"/>
      </contour>
      <contour>
        <pt x="594" y="538" on="1"/>
        <pt x="261" y="152" on="1"/>
        <pt x="549" y="152" on="1"/>
        <pt x="528" y="0" on="1"/>
        <pt x="-11" y="0" on="1"/>
        <pt x="9" y="152" on="1"/>
        <pt x="343" y="538" on="1"/>
        <pt x="75" y="538" on="1"/>
        <pt x="96" y="690" on="1"/>
        <pt x="615" y="690" on="1"/>
      </contour>
    </TTGlyph>
    <TTGlyph name="Zcaron" xMin="-11" yMin="0" xMax="615" yMax="947">
      <contour>
        <pt x="316" y="737" on="1"/>
        <pt x="153" y="881" on="1"/>
        <pt x="211" y="947" on="1"/>
        <pt x="358" y="866" on="1"/>
        <pt x="366" y="866" on="1"/>
        <pt x="537" y="943" on="1"/>
        <pt x="577" y="868" on="1"/>
        <pt x="398" y="737" on="1"/>
      </contour>
      <contour>
        <pt x="594" y="538" on="1"/>
        <pt x="261" y="152" on="1"/>
        <pt x="549" y="152" on="1"/>
        <pt x="528" y="0" on="1"/>
        <pt x="-11" y="0" on="1"/>
        <pt x="9" y="152" on="1"/>
        <pt x="343" y="538" on="1"/>
        <pt x="75" y="538" on="1"/>
        <pt x="96" y="690" on="1"/>
        <pt x="615" y="690" on="1"/>
      </contour>
    </TTGlyph>
    <TTGlyph name="Zdotaccent" xMin="-11" yMin="0" xMax="615" yMax="913">
      <contour>
        <pt x="395" y="752" on="1"/>
        <pt x="332" y="752" on="1"/>
        <pt x="267" y="752" on="0"/>
        <pt x="276" y="813" on="1"/>
        <pt x="282" y="860" on="1"/>
        <pt x="290" y="913" on="0"/>
        <pt x="344" y="913" on="1"/>
        <pt x="403" y="913" on="1"/>
        <pt x="431" y="913" on="0"/>
        <pt x="463" y="883" on="0"/>
        <pt x="460" y="854" on="1"/>
        <pt x="455" y="805" on="1"/>
        <pt x="449" y="752" on="0"/>
      </contour>
      <contour>
        <pt x="594" y="538" on="1"/>
        <pt x="261" y="152" on="1"/>
        <pt x="549" y="152" on="1"/>
        <pt x="528" y="0" on="1"/>
        <pt x="-11" y="0" on="1"/>
        <pt x="9" y="152" on="1"/>
        <pt x="343" y="538" on="1"/>
        <pt x="75" y="538" on="1"/>
        <pt x="96" y="690" on="1"/>
        <pt x="615" y="690" on="1"/>
      </contour>
    </TTGlyph>
    <TTGlyph name="a" xMin="19" yMin="-12" xMax="597" yMax="514">
      <contour>
        <pt x="367" y="0" on="1"/>
        <pt x="365" y="97" on="1"/>
        <pt x="298" y="-3" on="0"/>
        <pt x="170" y="-12" on="1"/>
        <pt x="100" y="-17" on="0"/>
        <pt x="25" y="50" on="0"/>
        <pt x="13" y="176" on="0"/>
        <pt x="25" y="264" on="1"/>
        <pt x="34" y="322" on="0"/>
        <pt x="64" y="407" on="0"/>
        <pt x="111" y="461" on="0"/>
        <pt x="159" y="494" on="0"/>
        <pt x="236" y="510" on="0"/>
        <pt x="302" y="514" on="0"/>
        <pt x="406" y="514" on="0"/>
        <pt x="568" y="493" on="0"/>
        <pt x="597" y="482" on="1"/>
        <pt x="529" y="0" on="1"/>
      </contour>
      <contour>
        <pt x="374" y="377" on="1"/>
        <pt x="328" y="377" on="1"/>
        <pt x="291" y="377" on="0"/>
        <pt x="249" y="336" on="0"/>
        <pt x="239" y="270" on="1"/>
        <pt x="225" y="175" on="0"/>
        <pt x="233" y="159" on="1"/>
        <pt x="238" y="147" on="0"/>
        <pt x="260" y="149" on="1"/>
        <pt x="302" y="152" on="0"/>
        <pt x="353" y="226" on="1"/>
      </contour>
    </TTGlyph>
    <TTGlyph name="aacute" xMin="19" yMin="-12" xMax="597" yMax="774">
      <contour>
        <pt x="311" y="532" on="1"/>
        <pt x="264" y="618" on="1"/>
        <pt x="511" y="774" on="1"/>
        <pt x="577" y="628" on="1"/>
      </contour>
      <contour>
        <pt x="367" y="0" on="1"/>
        <pt x="365" y="97" on="1"/>
        <pt x="298" y="-3" on="0"/>
        <pt x="170" y="-12" on="1"/>
        <pt x="100" y="-17" on="0"/>
        <pt x="25" y="50" on="0"/>
        <pt x="13" y="176" on="0"/>
        <pt x="25" y="264" on="1"/>
        <pt x="34" y="322" on="0"/>
        <pt x="64" y="407" on="0"/>
        <pt x="111" y="461" on="0"/>
        <pt x="159" y="494" on="0"/>
        <pt x="236" y="510" on="0"/>
        <pt x="302" y="514" on="0"/>
        <pt x="406" y="514" on="0"/>
        <pt x="568" y="493" on="0"/>
        <pt x="597" y="482" on="1"/>
        <pt x="529" y="0" on="1"/>
      </contour>
      <contour>
        <pt x="374" y="377" on="1"/>
        <pt x="328" y="377" on="1"/>
        <pt x="291" y="377" on="0"/>
        <pt x="249" y="336" on="0"/>
        <pt x="239" y="270" on="1"/>
        <pt x="225" y="175" on="0"/>
        <pt x="233" y="159" on="1"/>
        <pt x="238" y="147" on="0"/>
        <pt x="260" y="149" on="1"/>
        <pt x="302" y="152" on="0"/>
        <pt x="353" y="226" on="1"/>
      </contour>
    </TTGlyph>
    <TTGlyph name="abreve" xMin="19" yMin="-12" xMax="597" yMax="732">
      <contour>
        <pt x="462" y="732" on="1"/>
        <pt x="556" y="717" on="1"/>
        <pt x="558" y="647" on="0"/>
        <pt x="452" y="549" on="0"/>
        <pt x="362" y="549" on="1"/>
        <pt x="271" y="549" on="0"/>
        <pt x="178" y="656" on="0"/>
        <pt x="200" y="725" on="1"/>
        <pt x="298" y="730" on="1"/>
        <pt x="293" y="699" on="0"/>
        <pt x="327" y="675" on="0"/>
        <pt x="371" y="675" on="1"/>
        <pt x="456" y="675" on="0"/>
      </contour>
      <contour>
        <pt x="367" y="0" on="1"/>
        <pt x="365" y="97" on="1"/>
        <pt x="298" y="-3" on="0"/>
        <pt x="170" y="-12" on="1"/>
        <pt x="100" y="-17" on="0"/>
        <pt x="25" y="50" on="0"/>
        <pt x="13" y="176" on="0"/>
        <pt x="25" y="264" on="1"/>
        <pt x="34" y="322" on="0"/>
        <pt x="64" y="407" on="0"/>
        <pt x="111" y="461" on="0"/>
        <pt x="159" y="494" on="0"/>
        <pt x="236" y="510" on="0"/>
        <pt x="302" y="514" on="0"/>
        <pt x="406" y="514" on="0"/>
        <pt x="568" y="493" on="0"/>
        <pt x="597" y="482" on="1"/>
        <pt x="529" y="0" on="1"/>
      </contour>
      <contour>
        <pt x="374" y="377" on="1"/>
        <pt x="328" y="377" on="1"/>
        <pt x="291" y="377" on="0"/>
        <pt x="249" y="336" on="0"/>
        <pt x="239" y="270" on="1"/>
        <pt x="225" y="175" on="0"/>
        <pt x="233" y="159" on="1"/>
        <pt x="238" y="147" on="0"/>
        <pt x="260" y="149" on="1"/>
        <pt x="302" y="152" on="0"/>
        <pt x="353" y="226" on="1"/>
      </contour>
    </TTGlyph>
    <TTGlyph name="acircumflex" xMin="19" yMin="-12" xMax="597" yMax="739">
      <contour>
        <pt x="193" y="531" on="1"/>
        <pt x="145" y="603" on="1"/>
        <pt x="295" y="739" on="1"/>
        <pt x="436" y="739" on="1"/>
        <pt x="567" y="599" on="1"/>
        <pt x="512" y="531" on="1"/>
        <pt x="365" y="625" on="1"/>
        <pt x="357" y="625" on="1"/>
      </contour>
      <contour>
        <pt x="367" y="0" on="1"/>
        <pt x="365" y="97" on="1"/>
        <pt x="298" y="-3" on="0"/>
        <pt x="170" y="-12" on="1"/>
        <pt x="100" y="-17" on="0"/>
        <pt x="25" y="50" on="0"/>
        <pt x="13" y="176" on="0"/>
        <pt x="25" y="264" on="1"/>
        <pt x="34" y="322" on="0"/>
        <pt x="64" y="407" on="0"/>
        <pt x="111" y="461" on="0"/>
        <pt x="159" y="494" on="0"/>
        <pt x="236" y="510" on="0"/>
        <pt x="302" y="514" on="0"/>
        <pt x="406" y="514" on="0"/>
        <pt x="568" y="493" on="0"/>
        <pt x="597" y="482" on="1"/>
        <pt x="529" y="0" on="1"/>
      </contour>
      <contour>
        <pt x="374" y="377" on="1"/>
        <pt x="328" y="377" on="1"/>
        <pt x="291" y="377" on="0"/>
        <pt x="249" y="336" on="0"/>
        <pt x="239" y="270" on="1"/>
        <pt x="225" y="175" on="0"/>
        <pt x="233" y="159" on="1"/>
        <pt x="238" y="147" on="0"/>
        <pt x="260" y="149" on="1"/>
        <pt x="302" y="152" on="0"/>
        <pt x="353" y="226" on="1"/>
      </contour>
    </TTGlyph>
    <TTGlyph name="acute" xMin="90" yMin="511" xMax="403" yMax="753">
      <contour>
        <pt x="403" y="607" on="1"/>
        <pt x="137" y="511" on="1"/>
        <pt x="90" y="597" on="1"/>
        <pt x="337" y="753" on="1"/>
      </contour>
    </TTGlyph>
    <TTGlyph name="adieresis" xMin="19" yMin="-12" xMax="597" yMax="716">
      <contour>
        <pt x="305" y="575" on="1"/>
        <pt x="224" y="575" on="1"/>
        <pt x="188" y="575" on="0"/>
        <pt x="194" y="608" on="1"/>
        <pt x="205" y="681" on="1"/>
        <pt x="209" y="716" on="0"/>
        <pt x="244" y="716" on="1"/>
        <pt x="321" y="716" on="1"/>
        <pt x="357" y="716" on="0"/>
        <pt x="351" y="683" on="1"/>
        <pt x="340" y="607" on="1"/>
        <pt x="336" y="575" on="0"/>
      </contour>
      <contour>
        <pt x="494" y="575" on="1"/>
        <pt x="413" y="575" on="1"/>
        <pt x="377" y="575" on="0"/>
        <pt x="383" y="608" on="1"/>
        <pt x="394" y="682" on="1"/>
        <pt x="399" y="716" on="0"/>
        <pt x="430" y="716" on="1"/>
        <pt x="510" y="716" on="1"/>
        <pt x="546" y="716" on="0"/>
        <pt x="540" y="683" on="1"/>
        <pt x="529" y="608" on="1"/>
        <pt x="527" y="590" on="0"/>
        <pt x="511" y="575" on="0"/>
      </contour>
      <contour>
        <pt x="367" y="0" on="1"/>
        <pt x="365" y="97" on="1"/>
        <pt x="298" y="-3" on="0"/>
        <pt x="170" y="-12" on="1"/>
        <pt x="100" y="-17" on="0"/>
        <pt x="25" y="50" on="0"/>
        <pt x="13" y="176" on="0"/>
        <pt x="25" y="264" on="1"/>
        <pt x="34" y="322" on="0"/>
        <pt x="64" y="407" on="0"/>
        <pt x="111" y="461" on="0"/>
        <pt x="159" y="494" on="0"/>
        <pt x="236" y="510" on="0"/>
        <pt x="302" y="514" on="0"/>
        <pt x="406" y="514" on="0"/>
        <pt x="568" y="493" on="0"/>
        <pt x="597" y="482" on="1"/>
        <pt x="529" y="0" on="1"/>
      </contour>
      <contour>
        <pt x="374" y="377" on="1"/>
        <pt x="328" y="377" on="1"/>
        <pt x="291" y="377" on="0"/>
        <pt x="249" y="336" on="0"/>
        <pt x="239" y="270" on="1"/>
        <pt x="225" y="175" on="0"/>
        <pt x="233" y="159" on="1"/>
        <pt x="238" y="147" on="0"/>
        <pt x="260" y="149" on="1"/>
        <pt x="302" y="152" on="0"/>
        <pt x="353" y="226" on="1"/>
      </contour>
    </TTGlyph>
    <TTGlyph name="ae" xMin="26" yMin="-12" xMax="901" yMax="514">
      <contour>
        <pt x="839" y="160" on="1"/>
        <pt x="852" y="32" on="1"/>
        <pt x="759" y="-12" on="0"/>
        <pt x="619" y="-12" on="1"/>
        <pt x="413" y="-12" on="0"/>
        <pt x="367" y="105" on="1"/>
        <pt x="303" y="-3" on="0"/>
        <pt x="170" y="-12" on="1"/>
        <pt x="68" y="-19" on="0"/>
        <pt x="6" y="124" on="0"/>
        <pt x="26" y="264" on="1"/>
        <pt x="34" y="322" on="0"/>
        <pt x="60" y="406" on="0"/>
        <pt x="100" y="461" on="0"/>
        <pt x="140" y="493" on="0"/>
        <pt x="206" y="509" on="0"/>
        <pt x="261" y="514" on="0"/>
        <pt x="306" y="514" on="1"/>
        <pt x="418" y="515" on="0"/>
        <pt x="520" y="499" on="1"/>
        <pt x="573" y="514" on="0"/>
        <pt x="656" y="514" on="1"/>
        <pt x="804" y="514" on="0"/>
        <pt x="915" y="422" on="0"/>
        <pt x="901" y="328" on="1"/>
        <pt x="892" y="263" on="0"/>
        <pt x="796" y="212" on="0"/>
        <pt x="691" y="204" on="1"/>
        <pt x="563" y="194" on="1"/>
        <pt x="564" y="166" on="0"/>
        <pt x="596" y="149" on="0"/>
        <pt x="638" y="149" on="1"/>
        <pt x="745" y="149" on="0"/>
      </contour>
      <contour>
        <pt x="576" y="297" on="1"/>
        <pt x="635" y="303" on="1"/>
        <pt x="670" y="306" on="0"/>
        <pt x="699" y="323" on="0"/>
        <pt x="701" y="349" on="1"/>
        <pt x="703" y="366" on="0"/>
        <pt x="685" y="380" on="0"/>
        <pt x="658" y="379" on="1"/>
        <pt x="618" y="378" on="0"/>
        <pt x="586" y="346" on="0"/>
      </contour>
      <contour>
        <pt x="261" y="149" on="1"/>
        <pt x="280" y="150" on="0"/>
        <pt x="332" y="196" on="0"/>
        <pt x="353" y="229" on="1"/>
        <pt x="355" y="254" on="1"/>
        <pt x="362" y="324" on="0"/>
        <pt x="383" y="377" on="1"/>
        <pt x="327" y="377" on="1"/>
        <pt x="287" y="377" on="0"/>
        <pt x="250" y="338" on="0"/>
        <pt x="240" y="270" on="1"/>
        <pt x="226" y="175" on="0"/>
        <pt x="234" y="159" on="1"/>
        <pt x="239" y="147" on="0"/>
      </contour>
    </TTGlyph>
    <TTGlyph name="agrave" xMin="19" yMin="-12" xMax="597" yMax="768">
      <contour>
        <pt x="399" y="532" on="1"/>
        <pt x="151" y="638" on="1"/>
        <pt x="231" y="768" on="1"/>
        <pt x="466" y="618" on="1"/>
      </contour>
      <contour>
        <pt x="367" y="0" on="1"/>
        <pt x="365" y="97" on="1"/>
        <pt x="298" y="-3" on="0"/>
        <pt x="170" y="-12" on="1"/>
        <pt x="100" y="-17" on="0"/>
        <pt x="25" y="50" on="0"/>
        <pt x="13" y="176" on="0"/>
        <pt x="25" y="264" on="1"/>
        <pt x="34" y="322" on="0"/>
        <pt x="64" y="407" on="0"/>
        <pt x="111" y="461" on="0"/>
        <pt x="159" y="494" on="0"/>
        <pt x="236" y="510" on="0"/>
        <pt x="302" y="514" on="0"/>
        <pt x="406" y="514" on="0"/>
        <pt x="568" y="493" on="0"/>
        <pt x="597" y="482" on="1"/>
        <pt x="529" y="0" on="1"/>
      </contour>
      <contour>
        <pt x="374" y="377" on="1"/>
        <pt x="328" y="377" on="1"/>
        <pt x="291" y="377" on="0"/>
        <pt x="249" y="336" on="0"/>
        <pt x="239" y="270" on="1"/>
        <pt x="225" y="175" on="0"/>
        <pt x="233" y="159" on="1"/>
        <pt x="238" y="147" on="0"/>
        <pt x="260" y="149" on="1"/>
        <pt x="302" y="152" on="0"/>
        <pt x="353" y="226" on="1"/>
      </contour>
    </TTGlyph>
    <TTGlyph name="amacron" xMin="19" yMin="-12" xMax="597" yMax="707">
      <contour>
        <pt x="517" y="584" on="1"/>
        <pt x="197" y="584" on="1"/>
        <pt x="214" y="707" on="1"/>
        <pt x="534" y="707" on="1"/>
      </contour>
      <contour>
        <pt x="367" y="0" on="1"/>
        <pt x="365" y="97" on="1"/>
        <pt x="298" y="-3" on="0"/>
        <pt x="170" y="-12" on="1"/>
        <pt x="100" y="-17" on="0"/>
        <pt x="25" y="50" on="0"/>
        <pt x="13" y="176" on="0"/>
        <pt x="25" y="264" on="1"/>
        <pt x="34" y="322" on="0"/>
        <pt x="64" y="407" on="0"/>
        <pt x="111" y="461" on="0"/>
        <pt x="159" y="494" on="0"/>
        <pt x="236" y="510" on="0"/>
        <pt x="302" y="514" on="0"/>
        <pt x="406" y="514" on="0"/>
        <pt x="568" y="493" on="0"/>
        <pt x="597" y="482" on="1"/>
        <pt x="529" y="0" on="1"/>
      </contour>
      <contour>
        <pt x="374" y="377" on="1"/>
        <pt x="328" y="377" on="1"/>
        <pt x="291" y="377" on="0"/>
        <pt x="249" y="336" on="0"/>
        <pt x="239" y="270" on="1"/>
        <pt x="225" y="175" on="0"/>
        <pt x="233" y="159" on="1"/>
        <pt x="238" y="147" on="0"/>
        <pt x="260" y="149" on="1"/>
        <pt x="302" y="152" on="0"/>
        <pt x="353" y="226" on="1"/>
      </contour>
    </TTGlyph>
    <TTGlyph name="ampersand" xMin="16" yMin="-14" xMax="762" yMax="704">
      <contour>
        <pt x="743" y="288" on="1"/>
        <pt x="667" y="288" on="1"/>
        <pt x="657" y="235" on="0"/>
        <pt x="635" y="187" on="1"/>
        <pt x="545" y="-14" on="0"/>
        <pt x="265" y="-14" on="1"/>
        <pt x="123" y="-14" on="0"/>
        <pt x="4" y="84" on="0"/>
        <pt x="16" y="184" on="1"/>
        <pt x="25" y="258" on="0"/>
        <pt x="103" y="351" on="0"/>
        <pt x="174" y="355" on="1"/>
        <pt x="175" y="361" on="1"/>
        <pt x="125" y="365" on="0"/>
        <pt x="74" y="465" on="0"/>
        <pt x="85" y="528" on="1"/>
        <pt x="93" y="573" on="0"/>
        <pt x="131" y="638" on="0"/>
        <pt x="179" y="676" on="0"/>
        <pt x="252" y="697" on="0"/>
        <pt x="324" y="704" on="0"/>
        <pt x="373" y="704" on="1"/>
        <pt x="474" y="704" on="0"/>
        <pt x="544" y="680" on="1"/>
        <pt x="511" y="541" on="1"/>
        <pt x="433" y="553" on="0"/>
        <pt x="380" y="553" on="1"/>
        <pt x="336" y="553" on="0"/>
        <pt x="302" y="529" on="0"/>
        <pt x="297" y="488" on="1"/>
        <pt x="292" y="448" on="0"/>
        <pt x="314" y="419" on="0"/>
        <pt x="345" y="419" on="1"/>
        <pt x="511" y="419" on="1"/>
        <pt x="515" y="467" on="0"/>
        <pt x="516" y="502" on="1"/>
        <pt x="688" y="502" on="1"/>
        <pt x="688" y="460" on="0"/>
        <pt x="685" y="419" on="1"/>
        <pt x="762" y="419" on="1"/>
      </contour>
      <contour>
        <pt x="488" y="288" on="1"/>
        <pt x="326" y="288" on="1"/>
        <pt x="291" y="288" on="0"/>
        <pt x="253" y="256" on="0"/>
        <pt x="248" y="213" on="1"/>
        <pt x="244" y="178" on="0"/>
        <pt x="277" y="150" on="0"/>
        <pt x="316" y="150" on="1"/>
        <pt x="369" y="150" on="0"/>
        <pt x="446" y="191" on="0"/>
        <pt x="472" y="247" on="1"/>
        <pt x="479" y="261" on="0"/>
      </contour>
    </TTGlyph>
    <TTGlyph name="aogonek" xMin="19" yMin="-210" xMax="597" yMax="514">
      <contour>
        <pt x="597" y="482" on="1"/>
        <pt x="529" y="0" on="1"/>
        <pt x="487" y="-45" on="0"/>
        <pt x="472" y="-91" on="1"/>
        <pt x="467" y="-108" on="0"/>
        <pt x="481" y="-119" on="0"/>
        <pt x="504" y="-115" on="1"/>
        <pt x="519" y="-189" on="1"/>
        <pt x="470" y="-207" on="0"/>
        <pt x="389" y="-213" on="0"/>
        <pt x="343" y="-193" on="0"/>
        <pt x="313" y="-159" on="0"/>
        <pt x="316" y="-115" on="0"/>
        <pt x="325" y="-93" on="1"/>
        <pt x="350" y="-45" on="0"/>
        <pt x="428" y="0" on="1"/>
        <pt x="367" y="0" on="1"/>
        <pt x="365" y="97" on="1"/>
        <pt x="298" y="-3" on="0"/>
        <pt x="170" y="-12" on="1"/>
        <pt x="100" y="-17" on="0"/>
        <pt x="25" y="50" on="0"/>
        <pt x="13" y="176" on="0"/>
        <pt x="25" y="264" on="1"/>
        <pt x="34" y="322" on="0"/>
        <pt x="64" y="407" on="0"/>
        <pt x="111" y="461" on="0"/>
        <pt x="159" y="494" on="0"/>
        <pt x="236" y="510" on="0"/>
        <pt x="302" y="514" on="0"/>
        <pt x="406" y="514" on="0"/>
        <pt x="568" y="493" on="0"/>
      </contour>
      <contour>
        <pt x="374" y="377" on="1"/>
        <pt x="328" y="377" on="1"/>
        <pt x="291" y="377" on="0"/>
        <pt x="249" y="336" on="0"/>
        <pt x="239" y="270" on="1"/>
        <pt x="225" y="175" on="0"/>
        <pt x="233" y="159" on="1"/>
        <pt x="238" y="147" on="0"/>
        <pt x="260" y="149" on="1"/>
        <pt x="302" y="152" on="0"/>
        <pt x="353" y="226" on="1"/>
      </contour>
    </TTGlyph>
    <TTGlyph name="approxequal" xMin="32" yMin="95" xMax="551" yMax="484">
      <contour>
        <pt x="186" y="299" on="1"/>
        <pt x="60" y="308" on="1"/>
        <pt x="49" y="400" on="0"/>
        <pt x="132" y="491" on="0"/>
        <pt x="205" y="484" on="1"/>
        <pt x="230" y="482" on="0"/>
        <pt x="372" y="444" on="0"/>
        <pt x="381" y="442" on="1"/>
        <pt x="405" y="438" on="0"/>
        <pt x="421" y="460" on="0"/>
        <pt x="424" y="484" on="1"/>
        <pt x="551" y="474" on="1"/>
        <pt x="561" y="385" on="0"/>
        <pt x="486" y="295" on="0"/>
        <pt x="407" y="299" on="1"/>
        <pt x="382" y="300" on="0"/>
        <pt x="242" y="337" on="0"/>
        <pt x="228" y="339" on="1"/>
        <pt x="215" y="340" on="0"/>
        <pt x="199" y="337" on="0"/>
        <pt x="191" y="321" on="0"/>
        <pt x="189" y="314" on="0"/>
      </contour>
      <contour>
        <pt x="159" y="96" on="1"/>
        <pt x="32" y="105" on="1"/>
        <pt x="23" y="197" on="0"/>
        <pt x="105" y="288" on="0"/>
        <pt x="178" y="281" on="1"/>
        <pt x="203" y="279" on="0"/>
        <pt x="345" y="241" on="0"/>
        <pt x="354" y="239" on="1"/>
        <pt x="367" y="237" on="0"/>
        <pt x="383" y="241" on="0"/>
        <pt x="392" y="256" on="0"/>
        <pt x="395" y="267" on="0"/>
        <pt x="397" y="280" on="1"/>
        <pt x="523" y="271" on="1"/>
        <pt x="533" y="182" on="0"/>
        <pt x="459" y="91" on="0"/>
        <pt x="380" y="95" on="1"/>
        <pt x="354" y="96" on="0"/>
        <pt x="214" y="133" on="0"/>
        <pt x="200" y="135" on="1"/>
        <pt x="183" y="137" on="0"/>
        <pt x="166" y="126" on="0"/>
        <pt x="161" y="111" on="0"/>
      </contour>
    </TTGlyph>
    <TTGlyph name="aring" xMin="19" yMin="-12" xMax="597" yMax="771">
      <contour>
        <pt x="364" y="529" on="1"/>
        <pt x="307" y="529" on="0"/>
        <pt x="235" y="605" on="0"/>
        <pt x="242" y="658" on="1"/>
        <pt x="248" y="706" on="0"/>
        <pt x="320" y="771" on="0"/>
        <pt x="375" y="771" on="1"/>
        <pt x="431" y="771" on="0"/>
        <pt x="505" y="695" on="0"/>
        <pt x="498" y="642" on="1"/>
        <pt x="492" y="594" on="0"/>
        <pt x="420" y="529" on="0"/>
      </contour>
      <contour>
        <pt x="325" y="653" on="1"/>
        <pt x="323" y="631" on="0"/>
        <pt x="345" y="604" on="0"/>
        <pt x="387" y="604" on="0"/>
        <pt x="414" y="631" on="0"/>
        <pt x="415" y="653" on="1"/>
        <pt x="416" y="672" on="0"/>
        <pt x="392" y="696" on="0"/>
        <pt x="372" y="696" on="1"/>
        <pt x="353" y="696" on="0"/>
        <pt x="327" y="672" on="0"/>
      </contour>
      <contour>
        <pt x="367" y="0" on="1"/>
        <pt x="365" y="97" on="1"/>
        <pt x="298" y="-3" on="0"/>
        <pt x="170" y="-12" on="1"/>
        <pt x="100" y="-17" on="0"/>
        <pt x="25" y="50" on="0"/>
        <pt x="13" y="176" on="0"/>
        <pt x="25" y="264" on="1"/>
        <pt x="34" y="322" on="0"/>
        <pt x="64" y="407" on="0"/>
        <pt x="111" y="461" on="0"/>
        <pt x="159" y="494" on="0"/>
        <pt x="236" y="510" on="0"/>
        <pt x="302" y="514" on="0"/>
        <pt x="406" y="514" on="0"/>
        <pt x="568" y="493" on="0"/>
        <pt x="597" y="482" on="1"/>
        <pt x="529" y="0" on="1"/>
      </contour>
      <contour>
        <pt x="374" y="377" on="1"/>
        <pt x="328" y="377" on="1"/>
        <pt x="291" y="377" on="0"/>
        <pt x="249" y="336" on="0"/>
        <pt x="239" y="270" on="1"/>
        <pt x="225" y="175" on="0"/>
        <pt x="233" y="159" on="1"/>
        <pt x="238" y="147" on="0"/>
        <pt x="260" y="149" on="1"/>
        <pt x="302" y="152" on="0"/>
        <pt x="353" y="226" on="1"/>
      </contour>
    </TTGlyph>
    <TTGlyph name="asciicircum" xMin="52" yMin="372" xMax="489" yMax="653">
      <contour>
        <pt x="489" y="414" on="1"/>
        <pt x="406" y="372" on="1"/>
        <pt x="295" y="529" on="1"/>
        <pt x="287" y="529" on="1"/>
        <pt x="130" y="372" on="1"/>
        <pt x="52" y="414" on="1"/>
        <pt x="224" y="653" on="1"/>
        <pt x="376" y="653" on="1"/>
      </contour>
    </TTGlyph>
    <TTGlyph name="asciitilde" xMin="35" yMin="202" xMax="464" yMax="376">
      <contour>
        <pt x="119" y="203" on="1"/>
        <pt x="35" y="211" on="1"/>
        <pt x="31" y="295" on="0"/>
        <pt x="87" y="376" on="0"/>
        <pt x="131" y="376" on="1"/>
        <pt x="152" y="376" on="0"/>
        <pt x="236" y="358" on="0"/>
        <pt x="330" y="332" on="0"/>
        <pt x="332" y="332" on="1"/>
        <pt x="357" y="327" on="0"/>
        <pt x="376" y="348" on="0"/>
        <pt x="380" y="375" on="1"/>
        <pt x="464" y="367" on="1"/>
        <pt x="467" y="285" on="0"/>
        <pt x="416" y="202" on="0"/>
        <pt x="369" y="202" on="1"/>
        <pt x="346" y="202" on="0"/>
        <pt x="261" y="221" on="0"/>
        <pt x="174" y="244" on="0"/>
        <pt x="166" y="246" on="1"/>
        <pt x="142" y="251" on="0"/>
        <pt x="123" y="230" on="0"/>
      </contour>
    </TTGlyph>
    <TTGlyph name="asterisk" xMin="56" yMin="322" xMax="466" yMax="692">
      <contour>
        <pt x="301" y="517" on="1"/>
        <pt x="396" y="388" on="1"/>
        <pt x="302" y="322" on="1"/>
        <pt x="255" y="441" on="1"/>
        <pt x="175" y="322" on="1"/>
        <pt x="90" y="388" on="1"/>
        <pt x="222" y="516" on="1"/>
        <pt x="229" y="692" on="1"/>
        <pt x="343" y="692" on="1"/>
      </contour>
      <contour>
        <pt x="208" y="572" on="1"/>
        <pt x="205" y="523" on="1"/>
        <pt x="174" y="494" on="1"/>
        <pt x="56" y="517" on="1"/>
        <pt x="100" y="624" on="1"/>
      </contour>
      <contour>
        <pt x="466" y="516" on="1"/>
        <pt x="344" y="490" on="1"/>
        <pt x="319" y="522" on="1"/>
        <pt x="330" y="571" on="1"/>
        <pt x="444" y="623" on="1"/>
      </contour>
    </TTGlyph>
    <TTGlyph name="at" xMin="29" yMin="-14" xMax="799" yMax="655">
      <contour>
        <pt x="78" y="515" on="1"/>
        <pt x="87" y="645" on="1"/>
        <pt x="236" y="653" on="0"/>
        <pt x="427" y="655" on="1"/>
        <pt x="516" y="656" on="0"/>
        <pt x="630" y="648" on="0"/>
        <pt x="725" y="621" on="0"/>
        <pt x="772" y="577" on="0"/>
        <pt x="800" y="499" on="0"/>
        <pt x="798" y="396" on="0"/>
        <pt x="787" y="320" on="1"/>
        <pt x="779" y="267" on="0"/>
        <pt x="767" y="200" on="0"/>
        <pt x="749" y="125" on="0"/>
        <pt x="728" y="82" on="0"/>
        <pt x="697" y="37" on="0"/>
        <pt x="657" y="13" on="0"/>
        <pt x="602" y="-7" on="0"/>
        <pt x="534" y="-14" on="0"/>
        <pt x="490" y="-14" on="1"/>
        <pt x="357" y="-14" on="0"/>
        <pt x="320" y="77" on="1"/>
        <pt x="260" y="-12" on="0"/>
        <pt x="170" y="-12" on="1"/>
        <pt x="84" y="-12" on="0"/>
        <pt x="9" y="109" on="0"/>
        <pt x="29" y="231" on="1"/>
        <pt x="41" y="303" on="0"/>
        <pt x="83" y="395" on="0"/>
        <pt x="150" y="440" on="0"/>
        <pt x="221" y="455" on="0"/>
        <pt x="274" y="455" on="1"/>
        <pt x="374" y="455" on="0"/>
        <pt x="540" y="427" on="1"/>
        <pt x="496" y="156" on="1"/>
        <pt x="490" y="121" on="0"/>
        <pt x="517" y="121" on="1"/>
        <pt x="557" y="121" on="0"/>
        <pt x="581" y="175" on="0"/>
        <pt x="601" y="289" on="1"/>
        <pt x="606" y="314" on="0"/>
        <pt x="608" y="328" on="1"/>
        <pt x="614" y="365" on="0"/>
        <pt x="621" y="413" on="0"/>
        <pt x="618" y="456" on="0"/>
        <pt x="613" y="480" on="0"/>
        <pt x="587" y="500" on="0"/>
        <pt x="566" y="509" on="0"/>
        <pt x="511" y="514" on="0"/>
        <pt x="468" y="515" on="0"/>
        <pt x="425" y="515" on="1"/>
      </contour>
      <contour>
        <pt x="338" y="328" on="1"/>
        <pt x="294" y="328" on="1"/>
        <pt x="272" y="328" on="0"/>
        <pt x="249" y="319" on="0"/>
        <pt x="223" y="272" on="0"/>
        <pt x="214" y="224" on="1"/>
        <pt x="206" y="163" on="0"/>
        <pt x="217" y="139" on="0"/>
        <pt x="242" y="139" on="1"/>
        <pt x="280" y="139" on="0"/>
        <pt x="317" y="205" on="1"/>
      </contour>
    </TTGlyph>
    <TTGlyph name="atilde" xMin="19" yMin="-12" xMax="597" yMax="732">
      <contour>
        <pt x="252" y="559" on="1"/>
        <pt x="167" y="567" on="1"/>
        <pt x="165" y="649" on="0"/>
        <pt x="218" y="732" on="0"/>
        <pt x="265" y="732" on="1"/>
        <pt x="295" y="732" on="0"/>
        <pt x="424" y="688" on="0"/>
        <pt x="425" y="688" on="1"/>
        <pt x="449" y="682" on="0"/>
        <pt x="469" y="704" on="0"/>
        <pt x="472" y="731" on="1"/>
        <pt x="557" y="723" on="1"/>
        <pt x="561" y="640" on="0"/>
        <pt x="509" y="558" on="0"/>
        <pt x="462" y="558" on="1"/>
        <pt x="431" y="558" on="0"/>
        <pt x="305" y="601" on="0"/>
        <pt x="298" y="602" on="1"/>
        <pt x="274" y="607" on="0"/>
        <pt x="256" y="586" on="0"/>
      </contour>
      <contour>
        <pt x="367" y="0" on="1"/>
        <pt x="365" y="97" on="1"/>
        <pt x="298" y="-3" on="0"/>
        <pt x="170" y="-12" on="1"/>
        <pt x="100" y="-17" on="0"/>
        <pt x="25" y="50" on="0"/>
        <pt x="13" y="176" on="0"/>
        <pt x="25" y="264" on="1"/>
        <pt x="34" y="322" on="0"/>
        <pt x="64" y="407" on="0"/>
        <pt x="111" y="461" on="0"/>
        <pt x="159" y="494" on="0"/>
        <pt x="236" y="510" on="0"/>
        <pt x="302" y="514" on="0"/>
        <pt x="406" y="514" on="0"/>
        <pt x="568" y="493" on="0"/>
        <pt x="597" y="482" on="1"/>
        <pt x="529" y="0" on="1"/>
      </contour>
      <contour>
        <pt x="374" y="377" on="1"/>
        <pt x="328" y="377" on="1"/>
        <pt x="291" y="377" on="0"/>
        <pt x="249" y="336" on="0"/>
        <pt x="239" y="270" on="1"/>
        <pt x="225" y="175" on="0"/>
        <pt x="233" y="159" on="1"/>
        <pt x="238" y="147" on="0"/>
        <pt x="260" y="149" on="1"/>
        <pt x="302" y="152" on="0"/>
        <pt x="353" y="226" on="1"/>
      </contour>
    </TTGlyph>
    <TTGlyph name="b" xMin="6" yMin="-12" xMax="583" yMax="700">
      <contour>
        <pt x="311" y="700" on="1"/>
        <pt x="295" y="577" on="1"/>
        <pt x="287" y="504" on="0"/>
        <pt x="262" y="441" on="1"/>
        <pt x="340" y="514" on="0"/>
        <pt x="439" y="514" on="1"/>
        <pt x="623" y="514" on="0"/>
        <pt x="583" y="248" on="1"/>
        <pt x="576" y="204" on="0"/>
        <pt x="556" y="136" on="0"/>
        <pt x="513" y="65" on="0"/>
        <pt x="452" y="18" on="0"/>
        <pt x="353" y="-12" on="0"/>
        <pt x="290" y="-12" on="1"/>
        <pt x="221" y="-12" on="0"/>
        <pt x="45" y="10" on="0"/>
        <pt x="6" y="30" on="1"/>
        <pt x="100" y="700" on="1"/>
      </contour>
      <contour>
        <pt x="260" y="321" on="1"/>
        <pt x="232" y="131" on="1"/>
        <pt x="261" y="128" on="0"/>
        <pt x="280" y="129" on="1"/>
        <pt x="320" y="131" on="0"/>
        <pt x="358" y="186" on="0"/>
        <pt x="370" y="263" on="1"/>
        <pt x="378" y="316" on="0"/>
        <pt x="369" y="351" on="0"/>
        <pt x="345" y="351" on="1"/>
        <pt x="308" y="351" on="0"/>
      </contour>
    </TTGlyph>
    <TTGlyph name="backslash" xMin="70" yMin="-79" xMax="516" yMax="690">
      <contour>
        <pt x="516" y="-79" on="1"/>
        <pt x="360" y="-79" on="1"/>
        <pt x="70" y="690" on="1"/>
        <pt x="226" y="690" on="1"/>
      </contour>
    </TTGlyph>
    <TTGlyph name="bar" xMin="0" yMin="-169" xMax="280" yMax="781">
      <contour>
        <pt x="146" y="-169" on="1"/>
        <pt x="0" y="-169" on="1"/>
        <pt x="134" y="781" on="1"/>
        <pt x="280" y="781" on="1"/>
      </contour>
    </TTGlyph>
    <TTGlyph name="braceleft" xMin="19" yMin="-166" xMax="396" yMax="767">
      <contour>
        <pt x="396" y="767" on="1"/>
        <pt x="380" y="640" on="1"/>
        <pt x="345" y="640" on="0"/>
        <pt x="318" y="625" on="0"/>
        <pt x="315" y="598" on="1"/>
        <pt x="297" y="473" on="1"/>
        <pt x="289" y="404" on="0"/>
        <pt x="233" y="336" on="0"/>
        <pt x="161" y="326" on="1"/>
        <pt x="276" y="293" on="0"/>
        <pt x="260" y="179" on="1"/>
        <pt x="236" y="5" on="1"/>
        <pt x="233" y="-16" on="0"/>
        <pt x="257" y="-37" on="0"/>
        <pt x="290" y="-37" on="1"/>
        <pt x="284" y="-166" on="1"/>
        <pt x="146" y="-187" on="0"/>
        <pt x="21" y="-98" on="0"/>
        <pt x="33" y="-15" on="1"/>
        <pt x="64" y="207" on="1"/>
        <pt x="65" y="215" on="0"/>
        <pt x="65" y="228" on="0"/>
        <pt x="64" y="237" on="0"/>
        <pt x="58" y="244" on="0"/>
        <pt x="54" y="249" on="0"/>
        <pt x="44" y="254" on="0"/>
        <pt x="38" y="257" on="0"/>
        <pt x="23" y="262" on="0"/>
        <pt x="19" y="264" on="1"/>
        <pt x="35" y="394" on="1"/>
        <pt x="54" y="400" on="0"/>
        <pt x="67" y="405" on="0"/>
        <pt x="86" y="419" on="0"/>
        <pt x="93" y="442" on="0"/>
        <pt x="96" y="461" on="1"/>
        <pt x="119" y="626" on="1"/>
        <pt x="130" y="709" on="0"/>
        <pt x="266" y="788" on="0"/>
      </contour>
    </TTGlyph>
    <TTGlyph name="braceright" xMin="-32" yMin="-164" xMax="357" yMax="769">
      <contour>
        <pt x="82" y="640" on="1"/>
        <pt x="88" y="769" on="1"/>
        <pt x="226" y="790" on="0"/>
        <pt x="351" y="701" on="0"/>
        <pt x="340" y="618" on="1"/>
        <pt x="316" y="453" on="1"/>
        <pt x="314" y="442" on="0"/>
        <pt x="313" y="426" on="0"/>
        <pt x="317" y="414" on="0"/>
        <pt x="318" y="408" on="0"/>
        <pt x="330" y="401" on="0"/>
        <pt x="334" y="399" on="0"/>
        <pt x="353" y="393" on="0"/>
        <pt x="357" y="392" on="1"/>
        <pt x="340" y="262" on="1"/>
        <pt x="321" y="255" on="0"/>
        <pt x="308" y="249" on="0"/>
        <pt x="287" y="235" on="0"/>
        <pt x="278" y="215" on="0"/>
        <pt x="276" y="199" on="1"/>
        <pt x="245" y="-23" on="1"/>
        <pt x="233" y="-106" on="0"/>
        <pt x="97" y="-185" on="0"/>
        <pt x="-32" y="-164" on="1"/>
        <pt x="-16" y="-37" on="1"/>
        <pt x="9" y="-37" on="0"/>
        <pt x="30" y="-34" on="0"/>
        <pt x="46" y="-17" on="0"/>
        <pt x="48" y="2" on="1"/>
        <pt x="74" y="187" on="1"/>
        <pt x="83" y="245" on="0"/>
        <pt x="142" y="312" on="0"/>
        <pt x="214" y="330" on="1"/>
        <pt x="152" y="339" on="0"/>
        <pt x="109" y="414" on="0"/>
        <pt x="119" y="481" on="1"/>
        <pt x="138" y="606" on="1"/>
        <pt x="141" y="626" on="0"/>
        <pt x="117" y="640" on="0"/>
      </contour>
    </TTGlyph>
    <TTGlyph name="bracketleft" xMin="12" yMin="-165" xMax="407" yMax="768">
      <contour>
        <pt x="389" y="640" on="1"/>
        <pt x="335" y="640" on="1"/>
        <pt x="319" y="640" on="0"/>
        <pt x="305" y="629" on="0"/>
        <pt x="303" y="614" on="1"/>
        <pt x="214" y="-14" on="1"/>
        <pt x="211" y="-37" on="0"/>
        <pt x="233" y="-37" on="1"/>
        <pt x="294" y="-37" on="1"/>
        <pt x="276" y="-165" on="1"/>
        <pt x="105" y="-165" on="1"/>
        <pt x="-2" y="-165" on="0"/>
        <pt x="12" y="-60" on="1"/>
        <pt x="115" y="671" on="1"/>
        <pt x="122" y="716" on="0"/>
        <pt x="179" y="768" on="0"/>
        <pt x="224" y="768" on="1"/>
        <pt x="407" y="768" on="1"/>
      </contour>
    </TTGlyph>
    <TTGlyph name="bracketright" xMin="-39" yMin="-165" xMax="355" yMax="768">
      <contour>
        <pt x="92" y="768" on="1"/>
        <pt x="263" y="768" on="1"/>
        <pt x="308" y="768" on="0"/>
        <pt x="361" y="708" on="0"/>
        <pt x="355" y="663" on="1"/>
        <pt x="252" y="-68" on="1"/>
        <pt x="246" y="-113" on="0"/>
        <pt x="189" y="-165" on="0"/>
        <pt x="144" y="-165" on="1"/>
        <pt x="-39" y="-165" on="1"/>
        <pt x="-21" y="-37" on="1"/>
        <pt x="33" y="-37" on="1"/>
        <pt x="48" y="-37" on="0"/>
        <pt x="62" y="-26" on="0"/>
        <pt x="64" y="-11" on="1"/>
        <pt x="153" y="617" on="1"/>
        <pt x="156" y="640" on="0"/>
        <pt x="135" y="640" on="1"/>
        <pt x="74" y="640" on="1"/>
      </contour>
    </TTGlyph>
    <TTGlyph name="breve" xMin="90" yMin="534" xMax="446" yMax="717">
      <contour>
        <pt x="352" y="717" on="1"/>
        <pt x="446" y="702" on="1"/>
        <pt x="448" y="632" on="0"/>
        <pt x="342" y="534" on="0"/>
        <pt x="252" y="534" on="1"/>
        <pt x="161" y="534" on="0"/>
        <pt x="68" y="641" on="0"/>
        <pt x="90" y="710" on="1"/>
        <pt x="188" y="715" on="1"/>
        <pt x="183" y="684" on="0"/>
        <pt x="217" y="660" on="0"/>
        <pt x="261" y="660" on="1"/>
        <pt x="346" y="660" on="0"/>
      </contour>
    </TTGlyph>
    <TTGlyph name="brevecy" xMin="89" yMin="534" xMax="445" yMax="706">
      <contour>
        <pt x="322" y="706" on="1"/>
        <pt x="445" y="706" on="1"/>
        <pt x="447" y="634" on="0"/>
        <pt x="342" y="534" on="0"/>
        <pt x="256" y="534" on="1"/>
        <pt x="161" y="534" on="0"/>
        <pt x="67" y="635" on="0"/>
        <pt x="89" y="706" on="1"/>
        <pt x="218" y="706" on="1"/>
        <pt x="205" y="661" on="0"/>
        <pt x="230" y="630" on="0"/>
        <pt x="257" y="630" on="1"/>
        <pt x="322" y="630" on="0"/>
      </contour>
    </TTGlyph>
    <TTGlyph name="brokenbar" xMin="2" yMin="-169" xMax="282" yMax="781">
      <contour>
        <pt x="225" y="381" on="1"/>
        <pt x="79" y="381" on="1"/>
        <pt x="136" y="781" on="1"/>
        <pt x="282" y="781" on="1"/>
      </contour>
      <contour>
        <pt x="148" y="-169" on="1"/>
        <pt x="2" y="-169" on="1"/>
        <pt x="58" y="231" on="1"/>
        <pt x="204" y="231" on="1"/>
      </contour>
    </TTGlyph>
    <TTGlyph name="bullet" xMin="51" yMin="133" xMax="322" yMax="402">
      <contour>
        <pt x="192" y="402" on="1"/>
        <pt x="216" y="402" on="1"/>
        <pt x="282" y="402" on="0"/>
        <pt x="330" y="344" on="0"/>
        <pt x="322" y="276" on="1"/>
        <pt x="319" y="259" on="1"/>
        <pt x="308" y="185" on="0"/>
        <pt x="254" y="133" on="0"/>
        <pt x="186" y="133" on="1"/>
        <pt x="159" y="133" on="1"/>
        <pt x="90" y="133" on="0"/>
        <pt x="41" y="193" on="0"/>
        <pt x="51" y="267" on="1"/>
        <pt x="54" y="284" on="1"/>
        <pt x="64" y="353" on="0"/>
        <pt x="120" y="402" on="0"/>
      </contour>
    </TTGlyph>
    <TTGlyph name="c" xMin="21" yMin="-12" xMax="532" yMax="514">
      <contour>
        <pt x="470" y="161" on="1"/>
        <pt x="485" y="28" on="1"/>
        <pt x="401" y="-12" on="0"/>
        <pt x="265" y="-12" on="1"/>
        <pt x="128" y="-12" on="0"/>
        <pt x="1" y="117" on="0"/>
        <pt x="21" y="259" on="1"/>
        <pt x="40" y="396" on="0"/>
        <pt x="165" y="514" on="0"/>
        <pt x="441" y="514" on="0"/>
        <pt x="532" y="475" on="1"/>
        <pt x="504" y="347" on="1"/>
        <pt x="328" y="347" on="1"/>
        <pt x="284" y="347" on="0"/>
        <pt x="248" y="307" on="0"/>
        <pt x="240" y="253" on="1"/>
        <pt x="231" y="192" on="0"/>
        <pt x="256" y="154" on="0"/>
        <pt x="302" y="154" on="1"/>
        <pt x="407" y="154" on="0"/>
      </contour>
    </TTGlyph>
    <TTGlyph name="cacute" xMin="21" yMin="-12" xMax="547" yMax="774">
      <contour>
        <pt x="547" y="628" on="1"/>
        <pt x="281" y="532" on="1"/>
        <pt x="234" y="618" on="1"/>
        <pt x="481" y="774" on="1"/>
      </contour>
      <contour>
        <pt x="470" y="161" on="1"/>
        <pt x="485" y="28" on="1"/>
        <pt x="401" y="-12" on="0"/>
        <pt x="265" y="-12" on="1"/>
        <pt x="128" y="-12" on="0"/>
        <pt x="1" y="117" on="0"/>
        <pt x="21" y="259" on="1"/>
        <pt x="40" y="396" on="0"/>
        <pt x="165" y="514" on="0"/>
        <pt x="441" y="514" on="0"/>
        <pt x="532" y="475" on="1"/>
        <pt x="504" y="347" on="1"/>
        <pt x="328" y="347" on="1"/>
        <pt x="284" y="347" on="0"/>
        <pt x="248" y="307" on="0"/>
        <pt x="240" y="253" on="1"/>
        <pt x="231" y="192" on="0"/>
        <pt x="256" y="154" on="0"/>
        <pt x="302" y="154" on="1"/>
        <pt x="407" y="154" on="0"/>
      </contour>
    </TTGlyph>
    <TTGlyph name="caron" xMin="79" yMin="547" xMax="503" yMax="757">
      <contour>
        <pt x="503" y="678" on="1"/>
        <pt x="324" y="547" on="1"/>
        <pt x="242" y="547" on="1"/>
        <pt x="79" y="691" on="1"/>
        <pt x="137" y="757" on="1"/>
        <pt x="284" y="676" on="1"/>
        <pt x="292" y="676" on="1"/>
        <pt x="463" y="753" on="1"/>
      </contour>
    </TTGlyph>
    <TTGlyph name="ccaron" xMin="21" yMin="-12" xMax="547" yMax="759">
      <contour>
        <pt x="547" y="680" on="1"/>
        <pt x="368" y="549" on="1"/>
        <pt x="286" y="549" on="1"/>
        <pt x="123" y="693" on="1"/>
        <pt x="181" y="759" on="1"/>
        <pt x="328" y="678" on="1"/>
        <pt x="336" y="678" on="1"/>
        <pt x="507" y="755" on="1"/>
      </contour>
      <contour>
        <pt x="470" y="161" on="1"/>
        <pt x="485" y="28" on="1"/>
        <pt x="401" y="-12" on="0"/>
        <pt x="265" y="-12" on="1"/>
        <pt x="128" y="-12" on="0"/>
        <pt x="1" y="117" on="0"/>
        <pt x="21" y="259" on="1"/>
        <pt x="40" y="396" on="0"/>
        <pt x="165" y="514" on="0"/>
        <pt x="441" y="514" on="0"/>
        <pt x="532" y="475" on="1"/>
        <pt x="504" y="347" on="1"/>
        <pt x="328" y="347" on="1"/>
        <pt x="284" y="347" on="0"/>
        <pt x="248" y="307" on="0"/>
        <pt x="240" y="253" on="1"/>
        <pt x="231" y="192" on="0"/>
        <pt x="256" y="154" on="0"/>
        <pt x="302" y="154" on="1"/>
        <pt x="407" y="154" on="0"/>
      </contour>
    </TTGlyph>
    <TTGlyph name="ccedilla" xMin="21" yMin="-256" xMax="532" yMax="514">
      <contour>
        <pt x="470" y="161" on="1"/>
        <pt x="485" y="28" on="1"/>
        <pt x="401" y="-12" on="0"/>
        <pt x="265" y="-12" on="1"/>
        <pt x="128" y="-12" on="0"/>
        <pt x="1" y="117" on="0"/>
        <pt x="21" y="259" on="1"/>
        <pt x="40" y="396" on="0"/>
        <pt x="165" y="514" on="0"/>
        <pt x="441" y="514" on="0"/>
        <pt x="532" y="475" on="1"/>
        <pt x="504" y="347" on="1"/>
        <pt x="328" y="347" on="1"/>
        <pt x="284" y="347" on="0"/>
        <pt x="248" y="307" on="0"/>
        <pt x="240" y="253" on="1"/>
        <pt x="231" y="192" on="0"/>
        <pt x="256" y="154" on="0"/>
        <pt x="302" y="154" on="1"/>
        <pt x="407" y="154" on="0"/>
      </contour>
      <contour>
        <pt x="140" y="-117" on="1"/>
        <pt x="158" y="-45" on="1"/>
        <pt x="239" y="-30" on="0"/>
        <pt x="340" y="-60" on="0"/>
        <pt x="330" y="-118" on="1"/>
        <pt x="316" y="-198" on="0"/>
        <pt x="178" y="-269" on="0"/>
        <pt x="82" y="-256" on="1"/>
        <pt x="103" y="-179" on="1"/>
        <pt x="192" y="-179" on="0"/>
        <pt x="202" y="-133" on="1"/>
        <pt x="202" y="-130" on="0"/>
        <pt x="203" y="-125" on="0"/>
        <pt x="198" y="-121" on="0"/>
        <pt x="191" y="-119" on="0"/>
        <pt x="176" y="-118" on="0"/>
        <pt x="155" y="-117" on="0"/>
      </contour>
    </TTGlyph>
    <TTGlyph name="cdotaccent" xMin="21" yMin="-12" xMax="532" yMax="725">
      <contour>
        <pt x="314" y="725" on="1"/>
        <pt x="373" y="725" on="1"/>
        <pt x="401" y="725" on="0"/>
        <pt x="433" y="695" on="0"/>
        <pt x="430" y="666" on="1"/>
        <pt x="425" y="617" on="1"/>
        <pt x="419" y="564" on="0"/>
        <pt x="365" y="564" on="1"/>
        <pt x="302" y="564" on="1"/>
        <pt x="237" y="564" on="0"/>
        <pt x="246" y="625" on="1"/>
        <pt x="252" y="672" on="1"/>
        <pt x="260" y="725" on="0"/>
      </contour>
      <contour>
        <pt x="470" y="161" on="1"/>
        <pt x="485" y="28" on="1"/>
        <pt x="401" y="-12" on="0"/>
        <pt x="265" y="-12" on="1"/>
        <pt x="128" y="-12" on="0"/>
        <pt x="1" y="117" on="0"/>
        <pt x="21" y="259" on="1"/>
        <pt x="40" y="396" on="0"/>
        <pt x="165" y="514" on="0"/>
        <pt x="441" y="514" on="0"/>
        <pt x="532" y="475" on="1"/>
        <pt x="504" y="347" on="1"/>
        <pt x="328" y="347" on="1"/>
        <pt x="284" y="347" on="0"/>
        <pt x="248" y="307" on="0"/>
        <pt x="240" y="253" on="1"/>
        <pt x="231" y="192" on="0"/>
        <pt x="256" y="154" on="0"/>
        <pt x="302" y="154" on="1"/>
        <pt x="407" y="154" on="0"/>
      </contour>
    </TTGlyph>
    <TTGlyph name="cedilla" xMin="-50" yMin="-244" xMax="198" yMax="-33">
      <contour>
        <pt x="8" y="-105" on="1"/>
        <pt x="26" y="-33" on="1"/>
        <pt x="107" y="-18" on="0"/>
        <pt x="208" y="-48" on="0"/>
        <pt x="198" y="-106" on="1"/>
        <pt x="184" y="-186" on="0"/>
        <pt x="46" y="-257" on="0"/>
        <pt x="-50" y="-244" on="1"/>
        <pt x="-29" y="-167" on="1"/>
        <pt x="60" y="-167" on="0"/>
        <pt x="70" y="-121" on="1"/>
        <pt x="70" y="-118" on="0"/>
        <pt x="71" y="-113" on="0"/>
        <pt x="66" y="-109" on="0"/>
        <pt x="59" y="-107" on="0"/>
        <pt x="44" y="-106" on="0"/>
        <pt x="23" y="-105" on="0"/>
      </contour>
    </TTGlyph>
    <TTGlyph name="cent" xMin="36" yMin="0" xMax="539" yMax="690">
      <contour>
        <pt x="510" y="444" on="1"/>
        <pt x="337" y="444" on="1"/>
        <pt x="296" y="444" on="0"/>
        <pt x="263" y="404" on="0"/>
        <pt x="255" y="350" on="1"/>
        <pt x="246" y="289" on="0"/>
        <pt x="270" y="251" on="0"/>
        <pt x="312" y="251" on="1"/>
        <pt x="415" y="251" on="0"/>
        <pt x="477" y="258" on="1"/>
        <pt x="491" y="125" on="1"/>
        <pt x="423" y="91" on="0"/>
        <pt x="312" y="86" on="1"/>
        <pt x="289" y="0" on="1"/>
        <pt x="134" y="0" on="1"/>
        <pt x="160" y="100" on="1"/>
        <pt x="8" y="149" on="0"/>
        <pt x="36" y="356" on="1"/>
        <pt x="54" y="489" on="0"/>
        <pt x="170" y="607" on="0"/>
        <pt x="294" y="611" on="1"/>
        <pt x="315" y="690" on="1"/>
        <pt x="471" y="690" on="1"/>
        <pt x="447" y="599" on="1"/>
        <pt x="500" y="589" on="0"/>
        <pt x="539" y="572" on="1"/>
      </contour>
    </TTGlyph>
    <TTGlyph name="circumflex" xMin="72" yMin="534" xMax="494" yMax="742">
      <contour>
        <pt x="494" y="602" on="1"/>
        <pt x="439" y="534" on="1"/>
        <pt x="292" y="628" on="1"/>
        <pt x="284" y="628" on="1"/>
        <pt x="120" y="534" on="1"/>
        <pt x="72" y="606" on="1"/>
        <pt x="222" y="742" on="1"/>
        <pt x="363" y="742" on="1"/>
      </contour>
    </TTGlyph>
    <TTGlyph name="colon" xMin="-3" yMin="1" xMax="231" yMax="462">
      <contour>
        <pt x="122" y="462" on="1"/>
        <pt x="162" y="462" on="1"/>
        <pt x="198" y="462" on="0"/>
        <pt x="236" y="423" on="0"/>
        <pt x="231" y="386" on="1"/>
        <pt x="225" y="345" on="1"/>
        <pt x="220" y="309" on="0"/>
        <pt x="183" y="277" on="0"/>
        <pt x="145" y="277" on="1"/>
        <pt x="105" y="277" on="1"/>
        <pt x="27" y="277" on="0"/>
        <pt x="36" y="353" on="1"/>
        <pt x="41" y="394" on="1"/>
        <pt x="51" y="462" on="0"/>
      </contour>
      <contour>
        <pt x="83" y="186" on="1"/>
        <pt x="123" y="186" on="1"/>
        <pt x="159" y="186" on="0"/>
        <pt x="197" y="147" on="0"/>
        <pt x="192" y="110" on="1"/>
        <pt x="186" y="69" on="1"/>
        <pt x="181" y="33" on="0"/>
        <pt x="144" y="1" on="0"/>
        <pt x="106" y="1" on="1"/>
        <pt x="66" y="1" on="1"/>
        <pt x="-12" y="1" on="0"/>
        <pt x="-3" y="77" on="1"/>
        <pt x="2" y="118" on="1"/>
        <pt x="12" y="186" on="0"/>
      </contour>
    </TTGlyph>
    <TTGlyph name="comma" xMin="3" yMin="-165" xMax="196" yMax="185">
      <contour>
        <pt x="93" y="185" on="1"/>
        <pt x="129" y="185" on="1"/>
        <pt x="169" y="185" on="0"/>
        <pt x="201" y="150" on="0"/>
        <pt x="196" y="109" on="1"/>
        <pt x="187" y="45" on="1"/>
        <pt x="179" y="-8" on="0"/>
        <pt x="129" y="-127" on="0"/>
        <pt x="97" y="-165" on="1"/>
        <pt x="12" y="-133" on="1"/>
        <pt x="28" y="-97" on="0"/>
        <pt x="55" y="4" on="1"/>
        <pt x="23" y="3" on="0"/>
        <pt x="-1" y="34" on="0"/>
        <pt x="3" y="68" on="1"/>
        <pt x="10" y="114" on="1"/>
        <pt x="16" y="154" on="0"/>
        <pt x="54" y="185" on="0"/>
      </contour>
    </TTGlyph>
    <TTGlyph name="copyright" xMin="38" yMin="-14" xMax="764" yMax="704">
      <contour>
        <pt x="430" y="704" on="1"/>
        <pt x="598" y="704" on="0"/>
        <pt x="781" y="504" on="0"/>
        <pt x="764" y="337" on="1"/>
        <pt x="747" y="176" on="0"/>
        <pt x="539" y="-14" on="0"/>
        <pt x="374" y="-14" on="1"/>
        <pt x="207" y="-14" on="0"/>
        <pt x="20" y="181" on="0"/>
        <pt x="38" y="353" on="1"/>
        <pt x="56" y="516" on="0"/>
        <pt x="268" y="704" on="0"/>
      </contour>
      <contour>
        <pt x="433" y="611" on="1"/>
        <pt x="307" y="611" on="0"/>
        <pt x="149" y="466" on="0"/>
        <pt x="138" y="337" on="1"/>
        <pt x="128" y="217" on="0"/>
        <pt x="246" y="79" on="0"/>
        <pt x="369" y="79" on="1"/>
        <pt x="493" y="79" on="0"/>
        <pt x="652" y="222" on="0"/>
        <pt x="664" y="353" on="1"/>
        <pt x="675" y="474" on="0"/>
        <pt x="555" y="611" on="0"/>
      </contour>
      <contour>
        <pt x="526" y="279" on="1"/>
        <pt x="535" y="170" on="1"/>
        <pt x="474" y="150" on="0"/>
        <pt x="399" y="150" on="1"/>
        <pt x="284" y="150" on="0"/>
        <pt x="199" y="242" on="0"/>
        <pt x="213" y="354" on="1"/>
        <pt x="226" y="460" on="0"/>
        <pt x="323" y="541" on="0"/>
        <pt x="432" y="541" on="1"/>
        <pt x="502" y="541" on="0"/>
        <pt x="564" y="524" on="1"/>
        <pt x="549" y="416" on="1"/>
        <pt x="417" y="416" on="1"/>
        <pt x="393" y="416" on="0"/>
        <pt x="373" y="390" on="0"/>
        <pt x="369" y="348" on="1"/>
        <pt x="364" y="303" on="0"/>
        <pt x="376" y="278" on="0"/>
        <pt x="400" y="276" on="1"/>
        <pt x="454" y="273" on="0"/>
      </contour>
    </TTGlyph>
    <TTGlyph name="currency" xMin="21" yMin="98" xMax="566" yMax="608">
      <contour>
        <pt x="566" y="511" on="1"/>
        <pt x="489" y="441" on="1"/>
        <pt x="506" y="395" on="0"/>
        <pt x="499" y="344" on="1"/>
        <pt x="491" y="290" on="0"/>
        <pt x="463" y="249" on="1"/>
        <pt x="526" y="181" on="1"/>
        <pt x="434" y="98" on="1"/>
        <pt x="371" y="167" on="1"/>
        <pt x="323" y="143" on="0"/>
        <pt x="274" y="143" on="1"/>
        <pt x="217" y="143" on="0"/>
        <pt x="171" y="170" on="1"/>
        <pt x="104" y="109" on="1"/>
        <pt x="21" y="200" on="1"/>
        <pt x="93" y="265" on="1"/>
        <pt x="76" y="311" on="0"/>
        <pt x="83" y="360" on="1"/>
        <pt x="90" y="410" on="0"/>
        <pt x="121" y="457" on="1"/>
        <pt x="59" y="525" on="1"/>
        <pt x="152" y="608" on="1"/>
        <pt x="215" y="538" on="1"/>
        <pt x="259" y="561" on="0"/>
        <pt x="309" y="561" on="1"/>
        <pt x="366" y="561" on="0"/>
        <pt x="410" y="535" on="1"/>
        <pt x="483" y="602" on="1"/>
      </contour>
      <contour>
        <pt x="206" y="397" on="0"/>
        <pt x="194" y="313" on="0"/>
        <pt x="243" y="261" on="0"/>
        <pt x="281" y="261" on="1"/>
        <pt x="321" y="261" on="0"/>
        <pt x="377" y="310" on="0"/>
        <pt x="383" y="351" on="1"/>
        <pt x="389" y="393" on="0"/>
        <pt x="342" y="445" on="0"/>
        <pt x="303" y="445" on="1"/>
        <pt x="259" y="445" on="0"/>
      </contour>
    </TTGlyph>
    <TTGlyph name="d" xMin="24" yMin="-12" xMax="631" yMax="700">
      <contour>
        <pt x="631" y="700" on="1"/>
        <pt x="532" y="0" on="1"/>
        <pt x="366" y="0" on="1"/>
        <pt x="362" y="80" on="1"/>
        <pt x="266" y="-12" on="0"/>
        <pt x="175" y="-12" on="1"/>
        <pt x="-10" y="-12" on="0"/>
        <pt x="24" y="264" on="1"/>
        <pt x="42" y="405" on="0"/>
        <pt x="150" y="514" on="0"/>
        <pt x="236" y="514" on="1"/>
        <pt x="330" y="514" on="0"/>
        <pt x="396" y="501" on="1"/>
        <pt x="396" y="561" on="0"/>
        <pt x="403" y="605" on="1"/>
        <pt x="421" y="700" on="1"/>
      </contour>
      <contour>
        <pt x="374" y="387" on="1"/>
        <pt x="327" y="387" on="1"/>
        <pt x="282" y="387" on="0"/>
        <pt x="248" y="344" on="0"/>
        <pt x="238" y="270" on="1"/>
        <pt x="228" y="216" on="0"/>
        <pt x="236" y="160" on="0"/>
        <pt x="264" y="162" on="1"/>
        <pt x="302" y="164" on="0"/>
        <pt x="348" y="197" on="1"/>
      </contour>
    </TTGlyph>
</ttFont>
